advent_pro_fmm_bld.ufo
<glyph name="quotedbl" format="2">
  <advance width="283"/>
  <unicode hex="0022"/>
  <outline>
    <contour>
      <point x="164" y="694" type="curve"/>
      <point x="177" y="587" type="line"/>
      <point x="240" y="587" type="line"/>
      <point x="253" y="694" type="line"/>
      <point x="253" y="751"/>
      <point x="163" y="751"/>
    </contour>
    <contour>
      <point x="28" y="694" type="curve"/>
      <point x="42" y="587" type="line"/>
      <point x="104" y="587" type="line"/>
      <point x="118" y="694" type="line"/>
      <point x="118" y="751"/>
      <point x="28" y="751"/>
    </contour>
  </outline>
</glyph>
<glyph name="ampersand" format="1">
  <advance width="529"/>
  <unicode hex="0026"/>
  <outline>
    <contour>
      <point x="383" y="588" type="line"/>
      <point x="404" y="700" type="line"/>
      <point x="236" y="700" type="line"/>
      <point x="146" y="700"/>
      <point x="73" y="640"/>
      <point x="73" y="554" type="curve" smooth="yes"/>
      <point x="73" y="486"/>
      <point x="112" y="433"/>
      <point x="169" y="403" type="curve"/>
      <point x="155" y="403" type="line"/>
      <point x="81" y="403"/>
      <point x="31" y="358"/>
      <point x="31" y="256" type="curve"/>
      <point x="31" y="161" type="line"/>
      <point x="31" y="34"/>
      <point x="114" y="-2"/>
      <point x="192" y="-2" type="curve" smooth="yes"/>
      <point x="234" y="-2"/>
      <point x="279" y="16"/>
      <point x="314" y="48" type="curve"/>
      <point x="339" y="12"/>
      <point x="382" y="-7"/>
      <point x="443" y="-8" type="curve"/>
      <point x="476" y="80" type="line"/>
      <point x="430" y="80"/>
      <point x="404" y="91"/>
      <point x="404" y="136" type="curve" smooth="yes"/>
      <point x="404" y="306" type="line"/>
      <point x="475" y="306" type="line"/>
      <point x="498" y="403" type="line"/>
      <point x="399" y="403" type="line"/>
      <point x="399" y="506" type="line"/>
      <point x="289" y="506" type="line"/>
      <point x="289" y="403" type="line"/>
      <point x="277" y="403" type="line"/>
      <point x="230" y="437"/>
      <point x="182" y="477"/>
      <point x="182" y="539" type="curve" smooth="yes"/>
      <point x="182" y="582"/>
      <point x="220" y="588"/>
      <point x="246" y="588" type="curve"/>
    </contour>
    <contour>
      <point x="289" y="310" type="line"/>
      <point x="289" y="167" type="line"/>
      <point x="281" y="125"/>
      <point x="249" y="98"/>
      <point x="209" y="98" type="curve" smooth="yes"/>
      <point x="166" y="98"/>
      <point x="140" y="127"/>
      <point x="140" y="164" type="curve"/>
      <point x="140" y="258" type="line"/>
      <point x="140" y="296"/>
      <point x="169" y="310"/>
      <point x="201" y="310" type="curve"/>
    </contour>
  </outline>
</glyph>
<glyph name="quotesingle" format="2">
  <advance width="148"/>
  <unicode hex="0027"/>
  <outline>
    <contour>
      <point x="28" y="694" type="curve"/>
      <point x="42" y="587" type="line"/>
      <point x="104" y="587" type="line"/>
      <point x="118" y="694" type="line"/>
      <point x="118" y="751"/>
      <point x="28" y="751"/>
    </contour>
  </outline>
</glyph>
<glyph name="asterisk" format="2">
  <advance width="381"/>
  <unicode hex="002A"/>
  <outline>
    <contour>
      <point x="65" y="653" type="line"/>
      <point x="26" y="550" type="line"/>
      <point x="143" y="540" type="line"/>
      <point x="52" y="466" type="line"/>
      <point x="150" y="396" type="line"/>
      <point x="188" y="514" type="line"/>
      <point x="226" y="396" type="line"/>
      <point x="328" y="464" type="line"/>
      <point x="232" y="539" type="line"/>
      <point x="353" y="549" type="line"/>
      <point x="308" y="654" type="line"/>
      <point x="215" y="586" type="line"/>
      <point x="249" y="698" type="line"/>
      <point x="129" y="698" type="line"/>
      <point x="162" y="586" type="line"/>
    </contour>
  </outline>
</glyph>
<glyph name="plus" format="2">
  <advance width="381"/>
  <unicode hex="002B"/>
  <outline>
    <contour>
      <point x="244" y="529" type="line"/>
      <point x="133" y="529" type="line"/>
      <point x="133" y="419" type="line"/>
      <point x="29" y="419" type="line"/>
      <point x="29" y="313" type="line"/>
      <point x="133" y="313" type="line"/>
      <point x="133" y="210" type="line"/>
      <point x="244" y="210" type="line"/>
      <point x="244" y="313" type="line"/>
      <point x="349" y="313" type="line"/>
      <point x="349" y="419" type="line"/>
      <point x="244" y="419" type="line"/>
    </contour>
  </outline>
</glyph>
<glyph name="hyphen" format="1">
  <advance width="393"/>
  <unicode hex="002D"/>
  <outline>
    <contour>
      <point x="35" y="306" type="line"/>
      <point x="354" y="306" type="line"/>
      <point x="354" y="413" type="line"/>
      <point x="35" y="413" type="line"/>
    </contour>
  </outline>
</glyph>
<glyph name="period" format="2">
  <advance width="189"/>
  <unicode hex="002E"/>
  <outline>
    <contour>
      <point x="94" y="103" type="curve" smooth="yes"/>
      <point x="61" y="103"/>
      <point x="35" y="76"/>
      <point x="35" y="43" type="curve" smooth="yes"/>
      <point x="35" y="10"/>
      <point x="61" y="-17"/>
      <point x="94" y="-17" type="curve" smooth="yes"/>
      <point x="127" y="-17"/>
      <point x="155" y="10"/>
      <point x="155" y="43" type="curve" smooth="yes"/>
      <point x="155" y="76"/>
      <point x="127" y="103"/>
    </contour>
  </outline>
</glyph>
<glyph name="slash" format="2">
  <advance width="479"/>
  <unicode hex="002F"/>
  <outline>
    <contour>
      <point x="18" y="-114" type="line"/>
      <point x="138" y="-114" type="line"/>
      <point x="463" y="816" type="line"/>
      <point x="345" y="816" type="line"/>
    </contour>
  </outline>
</glyph>
<glyph name="two" format="2">
  <advance width="441"/>
  <unicode hex="0032"/>
  <outline>
    <contour>
      <point x="48" y="588" type="curve"/>
      <point x="139" y="541" type="line"/>
      <point x="153" y="580"/>
      <point x="187" y="601"/>
      <point x="224" y="601" type="curve"/>
      <point x="260" y="599"/>
      <point x="294" y="576"/>
      <point x="294" y="529" type="curve" smooth="yes"/>
      <point x="294" y="501"/>
      <point x="287" y="479"/>
      <point x="251" y="422" type="curve"/>
      <point x="175" y="317"/>
      <point x="104" y="209"/>
      <point x="32" y="101" type="curve"/>
      <point x="32" y="0" type="line"/>
      <point x="405" y="0" type="line"/>
      <point x="405" y="100" type="line"/>
      <point x="159" y="100" type="line"/>
      <point x="248" y="235"/>
      <point x="295" y="304"/>
      <point x="339" y="372" type="curve" smooth="yes"/>
      <point x="376" y="428"/>
      <point x="402" y="476"/>
      <point x="402" y="538" type="curve" smooth="yes"/>
      <point x="402" y="650"/>
      <point x="315" y="708"/>
      <point x="225" y="708" type="curve" smooth="yes"/>
      <point x="145" y="708"/>
      <point x="76" y="662"/>
    </contour>
  </outline>
</glyph>
<glyph name="four" format="2">
  <advance width="540"/>
  <unicode hex="0034"/>
  <outline>
    <contour>
      <point x="333" y="0" type="line"/>
      <point x="443" y="0" type="line"/>
      <point x="443" y="306" type="line"/>
      <point x="493" y="306" type="line"/>
      <point x="512" y="413" type="line"/>
      <point x="443" y="413" type="line"/>
      <point x="443" y="698" type="line"/>
      <point x="333" y="698" type="line"/>
      <point x="333" y="413" type="line"/>
      <point x="197" y="413" type="line"/>
      <point x="324" y="698" type="line"/>
      <point x="212" y="698" type="line"/>
      <point x="19" y="306" type="line"/>
      <point x="333" y="306" type="line"/>
    </contour>
  </outline>
</glyph>
<glyph name="five" format="1">
  <advance width="444"/>
  <unicode hex="0035"/>
  <outline>
    <contour>
      <point x="185" y="411" type="line"/>
      <point x="194" y="588" type="line"/>
      <point x="358" y="588" type="line"/>
      <point x="358" y="698" type="line"/>
      <point x="92" y="698" type="line"/>
      <point x="69" y="310" type="line"/>
      <point x="169" y="310" type="line" smooth="yes"/>
      <point x="255" y="310"/>
      <point x="305" y="280"/>
      <point x="305" y="204" type="curve" smooth="yes"/>
      <point x="305" y="145"/>
      <point x="268" y="97"/>
      <point x="200" y="97" type="curve" smooth="yes"/>
      <point x="113" y="97"/>
      <point x="60" y="137"/>
      <point x="60" y="137" type="curve"/>
      <point x="20" y="42" type="line"/>
      <point x="20" y="42"/>
      <point x="101" y="-12"/>
      <point x="202" y="-12" type="curve" smooth="yes"/>
      <point x="343" y="-12"/>
      <point x="414" y="107"/>
      <point x="414" y="199" type="curve" smooth="yes"/>
      <point x="414" y="313"/>
      <point x="344" y="406"/>
      <point x="195" y="411" type="curve"/>
    </contour>
  </outline>
</glyph>
<glyph name="nine" format="2">
  <advance width="484"/>
  <unicode hex="0039"/>
  <outline>
    <contour>
      <point x="238" y="708" type="curve" smooth="yes"/>
      <point x="179" y="708"/>
      <point x="129" y="687"/>
      <point x="87" y="647" type="curve" smooth="yes"/>
      <point x="47" y="606"/>
      <point x="26" y="554"/>
      <point x="26" y="496" type="curve" smooth="yes"/>
      <point x="26" y="437"/>
      <point x="47" y="387"/>
      <point x="87" y="345" type="curve" smooth="yes"/>
      <point x="128" y="305"/>
      <point x="180" y="286"/>
      <point x="238" y="286" type="curve" smooth="yes"/>
      <point x="305" y="286"/>
      <point x="340" y="315"/>
      <point x="340" y="315" type="curve"/>
      <point x="340" y="262" type="line" smooth="yes"/>
      <point x="340" y="211"/>
      <point x="328" y="169"/>
      <point x="304" y="140" type="curve"/>
      <point x="282" y="116"/>
      <point x="251" y="100"/>
      <point x="210" y="100" type="curve" smooth="yes"/>
      <point x="171" y="100" type="line"/>
      <point x="171" y="-1" type="line"/>
      <point x="206" y="-1" type="line" smooth="yes"/>
      <point x="295" y="-1"/>
      <point x="363" y="34"/>
      <point x="399" y="82" type="curve" smooth="yes"/>
      <point x="435" y="134"/>
      <point x="449" y="185"/>
      <point x="449" y="238" type="curve" smooth="yes"/>
      <point x="449" y="496" type="line" smooth="yes"/>
      <point x="449" y="554"/>
      <point x="428" y="606"/>
      <point x="388" y="647" type="curve" smooth="yes"/>
      <point x="347" y="687"/>
      <point x="296" y="708"/>
    </contour>
    <contour>
      <point x="238" y="599" type="curve" smooth="yes"/>
      <point x="295" y="599"/>
      <point x="340" y="554"/>
      <point x="340" y="497" type="curve" smooth="yes"/>
      <point x="340" y="440"/>
      <point x="295" y="394"/>
      <point x="238" y="394" type="curve" smooth="yes"/>
      <point x="181" y="394"/>
      <point x="134" y="440"/>
      <point x="134" y="497" type="curve" smooth="yes"/>
      <point x="134" y="554"/>
      <point x="181" y="599"/>
    </contour>
  </outline>
</glyph>
<glyph name="semicolon" format="2">
  <advance width="195"/>
  <unicode hex="003B"/>
  <outline>
    <contour>
      <point x="63" y="28" type="curve"/>
      <point x="88" y="11" type="line"/>
      <point x="88" y="11"/>
      <point x="155" y="52"/>
      <point x="155" y="143" type="curve" smooth="yes"/>
      <point x="155" y="176"/>
      <point x="128" y="202"/>
      <point x="96" y="202" type="curve" smooth="yes"/>
      <point x="63" y="202"/>
      <point x="37" y="176"/>
      <point x="37" y="143" type="curve" smooth="yes"/>
      <point x="37" y="116"/>
      <point x="55" y="92"/>
      <point x="82" y="85" type="curve"/>
      <point x="79" y="66"/>
      <point x="73" y="45"/>
    </contour>
    <contour>
      <point x="157" y="385" type="curve" smooth="yes"/>
      <point x="157" y="417"/>
      <point x="129" y="444"/>
      <point x="96" y="444" type="curve" smooth="yes"/>
      <point x="63" y="444"/>
      <point x="38" y="417"/>
      <point x="38" y="385" type="curve" smooth="yes"/>
      <point x="38" y="352"/>
      <point x="63" y="324"/>
      <point x="96" y="324" type="curve" smooth="yes"/>
      <point x="129" y="324"/>
      <point x="157" y="352"/>
    </contour>
  </outline>
</glyph>
<glyph name="less" format="2">
  <advance width="411"/>
  <unicode hex="003C"/>
  <outline>
    <contour>
      <point x="26" y="358" type="line"/>
      <point x="304" y="80" type="line"/>
      <point x="375" y="146" type="line"/>
      <point x="166" y="358" type="line"/>
      <point x="378" y="565" type="line"/>
      <point x="304" y="636" type="line"/>
    </contour>
  </outline>
</glyph>
<glyph name="greater" format="1">
  <advance width="414"/>
  <unicode hex="003E"/>
  <outline>
    <contour>
      <point x="32" y="565" type="line"/>
      <point x="243" y="358" type="line"/>
      <point x="34" y="146" type="line"/>
      <point x="105" y="80" type="line"/>
      <point x="384" y="358" type="line"/>
      <point x="105" y="636" type="line"/>
    </contour>
  </outline>
</glyph>
<glyph name="at" format="2">
  <advance width="817"/>
  <unicode hex="0040"/>
  <outline>
    <contour>
      <point x="788" y="415" type="curve"/>
      <point x="757" y="484" type="line"/>
      <point x="663" y="466"/>
      <point x="643" y="415"/>
      <point x="643" y="348" type="curve" smooth="yes"/>
      <point x="643" y="332"/>
      <point x="643" y="179"/>
      <point x="643" y="162" type="curve" smooth="yes"/>
      <point x="643" y="57"/>
      <point x="562" y="5"/>
      <point x="398" y="5" type="curve" smooth="yes"/>
      <point x="209" y="5"/>
      <point x="136" y="70"/>
      <point x="136" y="226" type="curve" smooth="yes"/>
      <point x="136" y="261"/>
      <point x="136" y="295"/>
      <point x="136" y="330" type="curve" smooth="yes"/>
      <point x="136" y="443"/>
      <point x="167" y="504"/>
      <point x="314" y="504" type="curve" smooth="yes"/>
      <point x="399" y="504"/>
      <point x="449" y="496"/>
      <point x="449" y="443" type="curve"/>
      <point x="449" y="443"/>
      <point x="348" y="443"/>
      <point x="338" y="443" type="curve" smooth="yes"/>
      <point x="260" y="443"/>
      <point x="202" y="400"/>
      <point x="199" y="285" type="curve"/>
      <point x="199" y="234" type="line" smooth="yes"/>
      <point x="199" y="141"/>
      <point x="237" y="61"/>
      <point x="360" y="61" type="curve" smooth="yes"/>
      <point x="439" y="61"/>
      <point x="558" y="70"/>
      <point x="558" y="70" type="curve"/>
      <point x="558" y="163"/>
      <point x="558" y="253"/>
      <point x="558" y="345" type="curve"/>
      <point x="589" y="345" type="line"/>
      <point x="616" y="443" type="line"/>
      <point x="555" y="443" type="line"/>
      <point x="555" y="576"/>
      <point x="451" y="604"/>
      <point x="310" y="604" type="curve" smooth="yes"/>
      <point x="134" y="604"/>
      <point x="33" y="522"/>
      <point x="33" y="323" type="curve" smooth="yes"/>
      <point x="33" y="280"/>
      <point x="33" y="234"/>
      <point x="33" y="184" type="curve" smooth="yes"/>
      <point x="33" y="-2"/>
      <point x="182" y="-94"/>
      <point x="394" y="-94" type="curve" smooth="yes"/>
      <point x="652" y="-94"/>
      <point x="744" y="38"/>
      <point x="744" y="178" type="curve" smooth="yes"/>
      <point x="744" y="335" type="line" smooth="yes"/>
      <point x="744" y="372"/>
      <point x="747" y="395"/>
    </contour>
    <contour>
      <point x="366" y="345" type="curve" smooth="yes"/>
      <point x="368" y="345"/>
      <point x="423" y="345"/>
      <point x="452" y="345" type="curve"/>
      <point x="452" y="156" type="line"/>
      <point x="425" y="153"/>
      <point x="402" y="153"/>
      <point x="379" y="153" type="curve" smooth="yes"/>
      <point x="333" y="153"/>
      <point x="309" y="167"/>
      <point x="309" y="233" type="curve" smooth="yes"/>
      <point x="309" y="282" type="line" smooth="yes"/>
      <point x="309" y="332"/>
      <point x="344" y="345"/>
    </contour>
  </outline>
</glyph>
<glyph name="B" format="2">
  <advance width="505"/>
  <unicode hex="0042"/>
  <outline>
    <contour>
      <point x="245" y="698" type="curve" smooth="yes"/>
      <point x="41" y="698" type="line"/>
      <point x="41" y="0" type="line"/>
      <point x="260" y="0" type="line" smooth="yes"/>
      <point x="336" y="0"/>
      <point x="388" y="25"/>
      <point x="422" y="61" type="curve" smooth="yes"/>
      <point x="460" y="100"/>
      <point x="474" y="154"/>
      <point x="474" y="205" type="curve" smooth="yes"/>
      <point x="474" y="296"/>
      <point x="430" y="354"/>
      <point x="371" y="381" type="curve"/>
      <point x="371" y="382" type="line" smooth="yes"/>
      <point x="371" y="383"/>
      <point x="371" y="383"/>
      <point x="372" y="384" type="curve"/>
      <point x="416" y="414"/>
      <point x="438" y="459"/>
      <point x="438" y="521" type="curve" smooth="yes"/>
      <point x="438" y="579"/>
      <point x="421" y="621"/>
      <point x="383" y="653" type="curve" smooth="yes"/>
      <point x="346" y="684"/>
      <point x="299" y="698"/>
    </contour>
    <contour>
      <point x="199" y="413" type="curve" smooth="yes"/>
      <point x="151" y="413" type="line"/>
      <point x="151" y="588" type="line"/>
      <point x="209" y="588" type="line" smooth="yes"/>
      <point x="277" y="588"/>
      <point x="310" y="568"/>
      <point x="310" y="505" type="curve" smooth="yes"/>
      <point x="310" y="476"/>
      <point x="305" y="455"/>
      <point x="292" y="441" type="curve" smooth="yes"/>
      <point x="274" y="421"/>
      <point x="243" y="413"/>
    </contour>
    <contour>
      <point x="231" y="101" type="curve" smooth="yes"/>
      <point x="151" y="101" type="line"/>
      <point x="151" y="307" type="line"/>
      <point x="221" y="307" type="line" smooth="yes"/>
      <point x="306" y="307"/>
      <point x="348" y="274"/>
      <point x="348" y="207" type="curve" smooth="yes"/>
      <point x="348" y="120"/>
      <point x="279" y="101"/>
    </contour>
  </outline>
</glyph>
<glyph name="C" format="1">
  <advance width="426"/>
  <unicode hex="0043"/>
  <outline>
    <contour>
      <point x="342" y="582" type="curve"/>
      <point x="372" y="675" type="line"/>
      <point x="325" y="698"/>
      <point x="276" y="710"/>
      <point x="228" y="710" type="curve" smooth="yes"/>
      <point x="117" y="710"/>
      <point x="36" y="640"/>
      <point x="36" y="509" type="curve" smooth="yes"/>
      <point x="36" y="183" type="line" smooth="yes"/>
      <point x="36" y="113"/>
      <point x="59" y="64"/>
      <point x="95" y="32" type="curve" smooth="yes"/>
      <point x="130" y="2"/>
      <point x="179" y="-12"/>
      <point x="233" y="-12" type="curve" smooth="yes"/>
      <point x="284" y="-11"/>
      <point x="339" y="1"/>
      <point x="396" y="23" type="curve"/>
      <point x="380" y="127" type="line"/>
      <point x="368" y="127"/>
      <point x="300" y="100"/>
      <point x="239" y="100" type="curve" smooth="yes"/>
      <point x="179" y="100"/>
      <point x="146" y="123"/>
      <point x="146" y="185" type="curve" smooth="yes"/>
      <point x="146" y="512" type="line" smooth="yes"/>
      <point x="146" y="575"/>
      <point x="182" y="599"/>
      <point x="248" y="599" type="curve" smooth="yes"/>
      <point x="278" y="599"/>
      <point x="315" y="592"/>
    </contour>
    <contour>
      <point x="213" y="735" type="move" name="top"/>
    </contour>
    <contour>
      <point x="213" y="0" type="move" name="bottom"/>
    </contour>
  </outline>
</glyph>
<glyph name="D" format="2">
  <advance width="497"/>
  <unicode hex="0044"/>
  <outline>
    <contour>
      <point x="229" y="700" type="curve" smooth="yes"/>
      <point x="41" y="700" type="line"/>
      <point x="41" y="0" type="line"/>
      <point x="249" y="0" type="line" smooth="yes"/>
      <point x="390" y="0"/>
      <point x="461" y="74"/>
      <point x="461" y="206" type="curve" smooth="yes"/>
      <point x="461" y="473" type="line" smooth="yes"/>
      <point x="461" y="609"/>
      <point x="380" y="700"/>
    </contour>
    <contour>
      <point x="234" y="101" type="curve" smooth="yes"/>
      <point x="151" y="101" type="line"/>
      <point x="151" y="588" type="line"/>
      <point x="239" y="588" type="line" smooth="yes"/>
      <point x="315" y="588"/>
      <point x="351" y="555"/>
      <point x="351" y="483" type="curve" smooth="yes"/>
      <point x="351" y="196" type="line" smooth="yes"/>
      <point x="351" y="156"/>
      <point x="345" y="101"/>
    </contour>
  </outline>
</glyph>
<glyph name="E" format="2">
  <advance width="410"/>
  <unicode hex="0045"/>
  <outline>
    <contour>
      <point x="41" y="0" type="line"/>
      <point x="373" y="0" type="line"/>
      <point x="373" y="100" type="line"/>
      <point x="151" y="100" type="line"/>
      <point x="151" y="308" type="line"/>
      <point x="257" y="308" type="line"/>
      <point x="288" y="413" type="line"/>
      <point x="151" y="413" type="line"/>
      <point x="151" y="588" type="line"/>
      <point x="375" y="588" type="line"/>
      <point x="375" y="698" type="line"/>
      <point x="41" y="698" type="line"/>
    </contour>
  </outline>
</glyph>
<glyph name="G" format="1">
  <advance width="480"/>
  <unicode hex="0047"/>
  <outline>
    <contour>
      <point x="339" y="576" type="curve"/>
      <point x="372" y="675" type="line"/>
      <point x="333" y="695"/>
      <point x="290" y="706"/>
      <point x="242" y="708" type="curve" smooth="yes"/>
      <point x="188" y="708"/>
      <point x="153" y="700"/>
      <point x="123" y="683" type="curve" smooth="yes"/>
      <point x="65" y="648"/>
      <point x="36" y="587"/>
      <point x="36" y="502" type="curve" smooth="yes"/>
      <point x="36" y="189" type="line" smooth="yes"/>
      <point x="36" y="123"/>
      <point x="56" y="70"/>
      <point x="98" y="37" type="curve" smooth="yes"/>
      <point x="139" y="4"/>
      <point x="187" y="-10"/>
      <point x="247" y="-10" type="curve" smooth="yes"/>
      <point x="272" y="-10"/>
      <point x="331" y="0"/>
      <point x="366" y="28" type="curve"/>
      <point x="371" y="0" type="line"/>
      <point x="447" y="0" type="line"/>
      <point x="447" y="300" type="line"/>
      <point x="245" y="300" type="line"/>
      <point x="280" y="195" type="line"/>
      <point x="337" y="195" type="line"/>
      <point x="337" y="186" type="line" smooth="yes"/>
      <point x="337" y="159"/>
      <point x="329" y="139"/>
      <point x="317" y="125" type="curve" smooth="yes"/>
      <point x="302" y="109"/>
      <point x="278" y="101"/>
      <point x="246" y="101" type="curve" smooth="yes"/>
      <point x="181" y="101"/>
      <point x="146" y="123"/>
      <point x="146" y="187" type="curve" smooth="yes"/>
      <point x="146" y="510" type="line" smooth="yes"/>
      <point x="146" y="549"/>
      <point x="159" y="571"/>
      <point x="183" y="583" type="curve" smooth="yes"/>
      <point x="200" y="591"/>
      <point x="222" y="594"/>
      <point x="248" y="594" type="curve" smooth="yes"/>
      <point x="276" y="594"/>
      <point x="307" y="587"/>
    </contour>
    <contour>
      <point x="240" y="735" type="move" name="top"/>
    </contour>
    <contour>
      <point x="240" y="0" type="move" name="bottom"/>
    </contour>
  </outline>
</glyph>
<glyph name="I" format="2">
  <advance width="239"/>
  <unicode hex="0049"/>
  <outline>
    <contour>
      <point x="23" y="593" type="line"/>
      <point x="86" y="591" type="line"/>
      <point x="86" y="0" type="line"/>
      <point x="196" y="0" type="line"/>
      <point x="196" y="698" type="line"/>
      <point x="23" y="698" type="line"/>
    </contour>
  </outline>
</glyph>
<glyph name="J" format="1">
  <advance width="281"/>
  <unicode hex="004A"/>
  <outline>
    <contour>
      <point x="240" y="139" type="curve" smooth="yes"/>
      <point x="240" y="698" type="line"/>
      <point x="72" y="698" type="line"/>
      <point x="72" y="593" type="line"/>
      <point x="133" y="591" type="line"/>
      <point x="133" y="156" type="line" smooth="yes"/>
      <point x="133" y="90"/>
      <point x="97" y="57"/>
      <point x="27" y="57" type="curve"/>
      <point x="63" y="-37" type="line"/>
      <point x="100" y="-36"/>
      <point x="147" y="-28"/>
      <point x="184" y="3" type="curve" smooth="yes"/>
      <point x="216" y="29"/>
      <point x="240" y="71"/>
    </contour>
    <contour>
      <point x="140" y="735" type="move" name="top"/>
    </contour>
  </outline>
</glyph>
<glyph name="L" format="2">
  <advance width="428"/>
  <unicode hex="004C"/>
  <outline>
    <contour>
      <point x="41" y="0" type="line"/>
      <point x="402" y="0" type="line"/>
      <point x="402" y="101" type="line"/>
      <point x="151" y="101" type="line"/>
      <point x="151" y="698" type="line"/>
      <point x="41" y="698" type="line"/>
    </contour>
  </outline>
</glyph>
<glyph name="M" format="2">
  <advance width="620"/>
  <unicode hex="004D"/>
  <outline>
    <contour>
      <point x="151" y="698" type="line"/>
      <point x="41" y="698" type="line"/>
      <point x="41" y="0" type="line"/>
      <point x="151" y="0" type="line"/>
      <point x="151" y="369" type="line"/>
      <point x="267" y="0" type="line"/>
      <point x="350" y="0" type="line"/>
      <point x="467" y="370" type="line"/>
      <point x="467" y="0" type="line"/>
      <point x="577" y="0" type="line"/>
      <point x="577" y="698" type="line"/>
      <point x="467" y="698" type="line"/>
      <point x="308" y="237" type="line"/>
    </contour>
  </outline>
</glyph>
<glyph name="P" format="2">
  <advance width="507"/>
  <unicode hex="0050"/>
  <outline>
    <contour>
      <point x="258" y="698" type="curve" smooth="yes"/>
      <point x="41" y="698" type="line"/>
      <point x="41" y="0" type="line"/>
      <point x="151" y="0" type="line"/>
      <point x="151" y="195" type="line"/>
      <point x="151" y="195"/>
      <point x="253" y="195"/>
      <point x="258" y="195" type="curve" smooth="yes"/>
      <point x="365" y="195"/>
      <point x="476" y="235"/>
      <point x="476" y="451" type="curve" smooth="yes"/>
      <point x="476" y="648"/>
      <point x="363" y="698"/>
    </contour>
    <contour>
      <point x="151" y="300" type="curve"/>
      <point x="151" y="588" type="line"/>
      <point x="217" y="588" type="line" smooth="yes"/>
      <point x="319" y="588"/>
      <point x="365" y="576"/>
      <point x="365" y="451" type="curve" smooth="yes"/>
      <point x="365" y="317"/>
      <point x="320" y="300"/>
      <point x="217" y="300" type="curve" smooth="yes"/>
      <point x="212" y="300"/>
      <point x="151" y="300"/>
    </contour>
  </outline>
</glyph>
<glyph name="Q" format="2">
  <advance width="493"/>
  <unicode hex="0051"/>
  <outline>
    <contour>
      <point x="36" y="506" type="curve" smooth="yes"/>
      <point x="36" y="185" type="line" smooth="yes"/>
      <point x="36" y="56"/>
      <point x="128" y="-11"/>
      <point x="247" y="-11" type="curve" smooth="yes"/>
      <point x="372" y="-11"/>
      <point x="456" y="63"/>
      <point x="456" y="185" type="curve" smooth="yes"/>
      <point x="456" y="505" type="line" smooth="yes"/>
      <point x="456" y="636"/>
      <point x="380" y="715"/>
      <point x="248" y="715" type="curve" smooth="yes"/>
      <point x="116" y="715"/>
      <point x="36" y="642"/>
    </contour>
    <contour>
      <point x="146" y="184" type="curve" smooth="yes"/>
      <point x="146" y="470" type="line" smooth="yes"/>
      <point x="146" y="557"/>
      <point x="176" y="598"/>
      <point x="246" y="598" type="curve" smooth="yes"/>
      <point x="323" y="598"/>
      <point x="346" y="554"/>
      <point x="346" y="469" type="curve" smooth="yes"/>
      <point x="346" y="186" type="line" smooth="yes"/>
      <point x="346" y="123"/>
      <point x="326" y="81"/>
      <point x="246" y="81" type="curve" smooth="yes"/>
      <point x="157" y="81"/>
      <point x="146" y="140"/>
    </contour>
    <contour>
      <point x="303" y="50" type="curve" smooth="yes"/>
      <point x="303" y="94"/>
      <point x="302" y="133"/>
      <point x="303" y="173" type="curve"/>
      <point x="190" y="173" type="line"/>
      <point x="188" y="123"/>
      <point x="190" y="77"/>
      <point x="190" y="31" type="curve" smooth="yes"/>
      <point x="190" y="-50"/>
      <point x="227" y="-117"/>
      <point x="390" y="-117" type="curve"/>
      <point x="404" y="-22" type="line"/>
      <point x="309" y="-22"/>
      <point x="303" y="5"/>
    </contour>
  </outline>
</glyph>
<glyph name="R" format="2">
  <advance width="511"/>
  <unicode hex="0052"/>
  <outline>
    <contour>
      <point x="258" y="698" type="curve" smooth="yes"/>
      <point x="41" y="698" type="line"/>
      <point x="41" y="0" type="line"/>
      <point x="151" y="0" type="line"/>
      <point x="151" y="195" type="line"/>
      <point x="258" y="195" type="line" smooth="yes"/>
      <point x="270" y="195"/>
      <point x="282" y="195"/>
      <point x="294" y="196" type="curve"/>
      <point x="364" y="0" type="line"/>
      <point x="476" y="0" type="line"/>
      <point x="395" y="232" type="line"/>
      <point x="443" y="267"/>
      <point x="476" y="333"/>
      <point x="476" y="451" type="curve" smooth="yes"/>
      <point x="476" y="648"/>
      <point x="363" y="698"/>
    </contour>
    <contour>
      <point x="217" y="300" type="curve" smooth="yes"/>
      <point x="151" y="300" type="line"/>
      <point x="151" y="588" type="line"/>
      <point x="217" y="588" type="line" smooth="yes"/>
      <point x="319" y="588"/>
      <point x="365" y="576"/>
      <point x="365" y="451" type="curve" smooth="yes"/>
      <point x="365" y="317"/>
      <point x="320" y="300"/>
    </contour>
  </outline>
</glyph>
<glyph name="S" format="2">
  <advance width="544"/>
  <unicode hex="0053"/>
  <outline>
    <contour>
      <point x="417" y="574" type="curve"/>
      <point x="450" y="671" type="line"/>
      <point x="404" y="695"/>
      <point x="346" y="708"/>
      <point x="290" y="708" type="curve" smooth="yes"/>
      <point x="232" y="708"/>
      <point x="175" y="697"/>
      <point x="130" y="667" type="curve" smooth="yes"/>
      <point x="82" y="635"/>
      <point x="62" y="586"/>
      <point x="62" y="537" type="curve" smooth="yes"/>
      <point x="62" y="428"/>
      <point x="150" y="387"/>
      <point x="235" y="346" type="curve"/>
      <point x="258" y="337"/>
      <point x="281" y="326"/>
      <point x="302" y="313" type="curve"/>
      <point x="352" y="286"/>
      <point x="392" y="252"/>
      <point x="392" y="198" type="curve" smooth="yes"/>
      <point x="392" y="167"/>
      <point x="378" y="137"/>
      <point x="355" y="121" type="curve" smooth="yes"/>
      <point x="330" y="102"/>
      <point x="295" y="96"/>
      <point x="266" y="96" type="curve" smooth="yes"/>
      <point x="246" y="96"/>
      <point x="210" y="99"/>
      <point x="172" y="122" type="curve" smooth="yes"/>
      <point x="151" y="135"/>
      <point x="131" y="155"/>
      <point x="114" y="183" type="curve"/>
      <point x="29" y="127" type="line"/>
      <point x="59" y="81"/>
      <point x="83" y="55"/>
      <point x="117" y="31" type="curve" smooth="yes"/>
      <point x="163" y="-2"/>
      <point x="217" y="-12"/>
      <point x="263" y="-12" type="curve" smooth="yes"/>
      <point x="322" y="-12"/>
      <point x="382" y="-1"/>
      <point x="428" y="29" type="curve" smooth="yes"/>
      <point x="490" y="69"/>
      <point x="515" y="136"/>
      <point x="515" y="199" type="curve" smooth="yes"/>
      <point x="515" y="297"/>
      <point x="448" y="360"/>
      <point x="373" y="404" type="curve" smooth="yes"/>
      <point x="344" y="422"/>
      <point x="313" y="437"/>
      <point x="285" y="449" type="curve" smooth="yes"/>
      <point x="227" y="475"/>
      <point x="185" y="496"/>
      <point x="184" y="537" type="curve" smooth="yes"/>
      <point x="184" y="559"/>
      <point x="194" y="575"/>
      <point x="210" y="586" type="curve" smooth="yes"/>
      <point x="226" y="598"/>
      <point x="254" y="606"/>
      <point x="288" y="606" type="curve" smooth="yes"/>
      <point x="324" y="606"/>
      <point x="369" y="597"/>
    </contour>
  </outline>
</glyph>
<glyph name="T" format="2">
  <advance width="431"/>
  <unicode hex="0054"/>
  <outline>
    <contour>
      <point x="268" y="587" type="line"/>
      <point x="416" y="587" type="line"/>
      <point x="416" y="698" type="line"/>
      <point x="13" y="698" type="line"/>
      <point x="13" y="587" type="line"/>
      <point x="158" y="587" type="line"/>
      <point x="158" y="0" type="line"/>
      <point x="268" y="0" type="line"/>
    </contour>
  </outline>
</glyph>
<glyph name="U" format="2">
  <advance width="499"/>
  <unicode hex="0055"/>
  <outline>
    <contour>
      <point x="459" y="185" type="curve" smooth="yes"/>
      <point x="459" y="698" type="line"/>
      <point x="349" y="698" type="line"/>
      <point x="349" y="206" type="line" smooth="yes"/>
      <point x="349" y="172"/>
      <point x="338" y="144"/>
      <point x="319" y="127" type="curve"/>
      <point x="302" y="110"/>
      <point x="278" y="101"/>
      <point x="249" y="101" type="curve" smooth="yes"/>
      <point x="219" y="101"/>
      <point x="196" y="108"/>
      <point x="181" y="122" type="curve" smooth="yes"/>
      <point x="160" y="140"/>
      <point x="149" y="168"/>
      <point x="149" y="204" type="curve" smooth="yes"/>
      <point x="149" y="698" type="line"/>
      <point x="39" y="698" type="line"/>
      <point x="39" y="185" type="line" smooth="yes"/>
      <point x="39" y="118"/>
      <point x="61" y="68"/>
      <point x="101" y="36" type="curve" smooth="yes"/>
      <point x="143" y="5"/>
      <point x="193" y="-11"/>
      <point x="250" y="-11" type="curve" smooth="yes"/>
      <point x="307" y="-11"/>
      <point x="357" y="5"/>
      <point x="397" y="36" type="curve" smooth="yes"/>
      <point x="438" y="68"/>
      <point x="459" y="118"/>
    </contour>
  </outline>
</glyph>
<glyph name="V" format="2">
  <advance width="514"/>
  <unicode hex="0056"/>
  <outline>
    <contour>
      <point x="17" y="698" type="line"/>
      <point x="192" y="0" type="line"/>
      <point x="320" y="0" type="line"/>
      <point x="495" y="698" type="line"/>
      <point x="368" y="698" type="line"/>
      <point x="256" y="216" type="line"/>
      <point x="141" y="698" type="line"/>
    </contour>
  </outline>
</glyph>
<glyph name="W" format="2">
  <advance width="740"/>
  <unicode hex="0057"/>
  <outline>
    <contour>
      <point x="409" y="698" type="line"/>
      <point x="330" y="698" type="line"/>
      <point x="224" y="252" type="line"/>
      <point x="141" y="698" type="line"/>
      <point x="20" y="698" type="line"/>
      <point x="154" y="0" type="line"/>
      <point x="282" y="0" type="line"/>
      <point x="369" y="353" type="line"/>
      <point x="458" y="0" type="line"/>
      <point x="582" y="0" type="line"/>
      <point x="717" y="698" type="line"/>
      <point x="590" y="698" type="line"/>
      <point x="515" y="252" type="line"/>
    </contour>
  </outline>
</glyph>
<glyph name="X" format="2">
  <advance width="627"/>
  <unicode hex="0058"/>
  <outline>
    <contour>
      <point x="315" y="466" type="line"/>
      <point x="168" y="698" type="line"/>
      <point x="38" y="698" type="line"/>
      <point x="244" y="350" type="line"/>
      <point x="26" y="0" type="line"/>
      <point x="163" y="0" type="line"/>
      <point x="310" y="244" type="line"/>
      <point x="461" y="0" type="line"/>
      <point x="603" y="0" type="line"/>
      <point x="381" y="359" type="line"/>
      <point x="586" y="698" type="line"/>
      <point x="455" y="698" type="line"/>
    </contour>
  </outline>
</glyph>
<glyph name="Y" format="2">
  <advance width="518"/>
  <unicode hex="0059"/>
  <outline>
    <contour>
      <point x="477" y="156" type="curve" smooth="yes"/>
      <point x="477" y="698" type="line"/>
      <point x="367" y="698" type="line"/>
      <point x="367" y="405" type="line" smooth="yes"/>
      <point x="367" y="375"/>
      <point x="353" y="346"/>
      <point x="334" y="328" type="curve" smooth="yes"/>
      <point x="314" y="310"/>
      <point x="290" y="300"/>
      <point x="262" y="300" type="curve" smooth="yes"/>
      <point x="226" y="300"/>
      <point x="195" y="309"/>
      <point x="176" y="327" type="curve" smooth="yes"/>
      <point x="153" y="348"/>
      <point x="142" y="380"/>
      <point x="142" y="422" type="curve" smooth="yes"/>
      <point x="142" y="698" type="line"/>
      <point x="32" y="698" type="line"/>
      <point x="32" y="413" type="line" smooth="yes"/>
      <point x="32" y="345"/>
      <point x="53" y="293"/>
      <point x="95" y="254" type="curve" smooth="yes"/>
      <point x="141" y="210"/>
      <point x="196" y="198"/>
      <point x="255" y="198" type="curve" smooth="yes"/>
      <point x="322" y="201"/>
      <point x="367" y="237"/>
      <point x="367" y="237" type="curve"/>
      <point x="367" y="164" type="line" smooth="yes"/>
      <point x="367" y="94"/>
      <point x="335" y="70"/>
      <point x="291" y="65" type="curve"/>
      <point x="326" y="-19" type="line"/>
      <point x="435" y="-8"/>
      <point x="477" y="51"/>
    </contour>
  </outline>
</glyph>
<glyph name="Z" format="2">
  <advance width="556"/>
  <unicode hex="005A"/>
  <outline>
    <contour>
      <point x="514" y="698" type="line"/>
      <point x="46" y="698" type="line"/>
      <point x="46" y="588" type="line"/>
      <point x="375" y="588" type="line"/>
      <point x="32" y="101" type="line"/>
      <point x="32" y="0" type="line"/>
      <point x="520" y="0" type="line"/>
      <point x="520" y="105" type="line"/>
      <point x="170" y="105" type="line"/>
      <point x="514" y="588" type="line"/>
    </contour>
  </outline>
</glyph>
<glyph name="backslash" format="1">
  <advance width="477"/>
  <unicode hex="005C"/>
  <outline>
    <contour>
      <point x="343" y="-114" type="line"/>
      <point x="460" y="-114" type="line"/>
      <point x="136" y="816" type="line"/>
      <point x="16" y="816" type="line"/>
    </contour>
  </outline>
</glyph>
<glyph name="grave" format="2">
  <advance width="266"/>
  <unicode hex="0060"/>
  <outline>
    <contour>
      <point x="131" y="704" type="line"/>
      <point x="120" y="730"/>
      <point x="92" y="749"/>
      <point x="65" y="734" type="curve" smooth="yes"/>
      <point x="36" y="718"/>
      <point x="41" y="682"/>
      <point x="59" y="663" type="curve"/>
      <point x="117" y="587" type="line"/>
      <point x="161" y="587" type="line"/>
    </contour>
  </outline>
</glyph>
<glyph name="c" format="2">
  <advance width="384"/>
  <unicode hex="0063"/>
  <outline>
    <contour>
      <point x="326" y="392" type="curve"/>
      <point x="351" y="477" type="line"/>
      <point x="293" y="503"/>
      <point x="229" y="518"/>
      <point x="169" y="505" type="curve" smooth="yes"/>
      <point x="124" y="495"/>
      <point x="85" y="471"/>
      <point x="59" y="427" type="curve" smooth="yes"/>
      <point x="40" y="395"/>
      <point x="33" y="363"/>
      <point x="31" y="319" type="curve"/>
      <point x="31" y="173" type="line" smooth="yes"/>
      <point x="31" y="75"/>
      <point x="75" y="23"/>
      <point x="143" y="1" type="curve" smooth="yes"/>
      <point x="213" y="-20"/>
      <point x="287" y="-12"/>
      <point x="353" y="5" type="curve"/>
      <point x="333" y="94" type="line"/>
      <point x="333" y="94"/>
      <point x="287" y="84"/>
      <point x="244" y="84" type="curve" smooth="yes"/>
      <point x="182" y="84"/>
      <point x="140" y="113"/>
      <point x="140" y="174" type="curve" smooth="yes"/>
      <point x="140" y="331" type="line" smooth="yes"/>
      <point x="140" y="351"/>
      <point x="146" y="367"/>
      <point x="153" y="380" type="curve"/>
      <point x="165" y="398"/>
      <point x="186" y="409"/>
      <point x="209" y="413" type="curve" smooth="yes"/>
      <point x="248" y="420"/>
      <point x="291" y="408"/>
    </contour>
  </outline>
</glyph>
<glyph name="e" format="1">
  <advance width="425"/>
  <unicode hex="0065"/>
  <outline>
    <contour>
      <point x="144" y="148" type="curve" smooth="yes"/>
      <point x="144" y="173" type="line"/>
      <point x="393" y="186" type="line"/>
      <point x="393" y="342" type="line" smooth="yes"/>
      <point x="393" y="402"/>
      <point x="371" y="449"/>
      <point x="332" y="477" type="curve" smooth="yes"/>
      <point x="303" y="498"/>
      <point x="264" y="509"/>
      <point x="217" y="509" type="curve" smooth="yes"/>
      <point x="166" y="509"/>
      <point x="124" y="496"/>
      <point x="93" y="472" type="curve" smooth="yes"/>
      <point x="55" y="442"/>
      <point x="33" y="397"/>
      <point x="33" y="339" type="curve" smooth="yes"/>
      <point x="33" y="134" type="line" smooth="yes"/>
      <point x="33" y="80"/>
      <point x="53" y="43"/>
      <point x="83" y="20" type="curve" smooth="yes"/>
      <point x="114" y="-3"/>
      <point x="154" y="-13"/>
      <point x="198" y="-13" type="curve" smooth="yes"/>
      <point x="258" y="-13"/>
      <point x="321" y="5"/>
      <point x="368" y="35" type="curve"/>
      <point x="328" y="130" type="line"/>
      <point x="285" y="108"/>
      <point x="237" y="90"/>
      <point x="201" y="90" type="curve" smooth="yes"/>
      <point x="182" y="90"/>
      <point x="169" y="95"/>
      <point x="159" y="106" type="curve" smooth="yes"/>
      <point x="149" y="116"/>
      <point x="144" y="129"/>
    </contour>
    <contour>
      <point x="282" y="312" type="curve" smooth="yes"/>
      <point x="282" y="305"/>
      <point x="282" y="289"/>
      <point x="282" y="283" type="curve"/>
      <point x="144" y="274" type="line"/>
      <point x="144" y="284"/>
      <point x="144" y="304"/>
      <point x="144" y="313" type="curve" smooth="yes"/>
      <point x="144" y="345"/>
      <point x="146" y="367"/>
      <point x="163" y="385" type="curve"/>
      <point x="174" y="395"/>
      <point x="192" y="403"/>
      <point x="216" y="404" type="curve" smooth="yes"/>
      <point x="237" y="404"/>
      <point x="251" y="397"/>
      <point x="261" y="388" type="curve" smooth="yes"/>
      <point x="280" y="371"/>
      <point x="282" y="348"/>
    </contour>
    <contour>
      <point x="212" y="545" type="move" name="top"/>
    </contour>
    <contour>
      <point x="211" y="0" type="move" name="ogonek"/>
    </contour>
  </outline>
</glyph>
<glyph name="f" format="2">
  <advance width="278"/>
  <unicode hex="0066"/>
  <outline>
    <contour>
      <point x="231" y="606" type="curve"/>
      <point x="249" y="706" type="line"/>
      <point x="230" y="708"/>
      <point x="205" y="711"/>
      <point x="187" y="711" type="curve" smooth="yes"/>
      <point x="106" y="711"/>
      <point x="40" y="659"/>
      <point x="40" y="548" type="curve" smooth="yes"/>
      <point x="40" y="0" type="line"/>
      <point x="153" y="0" type="line"/>
      <point x="153" y="396" type="line"/>
      <point x="216" y="396" type="line"/>
      <point x="240" y="499" type="line"/>
      <point x="153" y="499" type="line"/>
      <point x="153" y="555"/>
      <point x="153" y="557"/>
      <point x="153" y="558" type="curve" smooth="yes"/>
      <point x="153" y="594"/>
      <point x="166" y="612"/>
      <point x="192" y="612" type="curve" smooth="yes"/>
      <point x="205" y="612"/>
      <point x="220" y="609"/>
    </contour>
  </outline>
</glyph>
<glyph name="g" format="2">
  <advance width="442"/>
  <unicode hex="0067"/>
  <outline>
    <contour>
      <point x="402" y="-64" type="curve" smooth="yes"/>
      <point x="402" y="499" type="line"/>
      <point x="292" y="499" type="line"/>
      <point x="292" y="477" type="line"/>
      <point x="261" y="498"/>
      <point x="227" y="509"/>
      <point x="190" y="509" type="curve" smooth="yes"/>
      <point x="87" y="509"/>
      <point x="32" y="446"/>
      <point x="32" y="345" type="curve" smooth="yes"/>
      <point x="32" y="176" type="line" smooth="yes"/>
      <point x="32" y="53"/>
      <point x="91" y="-12"/>
      <point x="202" y="-12" type="curve" smooth="yes"/>
      <point x="235" y="-12"/>
      <point x="269" y="-3"/>
      <point x="292" y="12" type="curve"/>
      <point x="292" y="-53" type="line" smooth="yes"/>
      <point x="292" y="-106"/>
      <point x="252" y="-124"/>
      <point x="219" y="-124" type="curve"/>
      <point x="246" y="-210" type="line"/>
      <point x="341" y="-210"/>
      <point x="402" y="-169"/>
    </contour>
    <contour>
      <point x="292" y="386" type="curve"/>
      <point x="292" y="139" type="line" smooth="yes"/>
      <point x="292" y="116"/>
      <point x="266" y="92"/>
      <point x="211" y="88" type="curve"/>
      <point x="164" y="88"/>
      <point x="142" y="120"/>
      <point x="142" y="159" type="curve" smooth="yes"/>
      <point x="142" y="337" type="line" smooth="yes"/>
      <point x="142" y="393"/>
      <point x="177" y="410"/>
      <point x="216" y="410" type="curve" smooth="yes"/>
      <point x="250" y="410"/>
      <point x="292" y="386"/>
    </contour>
  </outline>
</glyph>
<glyph name="h" format="2">
  <advance width="445"/>
  <unicode hex="0068"/>
  <outline>
    <contour>
      <point x="150" y="476" type="curve"/>
      <point x="150" y="698" type="line"/>
      <point x="41" y="698" type="line"/>
      <point x="41" y="0" type="line"/>
      <point x="150" y="0" type="line"/>
      <point x="150" y="386" type="line"/>
      <point x="182" y="402"/>
      <point x="207" y="409"/>
      <point x="230" y="409" type="curve" smooth="yes"/>
      <point x="272" y="409"/>
      <point x="302" y="381"/>
      <point x="302" y="343" type="curve" smooth="yes"/>
      <point x="302" y="0" type="line"/>
      <point x="411" y="0" type="line"/>
      <point x="411" y="345" type="line" smooth="yes"/>
      <point x="411" y="473"/>
      <point x="329" y="509"/>
      <point x="250" y="509" type="curve" smooth="yes"/>
      <point x="209" y="509"/>
      <point x="167" y="488"/>
    </contour>
  </outline>
</glyph>
<glyph name="i" format="1">
  <advance width="200"/>
  <unicode hex="0069"/>
  <outline>
    <contour>
      <point x="44" y="0" type="line"/>
      <point x="154" y="0" type="line"/>
      <point x="154" y="499" type="line"/>
      <point x="44" y="499" type="line"/>
    </contour>
    <contour>
      <point x="99" y="708" type="curve" smooth="yes"/>
      <point x="66" y="708"/>
      <point x="40" y="683"/>
      <point x="40" y="650" type="curve" smooth="yes"/>
      <point x="40" y="617"/>
      <point x="66" y="590"/>
      <point x="99" y="590" type="curve" smooth="yes"/>
      <point x="132" y="590"/>
      <point x="159" y="617"/>
      <point x="159" y="650" type="curve" smooth="yes"/>
      <point x="159" y="683"/>
      <point x="132" y="708"/>
    </contour>
  </outline>
</glyph>
<glyph name="k" format="2">
  <advance width="473"/>
  <unicode hex="006B"/>
  <outline>
    <contour>
      <point x="250" y="332" type="curve"/>
      <point x="381" y="443" type="line"/>
      <point x="301" y="519" type="line"/>
      <point x="151" y="382" type="line"/>
      <point x="151" y="698" type="line"/>
      <point x="41" y="698" type="line"/>
      <point x="41" y="0" type="line"/>
      <point x="151" y="0" type="line"/>
      <point x="151" y="240" type="line"/>
      <point x="165" y="254" type="line"/>
      <point x="315" y="0" type="line"/>
      <point x="454" y="0" type="line"/>
      <point x="415" y="61"/>
      <point x="347" y="170"/>
    </contour>
  </outline>
</glyph>
<glyph name="n" format="2">
  <advance width="445"/>
  <unicode hex="006E"/>
  <outline>
    <contour>
      <point x="299" y="342" type="curve" smooth="yes"/>
      <point x="299" y="-1" type="line"/>
      <point x="408" y="-1" type="line"/>
      <point x="408" y="345" type="line" smooth="yes"/>
      <point x="408" y="473"/>
      <point x="327" y="508"/>
      <point x="248" y="508" type="curve" smooth="yes"/>
      <point x="207" y="508"/>
      <point x="165" y="487"/>
      <point x="148" y="476" type="curve"/>
      <point x="148" y="499" type="line"/>
      <point x="39" y="499" type="line"/>
      <point x="39" y="-1" type="line"/>
      <point x="148" y="-1" type="line"/>
      <point x="148" y="385" type="line"/>
      <point x="180" y="402"/>
      <point x="205" y="409"/>
      <point x="228" y="409" type="curve" smooth="yes"/>
      <point x="270" y="409"/>
      <point x="299" y="380"/>
    </contour>
  </outline>
</glyph>
<glyph name="o" format="2">
  <advance width="432"/>
  <unicode hex="006F"/>
  <outline>
    <contour>
      <point x="400" y="184" type="curve" smooth="yes"/>
      <point x="400" y="316" type="line" smooth="yes"/>
      <point x="400" y="437"/>
      <point x="334" y="510"/>
      <point x="218" y="510" type="curve" smooth="yes"/>
      <point x="97" y="510"/>
      <point x="31" y="443"/>
      <point x="31" y="316" type="curve" smooth="yes"/>
      <point x="31" y="184" type="line" smooth="yes"/>
      <point x="31" y="82"/>
      <point x="86" y="-10"/>
      <point x="218" y="-10" type="curve" smooth="yes"/>
      <point x="342" y="-10"/>
      <point x="400" y="71"/>
    </contour>
    <contour>
      <point x="287" y="322" type="curve" smooth="yes"/>
      <point x="287" y="176" type="line" smooth="yes"/>
      <point x="287" y="131"/>
      <point x="267" y="98"/>
      <point x="217" y="98" type="curve" smooth="yes"/>
      <point x="164" y="98"/>
      <point x="142" y="135"/>
      <point x="142" y="176" type="curve" smooth="yes"/>
      <point x="142" y="322" type="line" smooth="yes"/>
      <point x="142" y="373"/>
      <point x="169" y="400"/>
      <point x="217" y="400" type="curve" smooth="yes"/>
      <point x="264" y="400"/>
      <point x="287" y="370"/>
    </contour>
  </outline>
</glyph>
<glyph name="p" format="2">
  <advance width="443"/>
  <unicode hex="0070"/>
  <outline>
    <contour>
      <point x="409" y="176" type="curve" smooth="yes"/>
      <point x="409" y="345" type="line" smooth="yes"/>
      <point x="409" y="446"/>
      <point x="353" y="509"/>
      <point x="252" y="509" type="curve" smooth="yes"/>
      <point x="213" y="509"/>
      <point x="163" y="490"/>
      <point x="150" y="477" type="curve"/>
      <point x="150" y="499" type="line"/>
      <point x="40" y="499" type="line"/>
      <point x="40" y="-199" type="line"/>
      <point x="150" y="-213" type="line"/>
      <point x="150" y="12" type="line"/>
      <point x="173" y="-3"/>
      <point x="207" y="-12"/>
      <point x="240" y="-12" type="curve" smooth="yes"/>
      <point x="351" y="-12"/>
      <point x="409" y="53"/>
    </contour>
    <contour>
      <point x="299" y="337" type="curve" smooth="yes"/>
      <point x="299" y="159" type="line" smooth="yes"/>
      <point x="299" y="116"/>
      <point x="276" y="88"/>
      <point x="235" y="88" type="curve" smooth="yes"/>
      <point x="202" y="88"/>
      <point x="150" y="103"/>
      <point x="150" y="139" type="curve" smooth="yes"/>
      <point x="150" y="386" type="line"/>
      <point x="150" y="386"/>
      <point x="192" y="410"/>
      <point x="226" y="410" type="curve" smooth="yes"/>
      <point x="264" y="410"/>
      <point x="299" y="393"/>
    </contour>
  </outline>
</glyph>
<glyph name="q" format="2">
  <advance width="442"/>
  <unicode hex="0071"/>
  <outline>
    <contour>
      <point x="292" y="13" type="curve"/>
      <point x="292" y="-198" type="line"/>
      <point x="402" y="-212" type="line"/>
      <point x="402" y="499" type="line"/>
      <point x="292" y="499" type="line"/>
      <point x="292" y="477" type="line"/>
      <point x="262" y="498"/>
      <point x="228" y="510"/>
      <point x="192" y="510" type="curve" smooth="yes"/>
      <point x="88" y="510"/>
      <point x="32" y="448"/>
      <point x="32" y="345" type="curve" smooth="yes"/>
      <point x="32" y="176" type="line" smooth="yes"/>
      <point x="32" y="54"/>
      <point x="91" y="-11"/>
      <point x="202" y="-11" type="curve" smooth="yes"/>
      <point x="234" y="-11"/>
      <point x="268" y="-2"/>
    </contour>
    <contour>
      <point x="292" y="387" type="curve"/>
      <point x="292" y="140" type="line" smooth="yes"/>
      <point x="292" y="117"/>
      <point x="266" y="92"/>
      <point x="211" y="89" type="curve"/>
      <point x="162" y="89"/>
      <point x="142" y="122"/>
      <point x="142" y="161" type="curve" smooth="yes"/>
      <point x="142" y="338" type="line" smooth="yes"/>
      <point x="142" y="394"/>
      <point x="179" y="411"/>
      <point x="215" y="411" type="curve" smooth="yes"/>
      <point x="250" y="411"/>
      <point x="292" y="387"/>
    </contour>
  </outline>
</glyph>
<glyph name="r" format="1">
  <advance width="373"/>
  <unicode hex="0072"/>
  <outline>
    <contour>
      <point x="331" y="409" type="curve"/>
      <point x="347" y="499" type="line"/>
      <point x="326" y="507"/>
      <point x="298" y="514"/>
      <point x="268" y="514" type="curve" smooth="yes"/>
      <point x="225" y="514"/>
      <point x="182" y="501"/>
      <point x="149" y="479" type="curve"/>
      <point x="149" y="499" type="line"/>
      <point x="39" y="499" type="line"/>
      <point x="39" y="0" type="line"/>
      <point x="149" y="0" type="line"/>
      <point x="149" y="388" type="line"/>
      <point x="191" y="407"/>
      <point x="234" y="416"/>
      <point x="279" y="416" type="curve" smooth="yes"/>
      <point x="315" y="416"/>
      <point x="331" y="409"/>
    </contour>
    <contour>
      <point x="186" y="545" type="move" name="top"/>
    </contour>
    <contour>
      <point x="186" y="0" type="move" name="bottom"/>
    </contour>
  </outline>
</glyph>
<glyph name="t" format="2">
  <advance width="276"/>
  <unicode hex="0074"/>
  <outline>
    <contour>
      <point x="152" y="132" type="curve" smooth="yes"/>
      <point x="152" y="398" type="line"/>
      <point x="224" y="398" type="line"/>
      <point x="247" y="499" type="line"/>
      <point x="152" y="499" type="line"/>
      <point x="152" y="698" type="line"/>
      <point x="40" y="698" type="line"/>
      <point x="40" y="132" type="line" smooth="yes"/>
      <point x="40" y="37"/>
      <point x="91" y="-11"/>
      <point x="192" y="-13" type="curve"/>
      <point x="225" y="75" type="line"/>
      <point x="178" y="75"/>
      <point x="152" y="87"/>
    </contour>
  </outline>
</glyph>
<glyph name="u" format="2">
  <advance width="446"/>
  <unicode hex="0075"/>
  <outline>
    <contour>
      <point x="296" y="26" type="curve"/>
      <point x="296" y="0" type="line"/>
      <point x="406" y="0" type="line"/>
      <point x="406" y="501" type="line"/>
      <point x="296" y="501" type="line"/>
      <point x="296" y="175" type="line" smooth="yes"/>
      <point x="296" y="129"/>
      <point x="261" y="94"/>
      <point x="216" y="94" type="curve" smooth="yes"/>
      <point x="176" y="94"/>
      <point x="148" y="124"/>
      <point x="148" y="159" type="curve" smooth="yes"/>
      <point x="148" y="501" type="line"/>
      <point x="37" y="501" type="line"/>
      <point x="37" y="157" type="line" smooth="yes"/>
      <point x="37" y="29"/>
      <point x="119" y="-7"/>
      <point x="197" y="-7" type="curve" smooth="yes"/>
      <point x="239" y="-7"/>
      <point x="283" y="12"/>
    </contour>
  </outline>
</glyph>
<glyph name="v" format="2">
  <advance width="468"/>
  <unicode hex="0076"/>
  <outline>
    <contour>
      <point x="21" y="499" type="line"/>
      <point x="180" y="0" type="line"/>
      <point x="286" y="0" type="line"/>
      <point x="443" y="499" type="line"/>
      <point x="324" y="499" type="line"/>
      <point x="234" y="195" type="line"/>
      <point x="140" y="499" type="line"/>
    </contour>
  </outline>
</glyph>
<glyph name="w" format="2">
  <advance width="726"/>
  <unicode hex="0077"/>
  <outline>
    <contour>
      <point x="417" y="499" type="line"/>
      <point x="313" y="499" type="line"/>
      <point x="233" y="194" type="line"/>
      <point x="141" y="499" type="line"/>
      <point x="21" y="499" type="line"/>
      <point x="182" y="0" type="line"/>
      <point x="290" y="0" type="line"/>
      <point x="362" y="267" type="line"/>
      <point x="434" y="0" type="line"/>
      <point x="539" y="0" type="line"/>
      <point x="701" y="499" type="line"/>
      <point x="583" y="499" type="line"/>
      <point x="501" y="194" type="line"/>
    </contour>
  </outline>
</glyph>
<glyph name="x" format="2">
  <advance width="511"/>
  <unicode hex="0078"/>
  <outline>
    <contour>
      <point x="257" y="356" type="line"/>
      <point x="171" y="499" type="line"/>
      <point x="31" y="499" type="line"/>
      <point x="187" y="248" type="line"/>
      <point x="31" y="0" type="line"/>
      <point x="169" y="0" type="line"/>
      <point x="256" y="140" type="line"/>
      <point x="344" y="0" type="line"/>
      <point x="475" y="0" type="line"/>
      <point x="324" y="249" type="line"/>
      <point x="482" y="499" type="line"/>
      <point x="346" y="499" type="line"/>
    </contour>
  </outline>
</glyph>
<glyph name="y" format="2">
  <advance width="482"/>
  <unicode hex="0079"/>
  <outline>
    <contour>
      <point x="453" y="433" type="curve"/>
      <point x="419" y="510" type="line"/>
      <point x="329" y="510"/>
      <point x="296" y="448"/>
      <point x="296" y="392" type="curve" smooth="yes"/>
      <point x="296" y="176" type="line" smooth="yes"/>
      <point x="296" y="130"/>
      <point x="261" y="94"/>
      <point x="216" y="94" type="curve" smooth="yes"/>
      <point x="175" y="94"/>
      <point x="147" y="123"/>
      <point x="147" y="161" type="curve" smooth="yes"/>
      <point x="147" y="501" type="line"/>
      <point x="36" y="501" type="line"/>
      <point x="36" y="158" type="line" smooth="yes"/>
      <point x="36" y="30"/>
      <point x="117" y="-6"/>
      <point x="196" y="-6" type="curve" smooth="yes"/>
      <point x="238" y="-6"/>
      <point x="283" y="13"/>
      <point x="296" y="28" type="curve"/>
      <point x="296" y="-48" type="line" smooth="yes"/>
      <point x="296" y="-72"/>
      <point x="289" y="-89"/>
      <point x="276" y="-101" type="curve" smooth="yes"/>
      <point x="262" y="-114"/>
      <point x="243" y="-124"/>
      <point x="226" y="-124" type="curve"/>
      <point x="255" y="-213" type="line"/>
      <point x="288" y="-213"/>
      <point x="331" y="-199"/>
      <point x="358" y="-179" type="curve" smooth="yes"/>
      <point x="391" y="-157"/>
      <point x="406" y="-116"/>
      <point x="406" y="-59" type="curve" smooth="yes"/>
      <point x="406" y="362" type="line" smooth="yes"/>
      <point x="406" y="395"/>
      <point x="414" y="425"/>
    </contour>
  </outline>
</glyph>
<glyph name="z" format="2">
  <advance width="434"/>
  <unicode hex="007A"/>
  <outline>
    <contour>
      <point x="391" y="499" type="line"/>
      <point x="42" y="499" type="line"/>
      <point x="42" y="397" type="line"/>
      <point x="242" y="397" type="line"/>
      <point x="33" y="105" type="line"/>
      <point x="33" y="0" type="line"/>
      <point x="401" y="0" type="line"/>
      <point x="401" y="105" type="line"/>
      <point x="181" y="105" type="line"/>
      <point x="391" y="400" type="line"/>
    </contour>
  </outline>
</glyph>
<glyph name="braceleft" format="2">
  <advance width="291"/>
  <unicode hex="007B"/>
  <outline>
    <contour>
      <point x="215" y="516" type="curve" smooth="yes"/>
      <point x="215" y="629" type="line" smooth="yes"/>
      <point x="215" y="704"/>
      <point x="240" y="725"/>
      <point x="265" y="739" type="curve"/>
      <point x="215" y="821" type="line"/>
      <point x="210" y="820"/>
      <point x="106" y="790"/>
      <point x="106" y="629" type="curve" smooth="yes"/>
      <point x="106" y="516" type="line" smooth="yes"/>
      <point x="106" y="459"/>
      <point x="99" y="409"/>
      <point x="36" y="360" type="curve" smooth="yes"/>
      <point x="26" y="352" type="line"/>
      <point x="36" y="345" type="line"/>
      <point x="99" y="296"/>
      <point x="106" y="245"/>
      <point x="106" y="189" type="curve" smooth="yes"/>
      <point x="106" y="76" type="line" smooth="yes"/>
      <point x="106" y="-84"/>
      <point x="209" y="-116"/>
      <point x="215" y="-117" type="curve"/>
      <point x="265" y="-34" type="line"/>
      <point x="240" y="-20"/>
      <point x="215" y="1"/>
      <point x="215" y="76" type="curve" smooth="yes"/>
      <point x="215" y="189" type="line" smooth="yes"/>
      <point x="215" y="246"/>
      <point x="210" y="301"/>
      <point x="149" y="352" type="curve"/>
      <point x="210" y="404"/>
      <point x="215" y="459"/>
    </contour>
  </outline>
</glyph>
<glyph name="exclamdown" format="2">
  <advance width="194"/>
  <unicode hex="00A1"/>
  <outline>
    <contour>
      <point x="155" y="68" type="curve" smooth="yes"/>
      <point x="133" y="588" type="line"/>
      <point x="57" y="588" type="line"/>
      <point x="39" y="69" type="line"/>
      <point x="39" y="23"/>
      <point x="57" y="0"/>
      <point x="95" y="0" type="curve" smooth="yes"/>
      <point x="135" y="0"/>
      <point x="155" y="23"/>
    </contour>
    <contour>
      <point x="156" y="664" type="curve" smooth="yes"/>
      <point x="156" y="697"/>
      <point x="130" y="724"/>
      <point x="97" y="724" type="curve" smooth="yes"/>
      <point x="65" y="724"/>
      <point x="38" y="697"/>
      <point x="38" y="664" type="curve" smooth="yes"/>
      <point x="38" y="631"/>
      <point x="65" y="605"/>
      <point x="97" y="605" type="curve" smooth="yes"/>
      <point x="130" y="605"/>
      <point x="156" y="631"/>
    </contour>
  </outline>
</glyph>
<glyph name="cent" format="2">
  <advance width="386"/>
  <unicode hex="00A2"/>
  <outline>
    <contour>
      <point x="326" y="392" type="curve"/>
      <point x="352" y="477" type="line"/>
      <point x="293" y="503"/>
      <point x="230" y="518"/>
      <point x="170" y="505" type="curve" smooth="yes"/>
      <point x="125" y="495"/>
      <point x="86" y="471"/>
      <point x="60" y="427" type="curve" smooth="yes"/>
      <point x="41" y="395"/>
      <point x="34" y="363"/>
      <point x="32" y="319" type="curve"/>
      <point x="32" y="173" type="line" smooth="yes"/>
      <point x="32" y="75"/>
      <point x="76" y="23"/>
      <point x="144" y="1" type="curve" smooth="yes"/>
      <point x="214" y="-20"/>
      <point x="289" y="-12"/>
      <point x="354" y="5" type="curve"/>
      <point x="334" y="94" type="line"/>
      <point x="334" y="94"/>
      <point x="288" y="84"/>
      <point x="244" y="84" type="curve" smooth="yes"/>
      <point x="183" y="84"/>
      <point x="141" y="113"/>
      <point x="141" y="174" type="curve" smooth="yes"/>
      <point x="141" y="331" type="line" smooth="yes"/>
      <point x="141" y="351"/>
      <point x="146" y="367"/>
      <point x="154" y="380" type="curve" smooth="yes"/>
      <point x="166" y="398"/>
      <point x="187" y="409"/>
      <point x="210" y="413" type="curve" smooth="yes"/>
      <point x="248" y="420"/>
      <point x="292" y="408"/>
    </contour>
    <contour>
      <point x="193" y="-113" type="line"/>
      <point x="299" y="-113" type="line"/>
      <point x="299" y="623" type="line"/>
      <point x="193" y="623" type="line"/>
    </contour>
  </outline>
</glyph>
<glyph name="currency" format="2">
  <advance width="497"/>
  <unicode hex="00A4"/>
  <outline>
    <contour>
      <point x="377" y="349" type="curve"/>
      <point x="464" y="435" type="line"/>
      <point x="400" y="498" type="line"/>
      <point x="314" y="411" type="line"/>
      <point x="294" y="422"/>
      <point x="272" y="428"/>
      <point x="248" y="428" type="curve" smooth="yes"/>
      <point x="224" y="428"/>
      <point x="202" y="422"/>
      <point x="182" y="411" type="curve"/>
      <point x="96" y="498" type="line"/>
      <point x="33" y="435" type="line"/>
      <point x="119" y="348" type="line"/>
      <point x="109" y="329"/>
      <point x="103" y="306"/>
      <point x="103" y="283" type="curve" smooth="yes"/>
      <point x="103" y="258"/>
      <point x="109" y="237"/>
      <point x="119" y="217" type="curve"/>
      <point x="33" y="131" type="line"/>
      <point x="96" y="68" type="line"/>
      <point x="182" y="154" type="line"/>
      <point x="202" y="144"/>
      <point x="224" y="137"/>
      <point x="248" y="137" type="curve" smooth="yes"/>
      <point x="271" y="137"/>
      <point x="294" y="143"/>
      <point x="313" y="153" type="curve"/>
      <point x="400" y="68" type="line"/>
      <point x="464" y="131" type="line"/>
      <point x="377" y="217" type="line"/>
      <point x="388" y="237"/>
      <point x="394" y="258"/>
      <point x="394" y="283" type="curve" smooth="yes"/>
      <point x="394" y="307"/>
      <point x="388" y="329"/>
    </contour>
    <contour>
      <point x="248" y="231" type="curve" smooth="yes"/>
      <point x="220" y="231"/>
      <point x="197" y="254"/>
      <point x="197" y="283" type="curve" smooth="yes"/>
      <point x="197" y="312"/>
      <point x="220" y="334"/>
      <point x="248" y="334" type="curve" smooth="yes"/>
      <point x="278" y="334"/>
      <point x="300" y="312"/>
      <point x="300" y="283" type="curve" smooth="yes"/>
      <point x="300" y="254"/>
      <point x="278" y="231"/>
    </contour>
  </outline>
</glyph>
<glyph name="ordfeminine" format="2">
  <advance width="329"/>
  <unicode hex="00AA"/>
  <outline>
    <contour>
      <point x="295" y="391" type="curve"/>
      <point x="295" y="389"/>
      <point x="295" y="554"/>
      <point x="295" y="554" type="curve"/>
      <point x="295" y="617"/>
      <point x="284" y="662"/>
      <point x="251" y="687" type="curve" smooth="yes"/>
      <point x="217" y="714"/>
      <point x="165" y="713"/>
      <point x="129" y="708" type="curve"/>
      <point x="119" y="647" type="line"/>
      <point x="136" y="649"/>
      <point x="150" y="650"/>
      <point x="161" y="650" type="curve" smooth="yes"/>
      <point x="207" y="650"/>
      <point x="207" y="634"/>
      <point x="207" y="609" type="curve"/>
      <point x="182" y="624"/>
      <point x="155" y="631"/>
      <point x="131" y="631" type="curve" smooth="yes"/>
      <point x="64" y="630"/>
      <point x="27" y="581"/>
      <point x="26" y="518" type="curve"/>
      <point x="26" y="406"/>
      <point x="86" y="378"/>
      <point x="174" y="378" type="curve" smooth="yes"/>
      <point x="208" y="378"/>
      <point x="251" y="384"/>
    </contour>
    <contour>
      <point x="207" y="533" type="curve"/>
      <point x="207" y="460" type="line"/>
      <point x="197" y="460"/>
      <point x="186" y="458"/>
      <point x="171" y="458" type="curve" smooth="yes"/>
      <point x="142" y="458"/>
      <point x="110" y="466"/>
      <point x="109" y="507" type="curve" smooth="yes"/>
      <point x="109" y="533"/>
      <point x="120" y="555"/>
      <point x="146" y="555" type="curve" smooth="yes"/>
      <point x="167" y="555"/>
      <point x="191" y="543"/>
    </contour>
  </outline>
</glyph>
<glyph name="sfthyphen" format="2">
  <advance width="439"/>
  <unicode hex="00AD"/>
  <outline>
    <contour>
      <point x="361" y="413" type="line"/>
      <point x="42" y="413" type="line"/>
      <point x="42" y="306" type="line"/>
      <point x="361" y="306" type="line"/>
    </contour>
  </outline>
</glyph>
<glyph name="acute" format="2">
  <advance width="266"/>
  <unicode hex="00B4"/>
  <outline>
    <contour>
      <point x="207" y="671" type="line"/>
      <point x="225" y="693"/>
      <point x="225" y="727"/>
      <point x="200" y="741" type="curve" smooth="yes"/>
      <point x="174" y="757"/>
      <point x="142" y="738"/>
      <point x="135" y="712" type="curve" smooth="yes"/>
      <point x="105" y="596" type="line"/>
      <point x="149" y="596" type="line"/>
    </contour>
  </outline>
</glyph>
<glyph name="cedilla" format="2">
  <advance width="266"/>
  <unicode hex="00B8"/>
  <outline>
    <contour>
      <point x="172" y="0" type="line"/>
      <point x="106" y="0" type="line"/>
      <point x="60" y="-75" type="line"/>
      <point x="78" y="-114" type="line"/>
      <point x="119" y="-111"/>
      <point x="148" y="-107"/>
      <point x="168" y="-107" type="curve" smooth="yes"/>
      <point x="193" y="-107"/>
      <point x="203" y="-120"/>
      <point x="203" y="-138" type="curve" smooth="yes"/>
      <point x="203" y="-155"/>
      <point x="192" y="-168"/>
      <point x="164" y="-168" type="curve" smooth="yes"/>
      <point x="121" y="-168"/>
      <point x="65" y="-158"/>
      <point x="64" y="-158" type="curve"/>
      <point x="59" y="-187"/>
      <point x="56" y="-196"/>
      <point x="51" y="-223" type="curve"/>
      <point x="53" y="-224"/>
      <point x="105" y="-235"/>
      <point x="153" y="-235" type="curve" smooth="yes"/>
      <point x="235" y="-235"/>
      <point x="270" y="-193"/>
      <point x="270" y="-133" type="curve" smooth="yes"/>
      <point x="270" y="-86"/>
      <point x="236" y="-40"/>
      <point x="175" y="-40" type="curve" smooth="yes"/>
      <point x="171" y="-40"/>
      <point x="166" y="-41"/>
      <point x="148" y="-42" type="curve"/>
    </contour>
  </outline>
</glyph>
<glyph name="questiondown" format="2">
  <advance width="428"/>
  <unicode hex="00BF"/>
  <outline>
    <contour>
      <point x="397" y="161" type="curve"/>
      <point x="286" y="161" type="line"/>
      <point x="284" y="116"/>
      <point x="254" y="89"/>
      <point x="212" y="89" type="curve"/>
      <point x="177" y="91"/>
      <point x="140" y="117"/>
      <point x="140" y="167" type="curve" smooth="yes"/>
      <point x="140" y="211"/>
      <point x="175" y="246"/>
      <point x="209" y="290" type="curve" smooth="yes"/>
      <point x="246" y="338"/>
      <point x="286" y="394"/>
      <point x="286" y="480" type="curve" smooth="yes"/>
      <point x="286" y="573" type="line"/>
      <point x="177" y="573" type="line"/>
      <point x="177" y="499"/>
      <point x="177" y="492"/>
      <point x="177" y="483" type="curve"/>
      <point x="174" y="411"/>
      <point x="159" y="386"/>
      <point x="107" y="328" type="curve" smooth="yes"/>
      <point x="64" y="279"/>
      <point x="29" y="237"/>
      <point x="29" y="170" type="curve" smooth="yes"/>
      <point x="29" y="55"/>
      <point x="121" y="-10"/>
      <point x="213" y="-15" type="curve"/>
      <point x="330" y="-15"/>
      <point x="396" y="58"/>
    </contour>
    <contour>
      <point x="231" y="708" type="curve" smooth="yes"/>
      <point x="198" y="708"/>
      <point x="172" y="682"/>
      <point x="172" y="649" type="curve" smooth="yes"/>
      <point x="172" y="616"/>
      <point x="198" y="588"/>
      <point x="231" y="588" type="curve" smooth="yes"/>
      <point x="264" y="588"/>
      <point x="290" y="616"/>
      <point x="290" y="649" type="curve" smooth="yes"/>
      <point x="290" y="682"/>
      <point x="264" y="708"/>
    </contour>
  </outline>
</glyph>
<glyph name="Agrave" format="2">
  <advance width="543"/>
  <unicode hex="00C0"/>
  <outline>
    <contour>
      <point x="520" y="0" type="line"/>
      <point x="348" y="698" type="line"/>
      <point x="193" y="698" type="line"/>
      <point x="24" y="0" type="line"/>
      <point x="148" y="0" type="line"/>
      <point x="188" y="183" type="line"/>
      <point x="349" y="183" type="line"/>
      <point x="389" y="0" type="line"/>
    </contour>
    <contour>
      <point x="215" y="300" type="line"/>
      <point x="269" y="515" type="line"/>
      <point x="324" y="300" type="line"/>
    </contour>
    <contour>
      <point x="189" y="817" type="curve"/>
      <point x="247" y="741" type="line"/>
      <point x="292" y="741" type="line"/>
      <point x="261" y="858" type="line" smooth="yes"/>
      <point x="253" y="887"/>
      <point x="219" y="904"/>
      <point x="197" y="889" type="curve"/>
      <point x="168" y="875"/>
      <point x="172" y="837"/>
    </contour>
  </outline>
</glyph>
<glyph name="Aacute" format="2">
  <advance width="543"/>
  <unicode hex="00C1"/>
  <outline>
    <contour>
      <point x="520" y="0" type="line"/>
      <point x="348" y="698" type="line"/>
      <point x="193" y="698" type="line"/>
      <point x="24" y="0" type="line"/>
      <point x="148" y="0" type="line"/>
      <point x="188" y="183" type="line"/>
      <point x="349" y="183" type="line"/>
      <point x="389" y="0" type="line"/>
    </contour>
    <contour>
      <point x="215" y="300" type="line"/>
      <point x="269" y="515" type="line"/>
      <point x="324" y="300" type="line"/>
    </contour>
    <contour>
      <point x="273" y="850" type="curve" smooth="yes"/>
      <point x="245" y="743" type="line"/>
      <point x="286" y="743" type="line"/>
      <point x="341" y="813" type="line" smooth="yes"/>
      <point x="358" y="833"/>
      <point x="359" y="866"/>
      <point x="335" y="879" type="curve"/>
      <point x="309" y="891"/>
      <point x="281" y="876"/>
    </contour>
  </outline>
</glyph>
<glyph name="Atilde" format="2">
  <advance width="543"/>
  <unicode hex="00C3"/>
  <outline>
    <contour>
      <point x="520" y="0" type="line"/>
      <point x="348" y="698" type="line"/>
      <point x="193" y="698" type="line"/>
      <point x="24" y="0" type="line"/>
      <point x="148" y="0" type="line"/>
      <point x="188" y="183" type="line"/>
      <point x="349" y="183" type="line"/>
      <point x="389" y="0" type="line"/>
    </contour>
    <contour>
      <point x="215" y="300" type="line"/>
      <point x="269" y="515" type="line"/>
      <point x="324" y="300" type="line"/>
    </contour>
    <contour>
      <point x="403" y="773" type="curve"/>
      <point x="377" y="833" type="line"/>
      <point x="361" y="821"/>
      <point x="345" y="814"/>
      <point x="327" y="814" type="curve" smooth="yes"/>
      <point x="291" y="814"/>
      <point x="259" y="833"/>
      <point x="225" y="833" type="curve"/>
      <point x="174" y="829"/>
      <point x="154" y="810"/>
      <point x="142" y="799" type="curve"/>
      <point x="169" y="740" type="line"/>
      <point x="178" y="747"/>
      <point x="190" y="758"/>
      <point x="215" y="760" type="curve"/>
      <point x="256" y="760"/>
      <point x="289" y="743"/>
      <point x="325" y="743" type="curve" smooth="yes"/>
      <point x="352" y="744"/>
      <point x="379" y="754"/>
    </contour>
  </outline>
</glyph>
<glyph name="Adieresis" format="2">
  <advance width="543"/>
  <unicode hex="00C4"/>
  <outline>
    <contour>
      <point x="520" y="0" type="line"/>
      <point x="348" y="698" type="line"/>
      <point x="193" y="698" type="line"/>
      <point x="24" y="0" type="line"/>
      <point x="148" y="0" type="line"/>
      <point x="188" y="183" type="line"/>
      <point x="349" y="183" type="line"/>
      <point x="389" y="0" type="line"/>
    </contour>
    <contour>
      <point x="215" y="300" type="line"/>
      <point x="269" y="515" type="line"/>
      <point x="324" y="300" type="line"/>
    </contour>
    <contour>
      <point x="350" y="861" type="curve" smooth="yes"/>
      <point x="317" y="861"/>
      <point x="292" y="835"/>
      <point x="292" y="802" type="curve" smooth="yes"/>
      <point x="292" y="769"/>
      <point x="317" y="741"/>
      <point x="350" y="741" type="curve" smooth="yes"/>
      <point x="384" y="741"/>
      <point x="411" y="769"/>
      <point x="411" y="802" type="curve" smooth="yes"/>
      <point x="411" y="835"/>
      <point x="384" y="861"/>
    </contour>
    <contour>
      <point x="253" y="802" type="curve" smooth="yes"/>
      <point x="253" y="835"/>
      <point x="226" y="861"/>
      <point x="193" y="861" type="curve" smooth="yes"/>
      <point x="160" y="861"/>
      <point x="133" y="835"/>
      <point x="133" y="802" type="curve" smooth="yes"/>
      <point x="133" y="769"/>
      <point x="160" y="741"/>
      <point x="193" y="741" type="curve" smooth="yes"/>
      <point x="226" y="741"/>
      <point x="253" y="769"/>
    </contour>
  </outline>
</glyph>
<glyph name="Aring" format="2">
  <advance width="543"/>
  <unicode hex="00C5"/>
  <outline>
    <contour>
      <point x="520" y="0" type="line"/>
      <point x="348" y="698" type="line"/>
      <point x="193" y="698" type="line"/>
      <point x="24" y="0" type="line"/>
      <point x="148" y="0" type="line"/>
      <point x="188" y="183" type="line"/>
      <point x="349" y="183" type="line"/>
      <point x="389" y="0" type="line"/>
    </contour>
    <contour>
      <point x="215" y="300" type="line"/>
      <point x="269" y="515" type="line"/>
      <point x="324" y="300" type="line"/>
    </contour>
    <contour>
      <point x="271" y="661" type="curve" smooth="yes"/>
      <point x="334" y="661"/>
      <point x="385" y="712"/>
      <point x="385" y="774" type="curve" smooth="yes"/>
      <point x="385" y="838"/>
      <point x="334" y="889"/>
      <point x="271" y="889" type="curve" smooth="yes"/>
      <point x="209" y="889"/>
      <point x="157" y="838"/>
      <point x="157" y="774" type="curve" smooth="yes"/>
      <point x="157" y="712"/>
      <point x="209" y="661"/>
    </contour>
    <contour>
      <point x="303" y="774" type="curve" smooth="yes"/>
      <point x="303" y="758"/>
      <point x="288" y="744"/>
      <point x="271" y="744" type="curve" smooth="yes"/>
      <point x="254" y="744"/>
      <point x="241" y="758"/>
      <point x="241" y="774" type="curve" smooth="yes"/>
      <point x="241" y="792"/>
      <point x="254" y="806"/>
      <point x="271" y="806" type="curve" smooth="yes"/>
      <point x="288" y="806"/>
      <point x="303" y="792"/>
    </contour>
  </outline>
</glyph>
<glyph name="Ccedilla" format="2">
  <advance width="426"/>
  <unicode hex="00C7"/>
  <outline>
    <contour>
      <point x="342" y="582" type="curve"/>
      <point x="372" y="675" type="line"/>
      <point x="325" y="698"/>
      <point x="276" y="710"/>
      <point x="228" y="710" type="curve" smooth="yes"/>
      <point x="179" y="710"/>
      <point x="132" y="697"/>
      <point x="97" y="664" type="curve" smooth="yes"/>
      <point x="61" y="632"/>
      <point x="36" y="581"/>
      <point x="36" y="503" type="curve" smooth="yes"/>
      <point x="36" y="183" type="line" smooth="yes"/>
      <point x="36" y="113"/>
      <point x="59" y="64"/>
      <point x="95" y="32" type="curve" smooth="yes"/>
      <point x="130" y="2"/>
      <point x="179" y="-12"/>
      <point x="233" y="-12" type="curve" smooth="yes"/>
      <point x="284" y="-11"/>
      <point x="339" y="1"/>
      <point x="396" y="23" type="curve"/>
      <point x="380" y="127" type="line"/>
      <point x="368" y="127"/>
      <point x="300" y="100"/>
      <point x="239" y="100" type="curve" smooth="yes"/>
      <point x="211" y="100"/>
      <point x="186" y="105"/>
      <point x="170" y="120" type="curve"/>
      <point x="154" y="133"/>
      <point x="146" y="154"/>
      <point x="146" y="185" type="curve" smooth="yes"/>
      <point x="146" y="512" type="line" smooth="yes"/>
      <point x="146" y="542"/>
      <point x="153" y="563"/>
      <point x="171" y="577" type="curve"/>
      <point x="187" y="592"/>
      <point x="213" y="599"/>
      <point x="248" y="599" type="curve" smooth="yes"/>
      <point x="278" y="599"/>
      <point x="315" y="592"/>
    </contour>
    <contour>
      <point x="264" y="-42" type="curve" smooth="yes"/>
      <point x="261" y="-42"/>
      <point x="256" y="-43"/>
      <point x="238" y="-44" type="curve"/>
      <point x="262" y="-2" type="line"/>
      <point x="196" y="-2" type="line"/>
      <point x="150" y="-77" type="line"/>
      <point x="168" y="-116" type="line"/>
      <point x="208" y="-113"/>
      <point x="238" y="-109"/>
      <point x="258" y="-109" type="curve" smooth="yes"/>
      <point x="283" y="-109"/>
      <point x="293" y="-122"/>
      <point x="293" y="-140" type="curve" smooth="yes"/>
      <point x="293" y="-157"/>
      <point x="282" y="-171"/>
      <point x="253" y="-171" type="curve" smooth="yes"/>
      <point x="211" y="-171"/>
      <point x="154" y="-161"/>
      <point x="153" y="-160" type="curve"/>
      <point x="148" y="-189"/>
      <point x="147" y="-198"/>
      <point x="141" y="-226" type="curve"/>
      <point x="142" y="-226"/>
      <point x="195" y="-237"/>
      <point x="242" y="-237" type="curve" smooth="yes"/>
      <point x="325" y="-237"/>
      <point x="360" y="-195"/>
      <point x="360" y="-135" type="curve" smooth="yes"/>
      <point x="360" y="-88"/>
      <point x="326" y="-42"/>
    </contour>
  </outline>
</glyph>
<glyph name="Egrave" format="2">
  <advance width="410"/>
  <unicode hex="00C8"/>
  <outline>
    <contour>
      <point x="41" y="0" type="line"/>
      <point x="373" y="0" type="line"/>
      <point x="373" y="100" type="line"/>
      <point x="151" y="100" type="line"/>
      <point x="151" y="308" type="line"/>
      <point x="257" y="308" type="line"/>
      <point x="288" y="413" type="line"/>
      <point x="151" y="413" type="line"/>
      <point x="151" y="588" type="line"/>
      <point x="375" y="588" type="line"/>
      <point x="375" y="698" type="line"/>
      <point x="41" y="698" type="line"/>
    </contour>
    <contour>
      <point x="132" y="820" type="curve"/>
      <point x="191" y="744" type="line"/>
      <point x="236" y="744" type="line"/>
      <point x="205" y="860" type="line" smooth="yes"/>
      <point x="197" y="888"/>
      <point x="165" y="905"/>
      <point x="140" y="891" type="curve" smooth="yes"/>
      <point x="111" y="876"/>
      <point x="115" y="839"/>
    </contour>
  </outline>
</glyph>
<glyph name="Eacute" format="2">
  <advance width="410"/>
  <unicode hex="00C9"/>
  <outline>
    <contour>
      <point x="41" y="0" type="line"/>
      <point x="373" y="0" type="line"/>
      <point x="373" y="100" type="line"/>
      <point x="151" y="100" type="line"/>
      <point x="151" y="308" type="line"/>
      <point x="257" y="308" type="line"/>
      <point x="288" y="413" type="line"/>
      <point x="151" y="413" type="line"/>
      <point x="151" y="588" type="line"/>
      <point x="375" y="588" type="line"/>
      <point x="375" y="698" type="line"/>
      <point x="41" y="698" type="line"/>
    </contour>
    <contour>
      <point x="215" y="853" type="curve"/>
      <point x="187" y="744" type="line"/>
      <point x="228" y="744" type="line"/>
      <point x="283" y="815" type="line" smooth="yes"/>
      <point x="302" y="839"/>
      <point x="298" y="865"/>
      <point x="276" y="881" type="curve"/>
      <point x="249" y="889"/>
      <point x="226" y="881"/>
    </contour>
  </outline>
</glyph>
<glyph name="Ecircumflex" format="2">
  <advance width="410"/>
  <unicode hex="00CA"/>
  <outline>
    <contour>
      <point x="41" y="0" type="line"/>
      <point x="373" y="0" type="line"/>
      <point x="373" y="100" type="line"/>
      <point x="151" y="100" type="line"/>
      <point x="151" y="308" type="line"/>
      <point x="257" y="308" type="line"/>
      <point x="288" y="413" type="line"/>
      <point x="151" y="413" type="line"/>
      <point x="151" y="588" type="line"/>
      <point x="375" y="588" type="line"/>
      <point x="375" y="698" type="line"/>
      <point x="41" y="698" type="line"/>
    </contour>
    <contour>
      <point x="78" y="795" type="line"/>
      <point x="130" y="744" type="line"/>
      <point x="210" y="827" type="line"/>
      <point x="285" y="745" type="line"/>
      <point x="338" y="798" type="line"/>
      <point x="210" y="923" type="line"/>
    </contour>
  </outline>
</glyph>
<glyph name="Edieresis" format="2">
  <advance width="410"/>
  <unicode hex="00CB"/>
  <outline>
    <contour>
      <point x="41" y="0" type="line"/>
      <point x="373" y="0" type="line"/>
      <point x="373" y="100" type="line"/>
      <point x="151" y="100" type="line"/>
      <point x="151" y="308" type="line"/>
      <point x="257" y="308" type="line"/>
      <point x="288" y="413" type="line"/>
      <point x="151" y="413" type="line"/>
      <point x="151" y="588" type="line"/>
      <point x="375" y="588" type="line"/>
      <point x="375" y="698" type="line"/>
      <point x="41" y="698" type="line"/>
    </contour>
    <contour>
      <point x="347" y="803" type="curve" smooth="yes"/>
      <point x="347" y="836"/>
      <point x="320" y="862"/>
      <point x="287" y="862" type="curve" smooth="yes"/>
      <point x="254" y="862"/>
      <point x="228" y="836"/>
      <point x="228" y="803" type="curve" smooth="yes"/>
      <point x="228" y="770"/>
      <point x="254" y="744"/>
      <point x="287" y="744" type="curve" smooth="yes"/>
      <point x="320" y="744"/>
      <point x="347" y="770"/>
    </contour>
    <contour>
      <point x="189" y="803" type="curve" smooth="yes"/>
      <point x="189" y="836"/>
      <point x="162" y="862"/>
      <point x="129" y="862" type="curve" smooth="yes"/>
      <point x="96" y="862"/>
      <point x="70" y="836"/>
      <point x="70" y="803" type="curve" smooth="yes"/>
      <point x="70" y="770"/>
      <point x="96" y="744"/>
      <point x="129" y="744" type="curve" smooth="yes"/>
      <point x="162" y="744"/>
      <point x="189" y="770"/>
    </contour>
  </outline>
</glyph>
<glyph name="Igrave" format="2">
  <advance width="259"/>
  <unicode hex="00CC"/>
  <outline>
    <contour>
      <point x="23" y="593" type="line"/>
      <point x="85" y="591" type="line"/>
      <point x="85" y="0" type="line"/>
      <point x="195" y="0" type="line"/>
      <point x="195" y="698" type="line"/>
      <point x="23" y="698" type="line"/>
    </contour>
    <contour>
      <point x="143" y="858" type="curve" smooth="yes"/>
      <point x="113" y="741" type="line"/>
      <point x="157" y="741" type="line"/>
      <point x="216" y="817" type="line" smooth="yes"/>
      <point x="234" y="839"/>
      <point x="236" y="873"/>
      <point x="208" y="889" type="curve"/>
      <point x="181" y="901"/>
      <point x="151" y="886"/>
    </contour>
  </outline>
</glyph>
<glyph name="Iacute" format="2">
  <advance width="259"/>
  <unicode hex="00CD"/>
  <outline>
    <contour>
      <point x="23" y="593" type="line"/>
      <point x="86" y="591" type="line"/>
      <point x="86" y="0" type="line"/>
      <point x="196" y="0" type="line"/>
      <point x="196" y="698" type="line"/>
      <point x="23" y="698" type="line"/>
    </contour>
    <contour>
      <point x="143" y="858" type="curve"/>
      <point x="114" y="741" type="line"/>
      <point x="158" y="741" type="line"/>
      <point x="217" y="817" type="line" smooth="yes"/>
      <point x="235" y="839"/>
      <point x="235" y="875"/>
      <point x="209" y="889" type="curve"/>
      <point x="181" y="901"/>
      <point x="152" y="886"/>
    </contour>
  </outline>
</glyph>
<glyph name="Icircumflex" format="2">
  <advance width="288"/>
  <unicode hex="00CE"/>
  <outline>
    <contour>
      <point x="30" y="593" type="line"/>
      <point x="93" y="591" type="line"/>
      <point x="93" y="0" type="line"/>
      <point x="203" y="0" type="line"/>
      <point x="203" y="698" type="line"/>
      <point x="30" y="698" type="line"/>
    </contour>
    <contour>
      <point x="19" y="791" type="line"/>
      <point x="71" y="740" type="line"/>
      <point x="151" y="822" type="line"/>
      <point x="226" y="740" type="line"/>
      <point x="279" y="793" type="line"/>
      <point x="151" y="919" type="line"/>
    </contour>
  </outline>
</glyph>
<glyph name="Idieresis" format="2">
  <advance width="297"/>
  <unicode hex="00CF"/>
  <outline>
    <contour>
      <point x="52" y="593" type="line"/>
      <point x="115" y="591" type="line"/>
      <point x="115" y="0" type="line"/>
      <point x="225" y="0" type="line"/>
      <point x="225" y="698" type="line"/>
      <point x="52" y="698" type="line"/>
    </contour>
    <contour>
      <point x="222" y="861" type="curve" smooth="yes"/>
      <point x="189" y="861"/>
      <point x="161" y="835"/>
      <point x="161" y="802" type="curve" smooth="yes"/>
      <point x="161" y="769"/>
      <point x="189" y="741"/>
      <point x="222" y="741" type="curve" smooth="yes"/>
      <point x="255" y="741"/>
      <point x="280" y="769"/>
      <point x="280" y="802" type="curve" smooth="yes"/>
      <point x="280" y="835"/>
      <point x="255" y="861"/>
    </contour>
    <contour>
      <point x="62" y="861" type="curve" smooth="yes"/>
      <point x="29" y="861"/>
      <point x="4" y="835"/>
      <point x="4" y="802" type="curve" smooth="yes"/>
      <point x="4" y="769"/>
      <point x="29" y="741"/>
      <point x="62" y="741" type="curve" smooth="yes"/>
      <point x="95" y="741"/>
      <point x="123" y="769"/>
      <point x="123" y="802" type="curve" smooth="yes"/>
      <point x="123" y="835"/>
      <point x="95" y="861"/>
    </contour>
  </outline>
</glyph>
<glyph name="Ntilde" format="2">
  <advance width="575"/>
  <unicode hex="00D1"/>
  <outline>
    <contour>
      <point x="533" y="698" type="line"/>
      <point x="422" y="698" type="line"/>
      <point x="422" y="230" type="line"/>
      <point x="151" y="698" type="line"/>
      <point x="41" y="698" type="line"/>
      <point x="41" y="0" type="line"/>
      <point x="151" y="0" type="line"/>
      <point x="151" y="472" type="line"/>
      <point x="422" y="0" type="line"/>
      <point x="533" y="0" type="line"/>
    </contour>
    <contour>
      <point x="418" y="781" type="curve"/>
      <point x="392" y="840" type="line"/>
      <point x="379" y="829"/>
      <point x="361" y="823"/>
      <point x="346" y="822" type="curve"/>
      <point x="309" y="822"/>
      <point x="277" y="840"/>
      <point x="245" y="840" type="curve" smooth="yes"/>
      <point x="207" y="840"/>
      <point x="181" y="827"/>
      <point x="156" y="806" type="curve"/>
      <point x="184" y="749" type="line"/>
      <point x="193" y="755"/>
      <point x="205" y="766"/>
      <point x="230" y="768" type="curve"/>
      <point x="267" y="768"/>
      <point x="298" y="751"/>
      <point x="332" y="751" type="curve" smooth="yes"/>
      <point x="368" y="751"/>
      <point x="396" y="763"/>
    </contour>
  </outline>
</glyph>
<glyph name="Otilde" format="2">
  <advance width="493"/>
  <unicode hex="00D5"/>
  <outline>
    <contour>
      <point x="36" y="506" type="curve" smooth="yes"/>
      <point x="36" y="185" type="line" smooth="yes"/>
      <point x="36" y="56"/>
      <point x="128" y="-11"/>
      <point x="247" y="-11" type="curve" smooth="yes"/>
      <point x="372" y="-11"/>
      <point x="456" y="63"/>
      <point x="456" y="185" type="curve" smooth="yes"/>
      <point x="456" y="505" type="line" smooth="yes"/>
      <point x="456" y="636"/>
      <point x="380" y="715"/>
      <point x="248" y="715" type="curve" smooth="yes"/>
      <point x="116" y="715"/>
      <point x="36" y="642"/>
    </contour>
    <contour>
      <point x="146" y="204" type="curve" smooth="yes"/>
      <point x="146" y="470" type="line" smooth="yes"/>
      <point x="146" y="557"/>
      <point x="176" y="598"/>
      <point x="246" y="598" type="curve" smooth="yes"/>
      <point x="323" y="598"/>
      <point x="346" y="554"/>
      <point x="346" y="469" type="curve" smooth="yes"/>
      <point x="346" y="206" type="line" smooth="yes"/>
      <point x="346" y="143"/>
      <point x="309" y="101"/>
      <point x="246" y="101" type="curve" smooth="yes"/>
      <point x="179" y="101"/>
      <point x="146" y="140"/>
    </contour>
    <contour>
      <point x="377" y="773" type="curve"/>
      <point x="351" y="833" type="line"/>
      <point x="338" y="822"/>
      <point x="320" y="815"/>
      <point x="305" y="814" type="curve"/>
      <point x="268" y="814"/>
      <point x="237" y="833"/>
      <point x="204" y="833" type="curve" smooth="yes"/>
      <point x="166" y="833"/>
      <point x="140" y="818"/>
      <point x="115" y="799" type="curve"/>
      <point x="143" y="740" type="line"/>
      <point x="152" y="747"/>
      <point x="164" y="758"/>
      <point x="190" y="760" type="curve"/>
      <point x="226" y="760"/>
      <point x="259" y="741"/>
      <point x="294" y="741" type="curve" smooth="yes"/>
      <point x="327" y="741"/>
      <point x="356" y="756"/>
    </contour>
  </outline>
</glyph>
<glyph name="multiply" format="2">
  <advance width="376"/>
  <unicode hex="00D7"/>
  <outline>
    <contour>
      <point x="187" y="404" type="line"/>
      <point x="101" y="507" type="line"/>
      <point x="30" y="447" type="line"/>
      <point x="128" y="332" type="line"/>
      <point x="33" y="218" type="line"/>
      <point x="101" y="156" type="line"/>
      <point x="187" y="260" type="line"/>
      <point x="274" y="157" type="line"/>
      <point x="344" y="218" type="line"/>
      <point x="247" y="332" type="line"/>
      <point x="345" y="450" type="line"/>
      <point x="273" y="508" type="line"/>
    </contour>
  </outline>
</glyph>
<glyph name="Oslash" format="2">
  <advance width="508"/>
  <unicode hex="00D8"/>
  <outline>
    <contour>
      <point x="40" y="506" type="curve" smooth="yes"/>
      <point x="40" y="185" type="line" smooth="yes"/>
      <point x="40" y="56"/>
      <point x="132" y="-11"/>
      <point x="251" y="-11" type="curve" smooth="yes"/>
      <point x="375" y="-11"/>
      <point x="460" y="63"/>
      <point x="460" y="185" type="curve" smooth="yes"/>
      <point x="460" y="505" type="line" smooth="yes"/>
      <point x="460" y="636"/>
      <point x="384" y="715"/>
      <point x="252" y="715" type="curve" smooth="yes"/>
      <point x="120" y="715"/>
      <point x="40" y="642"/>
    </contour>
    <contour>
      <point x="150" y="204" type="curve" smooth="yes"/>
      <point x="150" y="470" type="line" smooth="yes"/>
      <point x="150" y="557"/>
      <point x="180" y="598"/>
      <point x="250" y="598" type="curve" smooth="yes"/>
      <point x="327" y="598"/>
      <point x="350" y="554"/>
      <point x="350" y="469" type="curve" smooth="yes"/>
      <point x="350" y="206" type="line" smooth="yes"/>
      <point x="350" y="143"/>
      <point x="313" y="101"/>
      <point x="250" y="101" type="curve" smooth="yes"/>
      <point x="182" y="101"/>
      <point x="150" y="140"/>
    </contour>
    <contour>
      <point x="35" y="-114" type="line"/>
      <point x="152" y="-114" type="line"/>
      <point x="479" y="816" type="line"/>
      <point x="359" y="816" type="line"/>
    </contour>
  </outline>
</glyph>
<glyph name="Uacute" format="2">
  <advance width="498"/>
  <unicode hex="00DA"/>
  <outline>
    <contour>
      <point x="458" y="185" type="curve" smooth="yes"/>
      <point x="458" y="698" type="line"/>
      <point x="348" y="698" type="line"/>
      <point x="348" y="206" type="line" smooth="yes"/>
      <point x="348" y="172"/>
      <point x="337" y="144"/>
      <point x="318" y="127" type="curve"/>
      <point x="301" y="110"/>
      <point x="277" y="101"/>
      <point x="248" y="101" type="curve" smooth="yes"/>
      <point x="218" y="101"/>
      <point x="195" y="108"/>
      <point x="180" y="122" type="curve" smooth="yes"/>
      <point x="159" y="140"/>
      <point x="148" y="168"/>
      <point x="148" y="204" type="curve" smooth="yes"/>
      <point x="148" y="698" type="line"/>
      <point x="38" y="698" type="line"/>
      <point x="38" y="185" type="line" smooth="yes"/>
      <point x="38" y="118"/>
      <point x="60" y="68"/>
      <point x="100" y="36" type="curve" smooth="yes"/>
      <point x="142" y="5"/>
      <point x="192" y="-11"/>
      <point x="249" y="-11" type="curve" smooth="yes"/>
      <point x="306" y="-11"/>
      <point x="356" y="5"/>
      <point x="396" y="36" type="curve" smooth="yes"/>
      <point x="437" y="68"/>
      <point x="458" y="118"/>
    </contour>
    <contour>
      <point x="252" y="860" type="curve" smooth="yes"/>
      <point x="223" y="744" type="line"/>
      <point x="267" y="744" type="line"/>
      <point x="325" y="820" type="line"/>
      <point x="343" y="840"/>
      <point x="343" y="877"/>
      <point x="318" y="891" type="curve" smooth="yes"/>
      <point x="291" y="905"/>
      <point x="259" y="886"/>
    </contour>
  </outline>
</glyph>
<glyph name="Udieresis" format="2">
  <advance width="498"/>
  <unicode hex="00DC"/>
  <outline>
    <contour>
      <point x="458" y="185" type="curve" smooth="yes"/>
      <point x="458" y="698" type="line"/>
      <point x="348" y="698" type="line"/>
      <point x="348" y="206" type="line" smooth="yes"/>
      <point x="348" y="172"/>
      <point x="337" y="144"/>
      <point x="318" y="127" type="curve"/>
      <point x="301" y="110"/>
      <point x="277" y="101"/>
      <point x="248" y="101" type="curve" smooth="yes"/>
      <point x="218" y="101"/>
      <point x="195" y="108"/>
      <point x="180" y="122" type="curve" smooth="yes"/>
      <point x="159" y="140"/>
      <point x="148" y="168"/>
      <point x="148" y="204" type="curve" smooth="yes"/>
      <point x="148" y="698" type="line"/>
      <point x="38" y="698" type="line"/>
      <point x="38" y="185" type="line" smooth="yes"/>
      <point x="38" y="118"/>
      <point x="60" y="68"/>
      <point x="100" y="36" type="curve" smooth="yes"/>
      <point x="142" y="5"/>
      <point x="192" y="-11"/>
      <point x="249" y="-11" type="curve" smooth="yes"/>
      <point x="306" y="-11"/>
      <point x="356" y="5"/>
      <point x="396" y="36" type="curve" smooth="yes"/>
      <point x="437" y="68"/>
      <point x="458" y="118"/>
    </contour>
    <contour>
      <point x="388" y="804" type="curve" smooth="yes"/>
      <point x="388" y="837"/>
      <point x="360" y="864"/>
      <point x="327" y="864" type="curve" smooth="yes"/>
      <point x="294" y="864"/>
      <point x="268" y="837"/>
      <point x="268" y="804" type="curve" smooth="yes"/>
      <point x="268" y="771"/>
      <point x="294" y="745"/>
      <point x="327" y="745" type="curve" smooth="yes"/>
      <point x="360" y="745"/>
      <point x="388" y="771"/>
    </contour>
    <contour>
      <point x="229" y="804" type="curve" smooth="yes"/>
      <point x="229" y="837"/>
      <point x="203" y="864"/>
      <point x="170" y="864" type="curve" smooth="yes"/>
      <point x="137" y="864"/>
      <point x="109" y="837"/>
      <point x="109" y="804" type="curve" smooth="yes"/>
      <point x="109" y="771"/>
      <point x="137" y="745"/>
      <point x="170" y="745" type="curve" smooth="yes"/>
      <point x="203" y="745"/>
      <point x="229" y="771"/>
    </contour>
  </outline>
</glyph>
<glyph name="germandbls" format="2">
  <advance width="515"/>
  <unicode hex="00DF"/>
  <outline>
    <contour>
      <point x="150" y="0" type="curve"/>
      <point x="150" y="505" type="line" smooth="yes"/>
      <point x="150" y="565"/>
      <point x="170" y="595"/>
      <point x="210" y="595" type="curve" smooth="yes"/>
      <point x="239" y="595"/>
      <point x="253" y="576"/>
      <point x="253" y="555" type="curve" smooth="yes"/>
      <point x="253" y="532"/>
      <point x="235" y="506"/>
      <point x="202" y="506" type="curve"/>
      <point x="187" y="482"/>
      <point x="181" y="460"/>
      <point x="181" y="439" type="curve" smooth="yes"/>
      <point x="181" y="358"/>
      <point x="271" y="298"/>
      <point x="325" y="243" type="curve" smooth="yes"/>
      <point x="357" y="209"/>
      <point x="371" y="178"/>
      <point x="371" y="152" type="curve" smooth="yes"/>
      <point x="371" y="116"/>
      <point x="342" y="94"/>
      <point x="310" y="94" type="curve" smooth="yes"/>
      <point x="284" y="94"/>
      <point x="252" y="107"/>
      <point x="219" y="137" type="curve"/>
      <point x="203" y="103"/>
      <point x="187" y="71"/>
      <point x="171" y="37" type="curve"/>
      <point x="208" y="7"/>
      <point x="258" y="-12"/>
      <point x="313" y="-12" type="curve" smooth="yes"/>
      <point x="410" y="-12"/>
      <point x="487" y="53"/>
      <point x="487" y="148" type="curve" smooth="yes"/>
      <point x="487" y="205"/>
      <point x="463" y="251"/>
      <point x="429" y="288" type="curve" smooth="yes"/>
      <point x="379" y="345"/>
      <point x="294" y="393"/>
      <point x="294" y="444" type="curve" smooth="yes"/>
      <point x="294" y="455"/>
      <point x="298" y="465"/>
      <point x="305" y="476" type="curve"/>
      <point x="306" y="476"/>
      <point x="325" y="476"/>
      <point x="325" y="476" type="curve"/>
      <point x="362" y="515"/>
      <point x="368" y="568"/>
      <point x="354" y="610" type="curve" smooth="yes"/>
      <point x="335" y="667"/>
      <point x="269" y="700"/>
      <point x="201" y="700" type="curve" smooth="yes"/>
      <point x="120" y="698"/>
      <point x="40" y="651"/>
      <point x="40" y="536" type="curve" smooth="yes"/>
      <point x="40" y="358"/>
      <point x="40" y="178"/>
      <point x="40" y="0" type="curve"/>
      <point x="76" y="0"/>
      <point x="114" y="0"/>
    </contour>
  </outline>
</glyph>
<glyph name="aacute" format="2">
  <advance width="447"/>
  <unicode hex="00E1"/>
  <outline>
    <contour>
      <point x="303" y="334" type="curve"/>
      <point x="272" y="378"/>
      <point x="210" y="400"/>
      <point x="163" y="400" type="curve" smooth="yes"/>
      <point x="90" y="400"/>
      <point x="28" y="354"/>
      <point x="28" y="252" type="curve"/>
      <point x="28" y="252"/>
      <point x="28" y="155"/>
      <point x="28" y="155" type="curve"/>
      <point x="34" y="28"/>
      <point x="121" y="-11"/>
      <point x="233" y="-11" type="curve" smooth="yes"/>
      <point x="300" y="-11"/>
      <point x="358" y="-8"/>
      <point x="413" y="0" type="curve"/>
      <point x="413" y="0"/>
      <point x="413" y="194"/>
      <point x="413" y="306" type="curve" smooth="yes"/>
      <point x="413" y="398"/>
      <point x="390" y="442"/>
      <point x="366" y="464" type="curve" smooth="yes"/>
      <point x="322" y="504"/>
      <point x="258" y="508"/>
      <point x="205" y="508" type="curve"/>
      <point x="196" y="433" type="line"/>
      <point x="238" y="433"/>
      <point x="267" y="422"/>
      <point x="285" y="406" type="curve" smooth="yes"/>
      <point x="298" y="395"/>
      <point x="303" y="377"/>
    </contour>
    <contour>
      <point x="303" y="252" type="curve"/>
      <point x="303" y="252"/>
      <point x="303" y="94"/>
      <point x="303" y="94" type="curve"/>
      <point x="303" y="94"/>
      <point x="259" y="90"/>
      <point x="243" y="90" type="curve" smooth="yes"/>
      <point x="152" y="90"/>
      <point x="139" y="123"/>
      <point x="139" y="173" type="curve" smooth="yes"/>
      <point x="139" y="190"/>
      <point x="139" y="218"/>
      <point x="139" y="238" type="curve" smooth="yes"/>
      <point x="139" y="275"/>
      <point x="163" y="287"/>
      <point x="194" y="287" type="curve" smooth="yes"/>
      <point x="242" y="287"/>
      <point x="291" y="260"/>
    </contour>
    <contour>
      <point x="239" y="664" type="curve" smooth="yes"/>
      <point x="210" y="549" type="line"/>
      <point x="254" y="549" type="line"/>
      <point x="312" y="624" type="line"/>
      <point x="331" y="646"/>
      <point x="331" y="681"/>
      <point x="304" y="695" type="curve" smooth="yes"/>
      <point x="278" y="710"/>
      <point x="246" y="691"/>
    </contour>
  </outline>
</glyph>
<glyph name="acircumflex" format="2">
  <advance width="449"/>
  <unicode hex="00E2"/>
  <outline>
    <contour>
      <point x="305" y="334" type="curve"/>
      <point x="274" y="378"/>
      <point x="212" y="400"/>
      <point x="165" y="400" type="curve" smooth="yes"/>
      <point x="92" y="400"/>
      <point x="30" y="354"/>
      <point x="30" y="252" type="curve"/>
      <point x="30" y="252"/>
      <point x="30" y="155"/>
      <point x="30" y="155" type="curve"/>
      <point x="36" y="28"/>
      <point x="123" y="-11"/>
      <point x="235" y="-11" type="curve" smooth="yes"/>
      <point x="302" y="-11"/>
      <point x="360" y="-8"/>
      <point x="415" y="0" type="curve"/>
      <point x="415" y="0"/>
      <point x="415" y="194"/>
      <point x="415" y="306" type="curve" smooth="yes"/>
      <point x="415" y="398"/>
      <point x="392" y="442"/>
      <point x="368" y="464" type="curve" smooth="yes"/>
      <point x="324" y="504"/>
      <point x="260" y="508"/>
      <point x="207" y="508" type="curve"/>
      <point x="199" y="433" type="line"/>
      <point x="240" y="433"/>
      <point x="269" y="422"/>
      <point x="288" y="406" type="curve" smooth="yes"/>
      <point x="300" y="395"/>
      <point x="305" y="377"/>
    </contour>
    <contour>
      <point x="305" y="252" type="curve"/>
      <point x="305" y="252"/>
      <point x="305" y="94"/>
      <point x="305" y="94" type="curve"/>
      <point x="305" y="94"/>
      <point x="261" y="90"/>
      <point x="245" y="90" type="curve" smooth="yes"/>
      <point x="154" y="90"/>
      <point x="141" y="123"/>
      <point x="141" y="173" type="curve" smooth="yes"/>
      <point x="141" y="190"/>
      <point x="141" y="218"/>
      <point x="141" y="238" type="curve" smooth="yes"/>
      <point x="141" y="275"/>
      <point x="165" y="287"/>
      <point x="196" y="287" type="curve" smooth="yes"/>
      <point x="244" y="287"/>
      <point x="293" y="260"/>
    </contour>
    <contour>
      <point x="92" y="598" type="line"/>
      <point x="146" y="547" type="line"/>
      <point x="224" y="629" type="line"/>
      <point x="300" y="548" type="line"/>
      <point x="354" y="599" type="line"/>
      <point x="224" y="726" type="line"/>
    </contour>
  </outline>
</glyph>
<glyph name="adieresis" format="2">
  <advance width="450"/>
  <unicode hex="00E4"/>
  <outline>
    <contour>
      <point x="305" y="334" type="curve"/>
      <point x="274" y="378"/>
      <point x="212" y="400"/>
      <point x="165" y="400" type="curve" smooth="yes"/>
      <point x="92" y="400"/>
      <point x="30" y="354"/>
      <point x="30" y="252" type="curve"/>
      <point x="30" y="252"/>
      <point x="30" y="155"/>
      <point x="30" y="155" type="curve"/>
      <point x="36" y="28"/>
      <point x="123" y="-11"/>
      <point x="235" y="-11" type="curve" smooth="yes"/>
      <point x="302" y="-11"/>
      <point x="360" y="-8"/>
      <point x="415" y="0" type="curve"/>
      <point x="415" y="0"/>
      <point x="415" y="194"/>
      <point x="415" y="306" type="curve" smooth="yes"/>
      <point x="415" y="398"/>
      <point x="392" y="442"/>
      <point x="368" y="464" type="curve" smooth="yes"/>
      <point x="324" y="504"/>
      <point x="260" y="508"/>
      <point x="207" y="508" type="curve"/>
      <point x="199" y="433" type="line"/>
      <point x="240" y="433"/>
      <point x="269" y="422"/>
      <point x="288" y="406" type="curve" smooth="yes"/>
      <point x="300" y="395"/>
      <point x="305" y="377"/>
    </contour>
    <contour>
      <point x="305" y="252" type="curve"/>
      <point x="305" y="252"/>
      <point x="305" y="94"/>
      <point x="305" y="94" type="curve"/>
      <point x="305" y="94"/>
      <point x="261" y="90"/>
      <point x="245" y="90" type="curve" smooth="yes"/>
      <point x="154" y="90"/>
      <point x="141" y="123"/>
      <point x="141" y="173" type="curve" smooth="yes"/>
      <point x="141" y="190"/>
      <point x="141" y="218"/>
      <point x="141" y="238" type="curve" smooth="yes"/>
      <point x="141" y="275"/>
      <point x="165" y="287"/>
      <point x="196" y="287" type="curve" smooth="yes"/>
      <point x="244" y="287"/>
      <point x="293" y="260"/>
    </contour>
    <contour>
      <point x="301" y="668" type="curve" smooth="yes"/>
      <point x="268" y="668"/>
      <point x="241" y="642"/>
      <point x="241" y="609" type="curve" smooth="yes"/>
      <point x="241" y="576"/>
      <point x="268" y="549"/>
      <point x="301" y="549" type="curve" smooth="yes"/>
      <point x="333" y="549"/>
      <point x="360" y="576"/>
      <point x="360" y="609" type="curve" smooth="yes"/>
      <point x="360" y="642"/>
      <point x="333" y="668"/>
    </contour>
    <contour>
      <point x="142" y="668" type="curve" smooth="yes"/>
      <point x="109" y="668"/>
      <point x="83" y="642"/>
      <point x="83" y="609" type="curve" smooth="yes"/>
      <point x="83" y="576"/>
      <point x="109" y="549"/>
      <point x="142" y="549" type="curve" smooth="yes"/>
      <point x="175" y="549"/>
      <point x="202" y="576"/>
      <point x="202" y="609" type="curve" smooth="yes"/>
      <point x="202" y="642"/>
      <point x="175" y="668"/>
    </contour>
  </outline>
</glyph>
<glyph name="ae" format="2">
  <advance width="698"/>
  <unicode hex="00E6"/>
  <outline>
    <contour>
      <point x="418" y="150" type="curve" smooth="yes"/>
      <point x="418" y="174" type="line"/>
      <point x="666" y="187" type="line"/>
      <point x="666" y="343" type="line" smooth="yes"/>
      <point x="666" y="450"/>
      <point x="588" y="510"/>
      <point x="490" y="510" type="curve" smooth="yes"/>
      <point x="441" y="510"/>
      <point x="398" y="497"/>
      <point x="360" y="469" type="curve"/>
      <point x="316" y="504"/>
      <point x="256" y="508"/>
      <point x="205" y="508" type="curve"/>
      <point x="202" y="483"/>
      <point x="200" y="459"/>
      <point x="196" y="433" type="curve"/>
      <point x="273" y="431"/>
      <point x="303" y="408"/>
      <point x="303" y="334" type="curve"/>
      <point x="272" y="378"/>
      <point x="210" y="400"/>
      <point x="163" y="400" type="curve" smooth="yes"/>
      <point x="90" y="400"/>
      <point x="28" y="354"/>
      <point x="28" y="252" type="curve" smooth="yes"/>
      <point x="28" y="155" type="line" smooth="yes"/>
      <point x="34" y="28"/>
      <point x="121" y="-11"/>
      <point x="234" y="-11" type="curve" smooth="yes"/>
      <point x="295" y="-11"/>
      <point x="349" y="-9"/>
      <point x="401" y="-2" type="curve"/>
      <point x="401" y="13" type="line"/>
      <point x="416" y="0"/>
      <point x="453" y="-12"/>
      <point x="487" y="-12" type="curve" smooth="yes"/>
      <point x="547" y="-12"/>
      <point x="595" y="7"/>
      <point x="641" y="36" type="curve"/>
      <point x="601" y="131" type="line"/>
      <point x="558" y="109"/>
      <point x="510" y="91"/>
      <point x="475" y="91" type="curve" smooth="yes"/>
      <point x="436" y="91"/>
      <point x="418" y="117"/>
    </contour>
    <contour>
      <point x="303" y="252" type="curve"/>
      <point x="303" y="94" type="line"/>
      <point x="303" y="94"/>
      <point x="259" y="90"/>
      <point x="243" y="90" type="curve" smooth="yes"/>
      <point x="152" y="90"/>
      <point x="139" y="123"/>
      <point x="139" y="173" type="curve" smooth="yes"/>
      <point x="139" y="238" type="line" smooth="yes"/>
      <point x="139" y="275"/>
      <point x="163" y="287"/>
      <point x="194" y="287" type="curve" smooth="yes"/>
      <point x="242" y="287"/>
      <point x="291" y="260"/>
    </contour>
    <contour>
      <point x="556" y="323" type="curve" smooth="yes"/>
      <point x="556" y="284" type="line"/>
      <point x="418" y="275" type="line"/>
      <point x="418" y="326" type="line" smooth="yes"/>
      <point x="418" y="380"/>
      <point x="440" y="403"/>
      <point x="489" y="405" type="curve" smooth="yes"/>
      <point x="544" y="405"/>
      <point x="556" y="367"/>
    </contour>
  </outline>
</glyph>
<glyph name="ccedilla" format="2">
  <advance width="384"/>
  <unicode hex="00E7"/>
  <outline>
    <contour>
      <point x="326" y="392" type="curve"/>
      <point x="351" y="477" type="line"/>
      <point x="293" y="503"/>
      <point x="229" y="518"/>
      <point x="170" y="505" type="curve" smooth="yes"/>
      <point x="125" y="495"/>
      <point x="85" y="471"/>
      <point x="60" y="427" type="curve" smooth="yes"/>
      <point x="40" y="395"/>
      <point x="33" y="363"/>
      <point x="31" y="319" type="curve"/>
      <point x="31" y="173" type="line" smooth="yes"/>
      <point x="31" y="75"/>
      <point x="75" y="23"/>
      <point x="143" y="1" type="curve" smooth="yes"/>
      <point x="214" y="-20"/>
      <point x="289" y="-12"/>
      <point x="353" y="5" type="curve"/>
      <point x="334" y="94" type="line"/>
      <point x="334" y="94"/>
      <point x="287" y="84"/>
      <point x="244" y="84" type="curve" smooth="yes"/>
      <point x="183" y="84"/>
      <point x="140" y="113"/>
      <point x="140" y="174" type="curve" smooth="yes"/>
      <point x="140" y="331" type="line" smooth="yes"/>
      <point x="140" y="351"/>
      <point x="146" y="367"/>
      <point x="153" y="380" type="curve"/>
      <point x="165" y="398"/>
      <point x="186" y="409"/>
      <point x="209" y="413" type="curve" smooth="yes"/>
      <point x="248" y="420"/>
      <point x="292" y="408"/>
    </contour>
    <contour>
      <point x="252" y="-37" type="curve" smooth="yes"/>
      <point x="249" y="-37"/>
      <point x="246" y="-37"/>
      <point x="227" y="-39" type="curve"/>
      <point x="252" y="4" type="line"/>
      <point x="185" y="4" type="line"/>
      <point x="140" y="-72" type="line"/>
      <point x="158" y="-110" type="line"/>
      <point x="198" y="-107"/>
      <point x="227" y="-103"/>
      <point x="248" y="-103" type="curve" smooth="yes"/>
      <point x="272" y="-103"/>
      <point x="282" y="-116"/>
      <point x="282" y="-134" type="curve" smooth="yes"/>
      <point x="282" y="-151"/>
      <point x="271" y="-164"/>
      <point x="244" y="-164" type="curve" smooth="yes"/>
      <point x="201" y="-164"/>
      <point x="145" y="-155"/>
      <point x="145" y="-155" type="curve"/>
      <point x="138" y="-184"/>
      <point x="136" y="-193"/>
      <point x="130" y="-220" type="curve"/>
      <point x="134" y="-220"/>
      <point x="184" y="-231"/>
      <point x="233" y="-231" type="curve" smooth="yes"/>
      <point x="314" y="-231"/>
      <point x="350" y="-189"/>
      <point x="350" y="-129" type="curve" smooth="yes"/>
      <point x="350" y="-83"/>
      <point x="314" y="-37"/>
    </contour>
  </outline>
</glyph>
<glyph name="egrave" format="2">
  <advance width="423"/>
  <unicode hex="00E8"/>
  <outline>
    <contour>
      <point x="144" y="148" type="curve" smooth="yes"/>
      <point x="144" y="173" type="line"/>
      <point x="392" y="186" type="line"/>
      <point x="392" y="342" type="line" smooth="yes"/>
      <point x="392" y="402"/>
      <point x="370" y="449"/>
      <point x="332" y="477" type="curve" smooth="yes"/>
      <point x="302" y="498"/>
      <point x="263" y="509"/>
      <point x="216" y="509" type="curve" smooth="yes"/>
      <point x="165" y="509"/>
      <point x="123" y="496"/>
      <point x="92" y="472" type="curve" smooth="yes"/>
      <point x="54" y="442"/>
      <point x="32" y="397"/>
      <point x="32" y="339" type="curve" smooth="yes"/>
      <point x="32" y="134" type="line" smooth="yes"/>
      <point x="32" y="80"/>
      <point x="52" y="43"/>
      <point x="83" y="20" type="curve" smooth="yes"/>
      <point x="113" y="-3"/>
      <point x="153" y="-13"/>
      <point x="197" y="-13" type="curve" smooth="yes"/>
      <point x="257" y="-13"/>
      <point x="321" y="5"/>
      <point x="368" y="35" type="curve"/>
      <point x="327" y="130" type="line"/>
      <point x="284" y="108"/>
      <point x="236" y="90"/>
      <point x="200" y="90" type="curve" smooth="yes"/>
      <point x="182" y="90"/>
      <point x="167" y="95"/>
      <point x="157" y="106" type="curve"/>
      <point x="149" y="116"/>
      <point x="144" y="129"/>
    </contour>
    <contour>
      <point x="281" y="312" type="curve" smooth="yes"/>
      <point x="281" y="305"/>
      <point x="281" y="289"/>
      <point x="281" y="283" type="curve"/>
      <point x="144" y="274" type="line"/>
      <point x="144" y="284"/>
      <point x="144" y="304"/>
      <point x="144" y="313" type="curve" smooth="yes"/>
      <point x="144" y="345"/>
      <point x="145" y="367"/>
      <point x="162" y="385" type="curve"/>
      <point x="173" y="395"/>
      <point x="191" y="403"/>
      <point x="215" y="404" type="curve" smooth="yes"/>
      <point x="236" y="404"/>
      <point x="250" y="397"/>
      <point x="260" y="388" type="curve" smooth="yes"/>
      <point x="280" y="371"/>
      <point x="281" y="348"/>
    </contour>
    <contour>
      <point x="129" y="624" type="curve"/>
      <point x="189" y="549" type="line"/>
      <point x="233" y="549" type="line"/>
      <point x="203" y="664" type="line"/>
      <point x="192" y="692"/>
      <point x="162" y="710"/>
      <point x="137" y="695" type="curve"/>
      <point x="107" y="680"/>
      <point x="113" y="642"/>
    </contour>
  </outline>
</glyph>
<glyph name="eacute" format="2">
  <advance width="422"/>
  <unicode hex="00E9"/>
  <outline>
    <contour>
      <point x="142" y="148" type="curve" smooth="yes"/>
      <point x="142" y="173" type="line"/>
      <point x="391" y="186" type="line"/>
      <point x="391" y="342" type="line" smooth="yes"/>
      <point x="391" y="402"/>
      <point x="369" y="449"/>
      <point x="330" y="477" type="curve" smooth="yes"/>
      <point x="301" y="498"/>
      <point x="262" y="509"/>
      <point x="215" y="509" type="curve" smooth="yes"/>
      <point x="164" y="509"/>
      <point x="122" y="496"/>
      <point x="91" y="472" type="curve" smooth="yes"/>
      <point x="53" y="442"/>
      <point x="31" y="397"/>
      <point x="31" y="339" type="curve" smooth="yes"/>
      <point x="31" y="134" type="line" smooth="yes"/>
      <point x="31" y="80"/>
      <point x="51" y="43"/>
      <point x="82" y="20" type="curve" smooth="yes"/>
      <point x="112" y="-3"/>
      <point x="152" y="-13"/>
      <point x="196" y="-13" type="curve" smooth="yes"/>
      <point x="256" y="-13"/>
      <point x="319" y="5"/>
      <point x="367" y="35" type="curve"/>
      <point x="326" y="130" type="line"/>
      <point x="283" y="108"/>
      <point x="235" y="90"/>
      <point x="199" y="90" type="curve" smooth="yes"/>
      <point x="181" y="90"/>
      <point x="165" y="95"/>
      <point x="156" y="106" type="curve" smooth="yes"/>
      <point x="148" y="116"/>
      <point x="142" y="129"/>
    </contour>
    <contour>
      <point x="280" y="312" type="curve" smooth="yes"/>
      <point x="280" y="305"/>
      <point x="280" y="289"/>
      <point x="280" y="283" type="curve"/>
      <point x="142" y="274" type="line"/>
      <point x="142" y="284"/>
      <point x="142" y="304"/>
      <point x="142" y="313" type="curve" smooth="yes"/>
      <point x="142" y="345"/>
      <point x="144" y="367"/>
      <point x="161" y="385" type="curve"/>
      <point x="172" y="395"/>
      <point x="190" y="403"/>
      <point x="214" y="404" type="curve" smooth="yes"/>
      <point x="235" y="404"/>
      <point x="249" y="397"/>
      <point x="259" y="388" type="curve" smooth="yes"/>
      <point x="279" y="371"/>
      <point x="280" y="348"/>
    </contour>
    <contour>
      <point x="214" y="664" type="curve" smooth="yes"/>
      <point x="184" y="549" type="line"/>
      <point x="228" y="549" type="line"/>
      <point x="288" y="624" type="line" smooth="yes"/>
      <point x="305" y="646"/>
      <point x="305" y="681"/>
      <point x="279" y="695" type="curve" smooth="yes"/>
      <point x="254" y="710"/>
      <point x="222" y="691"/>
    </contour>
  </outline>
</glyph>
<glyph name="ecircumflex" format="2">
  <advance width="425"/>
  <unicode hex="00EA"/>
  <outline>
    <contour>
      <point x="145" y="148" type="curve" smooth="yes"/>
      <point x="145" y="173" type="line"/>
      <point x="393" y="186" type="line"/>
      <point x="393" y="342" type="line" smooth="yes"/>
      <point x="393" y="402"/>
      <point x="371" y="449"/>
      <point x="333" y="477" type="curve" smooth="yes"/>
      <point x="303" y="498"/>
      <point x="264" y="509"/>
      <point x="217" y="509" type="curve" smooth="yes"/>
      <point x="166" y="509"/>
      <point x="124" y="496"/>
      <point x="93" y="472" type="curve" smooth="yes"/>
      <point x="55" y="442"/>
      <point x="33" y="397"/>
      <point x="33" y="339" type="curve" smooth="yes"/>
      <point x="33" y="134" type="line" smooth="yes"/>
      <point x="33" y="80"/>
      <point x="53" y="43"/>
      <point x="84" y="20" type="curve" smooth="yes"/>
      <point x="114" y="-3"/>
      <point x="154" y="-13"/>
      <point x="198" y="-13" type="curve" smooth="yes"/>
      <point x="258" y="-13"/>
      <point x="322" y="5"/>
      <point x="369" y="35" type="curve"/>
      <point x="328" y="130" type="line"/>
      <point x="285" y="108"/>
      <point x="237" y="90"/>
      <point x="201" y="90" type="curve" smooth="yes"/>
      <point x="183" y="90"/>
      <point x="168" y="95"/>
      <point x="158" y="106" type="curve"/>
      <point x="150" y="116"/>
      <point x="145" y="129"/>
    </contour>
    <contour>
      <point x="282" y="312" type="curve" smooth="yes"/>
      <point x="282" y="305"/>
      <point x="282" y="289"/>
      <point x="282" y="283" type="curve"/>
      <point x="145" y="274" type="line"/>
      <point x="145" y="284"/>
      <point x="145" y="304"/>
      <point x="145" y="313" type="curve" smooth="yes"/>
      <point x="145" y="345"/>
      <point x="146" y="367"/>
      <point x="163" y="385" type="curve"/>
      <point x="174" y="395"/>
      <point x="192" y="403"/>
      <point x="216" y="404" type="curve" smooth="yes"/>
      <point x="237" y="404"/>
      <point x="251" y="397"/>
      <point x="261" y="388" type="curve" smooth="yes"/>
      <point x="281" y="371"/>
      <point x="282" y="348"/>
    </contour>
    <contour>
      <point x="84" y="599" type="line"/>
      <point x="136" y="549" type="line"/>
      <point x="215" y="631" type="line"/>
      <point x="291" y="549" type="line"/>
      <point x="344" y="602" type="line"/>
      <point x="215" y="728" type="line"/>
    </contour>
  </outline>
</glyph>
<glyph name="igrave" format="2">
  <advance width="220"/>
  <unicode hex="00EC"/>
  <outline>
    <contour>
      <point x="72" y="0" type="line"/>
      <point x="182" y="0" type="line"/>
      <point x="182" y="499" type="line"/>
      <point x="72" y="499" type="line"/>
    </contour>
    <contour>
      <point x="45" y="620" type="curve" smooth="yes"/>
      <point x="105" y="544" type="line"/>
      <point x="149" y="544" type="line"/>
      <point x="118" y="661" type="line"/>
      <point x="109" y="689"/>
      <point x="77" y="705"/>
      <point x="53" y="691" type="curve" smooth="yes"/>
      <point x="23" y="675"/>
      <point x="30" y="640"/>
    </contour>
  </outline>
</glyph>
<glyph name="iacute" format="2">
  <advance width="215"/>
  <unicode hex="00ED"/>
  <outline>
    <contour>
      <point x="38" y="0" type="line"/>
      <point x="148" y="0" type="line"/>
      <point x="148" y="499" type="line"/>
      <point x="38" y="499" type="line"/>
    </contour>
    <contour>
      <point x="97" y="661" type="curve" smooth="yes"/>
      <point x="68" y="544" type="line"/>
      <point x="112" y="544" type="line"/>
      <point x="170" y="620" type="line" smooth="yes"/>
      <point x="188" y="642"/>
      <point x="188" y="676"/>
      <point x="162" y="691" type="curve" smooth="yes"/>
      <point x="137" y="706"/>
      <point x="104" y="686"/>
    </contour>
  </outline>
</glyph>
<glyph name="icircumflex" format="2">
  <advance width="301"/>
  <unicode hex="00EE"/>
  <outline>
    <contour>
      <point x="94" y="0" type="line"/>
      <point x="204" y="0" type="line"/>
      <point x="204" y="499" type="line"/>
      <point x="94" y="499" type="line"/>
    </contour>
    <contour>
      <point x="19" y="597" type="line"/>
      <point x="71" y="544" type="line"/>
      <point x="151" y="627" type="line"/>
      <point x="226" y="546" type="line"/>
      <point x="279" y="598" type="line"/>
      <point x="151" y="724" type="line"/>
    </contour>
  </outline>
</glyph>
<glyph name="idieresis" format="2">
  <advance width="321"/>
  <unicode hex="00EF"/>
  <outline>
    <contour>
      <point x="105" y="0" type="line"/>
      <point x="215" y="0" type="line"/>
      <point x="215" y="499" type="line"/>
      <point x="105" y="499" type="line"/>
    </contour>
    <contour>
      <point x="298" y="604" type="curve" smooth="yes"/>
      <point x="298" y="636"/>
      <point x="271" y="663"/>
      <point x="238" y="663" type="curve" smooth="yes"/>
      <point x="205" y="663"/>
      <point x="180" y="636"/>
      <point x="180" y="604" type="curve" smooth="yes"/>
      <point x="180" y="571"/>
      <point x="205" y="543"/>
      <point x="238" y="543" type="curve" smooth="yes"/>
      <point x="271" y="543"/>
      <point x="298" y="571"/>
    </contour>
    <contour>
      <point x="140" y="604" type="curve" smooth="yes"/>
      <point x="140" y="636"/>
      <point x="114" y="663"/>
      <point x="81" y="663" type="curve" smooth="yes"/>
      <point x="48" y="663"/>
      <point x="20" y="636"/>
      <point x="20" y="604" type="curve" smooth="yes"/>
      <point x="20" y="571"/>
      <point x="48" y="543"/>
      <point x="81" y="543" type="curve" smooth="yes"/>
      <point x="114" y="543"/>
      <point x="140" y="571"/>
    </contour>
  </outline>
</glyph>
<glyph name="ntilde" format="2">
  <advance width="441"/>
  <unicode hex="00F1"/>
  <outline>
    <contour>
      <point x="297" y="343" type="curve" smooth="yes"/>
      <point x="297" y="0" type="line"/>
      <point x="406" y="0" type="line"/>
      <point x="406" y="345" type="line" smooth="yes"/>
      <point x="406" y="473"/>
      <point x="324" y="509"/>
      <point x="245" y="509" type="curve" smooth="yes"/>
      <point x="204" y="509"/>
      <point x="163" y="488"/>
      <point x="146" y="476" type="curve"/>
      <point x="146" y="499" type="line"/>
      <point x="37" y="499" type="line"/>
      <point x="37" y="0" type="line"/>
      <point x="146" y="0" type="line"/>
      <point x="146" y="386" type="line"/>
      <point x="179" y="403"/>
      <point x="207" y="410"/>
      <point x="230" y="410" type="curve" smooth="yes"/>
      <point x="273" y="408"/>
      <point x="297" y="380"/>
    </contour>
    <contour>
      <point x="352" y="579" type="curve"/>
      <point x="326" y="639" type="line"/>
      <point x="313" y="628"/>
      <point x="295" y="620"/>
      <point x="280" y="620" type="curve" smooth="yes"/>
      <point x="243" y="620"/>
      <point x="212" y="639"/>
      <point x="179" y="639" type="curve" smooth="yes"/>
      <point x="141" y="639"/>
      <point x="115" y="625"/>
      <point x="90" y="605" type="curve"/>
      <point x="118" y="547" type="line"/>
      <point x="127" y="553"/>
      <point x="140" y="565"/>
      <point x="164" y="565" type="curve" smooth="yes"/>
      <point x="202" y="565"/>
      <point x="234" y="549"/>
      <point x="269" y="549" type="curve" smooth="yes"/>
      <point x="302" y="549"/>
      <point x="330" y="562"/>
    </contour>
  </outline>
</glyph>
<glyph name="ograve" format="2">
  <advance width="431"/>
  <unicode hex="00F2"/>
  <outline>
    <contour>
      <point x="400" y="184" type="curve" smooth="yes"/>
      <point x="400" y="316" type="line" smooth="yes"/>
      <point x="400" y="437"/>
      <point x="334" y="510"/>
      <point x="218" y="510" type="curve" smooth="yes"/>
      <point x="97" y="510"/>
      <point x="30" y="443"/>
      <point x="30" y="316" type="curve" smooth="yes"/>
      <point x="30" y="184" type="line" smooth="yes"/>
      <point x="30" y="82"/>
      <point x="86" y="-10"/>
      <point x="218" y="-10" type="curve" smooth="yes"/>
      <point x="343" y="-10"/>
      <point x="400" y="71"/>
    </contour>
    <contour>
      <point x="289" y="322" type="curve" smooth="yes"/>
      <point x="289" y="176" type="line" smooth="yes"/>
      <point x="289" y="131"/>
      <point x="267" y="98"/>
      <point x="217" y="98" type="curve" smooth="yes"/>
      <point x="164" y="98"/>
      <point x="142" y="135"/>
      <point x="142" y="176" type="curve" smooth="yes"/>
      <point x="142" y="322" type="line" smooth="yes"/>
      <point x="142" y="373"/>
      <point x="169" y="400"/>
      <point x="217" y="400" type="curve" smooth="yes"/>
      <point x="265" y="400"/>
      <point x="289" y="370"/>
    </contour>
    <contour>
      <point x="138" y="624" type="curve"/>
      <point x="197" y="549" type="line"/>
      <point x="241" y="549" type="line"/>
      <point x="211" y="664" type="line" smooth="yes"/>
      <point x="202" y="693"/>
      <point x="170" y="708"/>
      <point x="146" y="695" type="curve" smooth="yes"/>
      <point x="116" y="680"/>
      <point x="122" y="642"/>
    </contour>
  </outline>
</glyph>
<glyph name="ocircumflex" format="2">
  <advance width="433"/>
  <unicode hex="00F4"/>
  <outline>
    <contour>
      <point x="401" y="184" type="curve" smooth="yes"/>
      <point x="401" y="316" type="line" smooth="yes"/>
      <point x="401" y="437"/>
      <point x="335" y="510"/>
      <point x="219" y="510" type="curve" smooth="yes"/>
      <point x="98" y="510"/>
      <point x="31" y="443"/>
      <point x="31" y="316" type="curve" smooth="yes"/>
      <point x="31" y="184" type="line" smooth="yes"/>
      <point x="31" y="82"/>
      <point x="87" y="-10"/>
      <point x="219" y="-10" type="curve" smooth="yes"/>
      <point x="344" y="-10"/>
      <point x="401" y="71"/>
    </contour>
    <contour>
      <point x="290" y="322" type="curve" smooth="yes"/>
      <point x="290" y="176" type="line" smooth="yes"/>
      <point x="290" y="131"/>
      <point x="268" y="98"/>
      <point x="218" y="98" type="curve" smooth="yes"/>
      <point x="165" y="98"/>
      <point x="144" y="135"/>
      <point x="144" y="176" type="curve" smooth="yes"/>
      <point x="144" y="322" type="line" smooth="yes"/>
      <point x="144" y="373"/>
      <point x="170" y="400"/>
      <point x="218" y="400" type="curve" smooth="yes"/>
      <point x="266" y="400"/>
      <point x="290" y="370"/>
    </contour>
    <contour>
      <point x="86" y="596" type="line"/>
      <point x="138" y="543" type="line"/>
      <point x="218" y="626" type="line"/>
      <point x="293" y="544" type="line"/>
      <point x="346" y="597" type="line"/>
      <point x="218" y="723" type="line"/>
    </contour>
  </outline>
</glyph>
<glyph name="otilde" format="2">
  <advance width="433"/>
  <unicode hex="00F5"/>
  <outline>
    <contour>
      <point x="401" y="184" type="curve" smooth="yes"/>
      <point x="401" y="316" type="line" smooth="yes"/>
      <point x="401" y="437"/>
      <point x="335" y="510"/>
      <point x="219" y="510" type="curve" smooth="yes"/>
      <point x="98" y="510"/>
      <point x="31" y="443"/>
      <point x="31" y="316" type="curve" smooth="yes"/>
      <point x="31" y="184" type="line" smooth="yes"/>
      <point x="31" y="82"/>
      <point x="87" y="-10"/>
      <point x="219" y="-10" type="curve" smooth="yes"/>
      <point x="344" y="-10"/>
      <point x="401" y="71"/>
    </contour>
    <contour>
      <point x="290" y="322" type="curve" smooth="yes"/>
      <point x="290" y="176" type="line" smooth="yes"/>
      <point x="290" y="131"/>
      <point x="268" y="98"/>
      <point x="218" y="98" type="curve" smooth="yes"/>
      <point x="165" y="98"/>
      <point x="144" y="135"/>
      <point x="144" y="176" type="curve" smooth="yes"/>
      <point x="144" y="322" type="line" smooth="yes"/>
      <point x="144" y="373"/>
      <point x="170" y="400"/>
      <point x="218" y="400" type="curve" smooth="yes"/>
      <point x="266" y="400"/>
      <point x="290" y="370"/>
    </contour>
    <contour>
      <point x="347" y="579" type="curve"/>
      <point x="322" y="639" type="line"/>
      <point x="308" y="628"/>
      <point x="290" y="620"/>
      <point x="275" y="620" type="curve" smooth="yes"/>
      <point x="236" y="620"/>
      <point x="204" y="640"/>
      <point x="170" y="640" type="curve"/>
      <point x="118" y="637"/>
      <point x="98" y="616"/>
      <point x="85" y="606" type="curve"/>
      <point x="114" y="547" type="line"/>
      <point x="123" y="554"/>
      <point x="135" y="565"/>
      <point x="159" y="565" type="curve" smooth="yes"/>
      <point x="197" y="565"/>
      <point x="229" y="549"/>
      <point x="263" y="549" type="curve" smooth="yes"/>
      <point x="297" y="549"/>
      <point x="325" y="563"/>
    </contour>
  </outline>
</glyph>
<glyph name="odieresis" format="2">
  <advance width="434"/>
  <unicode hex="00F6"/>
  <outline>
    <contour>
      <point x="402" y="184" type="curve" smooth="yes"/>
      <point x="402" y="316" type="line" smooth="yes"/>
      <point x="402" y="437"/>
      <point x="336" y="510"/>
      <point x="220" y="510" type="curve" smooth="yes"/>
      <point x="99" y="510"/>
      <point x="32" y="443"/>
      <point x="32" y="316" type="curve" smooth="yes"/>
      <point x="32" y="184" type="line" smooth="yes"/>
      <point x="32" y="82"/>
      <point x="88" y="-10"/>
      <point x="220" y="-10" type="curve" smooth="yes"/>
      <point x="345" y="-10"/>
      <point x="402" y="71"/>
    </contour>
    <contour>
      <point x="291" y="322" type="curve" smooth="yes"/>
      <point x="291" y="176" type="line" smooth="yes"/>
      <point x="291" y="131"/>
      <point x="269" y="98"/>
      <point x="219" y="98" type="curve" smooth="yes"/>
      <point x="166" y="98"/>
      <point x="145" y="135"/>
      <point x="145" y="176" type="curve" smooth="yes"/>
      <point x="145" y="322" type="line" smooth="yes"/>
      <point x="145" y="373"/>
      <point x="171" y="400"/>
      <point x="219" y="400" type="curve" smooth="yes"/>
      <point x="267" y="400"/>
      <point x="291" y="370"/>
    </contour>
    <contour>
      <point x="352" y="607" type="curve" smooth="yes"/>
      <point x="352" y="640"/>
      <point x="325" y="667"/>
      <point x="292" y="667" type="curve" smooth="yes"/>
      <point x="259" y="667"/>
      <point x="233" y="640"/>
      <point x="233" y="607" type="curve" smooth="yes"/>
      <point x="233" y="574"/>
      <point x="259" y="547"/>
      <point x="292" y="547" type="curve" smooth="yes"/>
      <point x="325" y="547"/>
      <point x="352" y="574"/>
    </contour>
    <contour>
      <point x="193" y="607" type="curve" smooth="yes"/>
      <point x="193" y="640"/>
      <point x="168" y="667"/>
      <point x="135" y="667" type="curve" smooth="yes"/>
      <point x="102" y="667"/>
      <point x="74" y="640"/>
      <point x="74" y="607" type="curve" smooth="yes"/>
      <point x="74" y="574"/>
      <point x="102" y="547"/>
      <point x="135" y="547" type="curve" smooth="yes"/>
      <point x="168" y="547"/>
      <point x="193" y="574"/>
    </contour>
  </outline>
</glyph>
<glyph name="oslash" format="2">
  <advance width="452"/>
  <unicode hex="00F8"/>
  <outline>
    <contour>
      <point x="401" y="184" type="curve" smooth="yes"/>
      <point x="401" y="316" type="line" smooth="yes"/>
      <point x="401" y="371"/>
      <point x="388" y="417"/>
      <point x="361" y="450" type="curve"/>
      <point x="421" y="586" type="line"/>
      <point x="313" y="586" type="line"/>
      <point x="278" y="504" type="line"/>
      <point x="259" y="509"/>
      <point x="240" y="510"/>
      <point x="219" y="510" type="curve" smooth="yes"/>
      <point x="98" y="510"/>
      <point x="31" y="443"/>
      <point x="31" y="316" type="curve" smooth="yes"/>
      <point x="31" y="184" type="line" smooth="yes"/>
      <point x="31" y="131"/>
      <point x="47" y="80"/>
      <point x="81" y="44" type="curve"/>
      <point x="32" y="-67" type="line"/>
      <point x="137" y="-67" type="line"/>
      <point x="164" y="-4" type="line"/>
      <point x="181" y="-8"/>
      <point x="200" y="-10"/>
      <point x="219" y="-10" type="curve" smooth="yes"/>
      <point x="344" y="-10"/>
      <point x="401" y="71"/>
    </contour>
    <contour>
      <point x="144" y="215" type="curve" smooth="yes"/>
      <point x="144" y="322" type="line" smooth="yes"/>
      <point x="144" y="373"/>
      <point x="170" y="400"/>
      <point x="218" y="400" type="curve" smooth="yes"/>
      <point x="224" y="400"/>
      <point x="228" y="400"/>
      <point x="234" y="400" type="curve"/>
      <point x="144" y="190" type="line"/>
      <point x="144" y="198"/>
      <point x="144" y="206"/>
    </contour>
    <contour>
      <point x="290" y="260" type="curve" smooth="yes"/>
      <point x="290" y="176" type="line" smooth="yes"/>
      <point x="290" y="131"/>
      <point x="268" y="98"/>
      <point x="218" y="98" type="curve" smooth="yes"/>
      <point x="215" y="98"/>
      <point x="212" y="98"/>
      <point x="210" y="98" type="curve"/>
      <point x="290" y="283" type="line"/>
      <point x="290" y="276"/>
      <point x="290" y="268"/>
    </contour>
  </outline>
</glyph>
<glyph name="ugrave" format="2">
  <advance width="439"/>
  <unicode hex="00F9"/>
  <outline>
    <contour>
      <point x="293" y="26" type="curve"/>
      <point x="293" y="0" type="line"/>
      <point x="403" y="0" type="line"/>
      <point x="403" y="501" type="line"/>
      <point x="293" y="501" type="line"/>
      <point x="293" y="175" type="line" smooth="yes"/>
      <point x="293" y="129"/>
      <point x="258" y="94"/>
      <point x="213" y="94" type="curve" smooth="yes"/>
      <point x="173" y="94"/>
      <point x="145" y="124"/>
      <point x="145" y="159" type="curve" smooth="yes"/>
      <point x="145" y="501" type="line"/>
      <point x="34" y="501" type="line"/>
      <point x="34" y="157" type="line" smooth="yes"/>
      <point x="34" y="29"/>
      <point x="116" y="-7"/>
      <point x="195" y="-7" type="curve" smooth="yes"/>
      <point x="236" y="-7"/>
      <point x="281" y="12"/>
    </contour>
    <contour>
      <point x="140" y="620" type="curve"/>
      <point x="198" y="543" type="line"/>
      <point x="242" y="543" type="line"/>
      <point x="213" y="660" type="line"/>
      <point x="202" y="686"/>
      <point x="173" y="706"/>
      <point x="147" y="691" type="curve" smooth="yes"/>
      <point x="118" y="675"/>
      <point x="123" y="639"/>
    </contour>
  </outline>
</glyph>
<glyph name="uacute" format="2">
  <advance width="440"/>
  <unicode hex="00FA"/>
  <outline>
    <contour>
      <point x="293" y="26" type="curve"/>
      <point x="293" y="0" type="line"/>
      <point x="403" y="0" type="line"/>
      <point x="403" y="501" type="line"/>
      <point x="293" y="501" type="line"/>
      <point x="293" y="175" type="line" smooth="yes"/>
      <point x="293" y="129"/>
      <point x="258" y="94"/>
      <point x="213" y="94" type="curve" smooth="yes"/>
      <point x="173" y="94"/>
      <point x="145" y="124"/>
      <point x="145" y="159" type="curve" smooth="yes"/>
      <point x="145" y="501" type="line"/>
      <point x="34" y="501" type="line"/>
      <point x="34" y="157" type="line" smooth="yes"/>
      <point x="34" y="29"/>
      <point x="116" y="-7"/>
      <point x="195" y="-7" type="curve" smooth="yes"/>
      <point x="236" y="-7"/>
      <point x="281" y="12"/>
    </contour>
    <contour>
      <point x="227" y="659" type="curve" smooth="yes"/>
      <point x="196" y="543" type="line"/>
      <point x="240" y="543" type="line"/>
      <point x="300" y="619" type="line" smooth="yes"/>
      <point x="317" y="641"/>
      <point x="317" y="675"/>
      <point x="292" y="690" type="curve" smooth="yes"/>
      <point x="264" y="705"/>
      <point x="234" y="685"/>
    </contour>
  </outline>
</glyph>
<glyph name="udieresis" format="2">
  <advance width="441"/>
  <unicode hex="00FC"/>
  <outline>
    <contour>
      <point x="293" y="26" type="curve"/>
      <point x="293" y="0" type="line"/>
      <point x="403" y="0" type="line"/>
      <point x="403" y="501" type="line"/>
      <point x="293" y="501" type="line"/>
      <point x="293" y="175" type="line" smooth="yes"/>
      <point x="293" y="129"/>
      <point x="258" y="94"/>
      <point x="213" y="94" type="curve" smooth="yes"/>
      <point x="173" y="94"/>
      <point x="145" y="124"/>
      <point x="145" y="159" type="curve" smooth="yes"/>
      <point x="145" y="501" type="line"/>
      <point x="35" y="501" type="line"/>
      <point x="35" y="157" type="line" smooth="yes"/>
      <point x="35" y="29"/>
      <point x="116" y="-7"/>
      <point x="195" y="-7" type="curve" smooth="yes"/>
      <point x="236" y="-7"/>
      <point x="281" y="12"/>
    </contour>
    <contour>
      <point x="299" y="663" type="curve" smooth="yes"/>
      <point x="266" y="663"/>
      <point x="239" y="636"/>
      <point x="239" y="603" type="curve" smooth="yes"/>
      <point x="239" y="570"/>
      <point x="266" y="543"/>
      <point x="299" y="543" type="curve" smooth="yes"/>
      <point x="332" y="543"/>
      <point x="359" y="570"/>
      <point x="359" y="603" type="curve" smooth="yes"/>
      <point x="359" y="636"/>
      <point x="332" y="663"/>
    </contour>
    <contour>
      <point x="140" y="663" type="curve" smooth="yes"/>
      <point x="107" y="663"/>
      <point x="81" y="636"/>
      <point x="81" y="603" type="curve" smooth="yes"/>
      <point x="81" y="570"/>
      <point x="107" y="543"/>
      <point x="140" y="543" type="curve" smooth="yes"/>
      <point x="173" y="543"/>
      <point x="201" y="570"/>
      <point x="201" y="603" type="curve" smooth="yes"/>
      <point x="201" y="636"/>
      <point x="173" y="663"/>
    </contour>
  </outline>
</glyph>
<glyph name="yacute" format="2">
  <advance width="478"/>
  <unicode hex="00FD"/>
  <outline>
    <contour>
      <point x="450" y="433" type="curve"/>
      <point x="416" y="510" type="line"/>
      <point x="326" y="510"/>
      <point x="293" y="448"/>
      <point x="293" y="392" type="curve" smooth="yes"/>
      <point x="293" y="176" type="line" smooth="yes"/>
      <point x="293" y="130"/>
      <point x="258" y="94"/>
      <point x="213" y="94" type="curve" smooth="yes"/>
      <point x="172" y="94"/>
      <point x="144" y="123"/>
      <point x="144" y="161" type="curve" smooth="yes"/>
      <point x="144" y="501" type="line"/>
      <point x="33" y="501" type="line"/>
      <point x="33" y="158" type="line" smooth="yes"/>
      <point x="33" y="30"/>
      <point x="114" y="-6"/>
      <point x="193" y="-6" type="curve" smooth="yes"/>
      <point x="235" y="-6"/>
      <point x="280" y="13"/>
      <point x="293" y="28" type="curve"/>
      <point x="293" y="-48" type="line" smooth="yes"/>
      <point x="293" y="-72"/>
      <point x="286" y="-89"/>
      <point x="273" y="-101" type="curve" smooth="yes"/>
      <point x="259" y="-114"/>
      <point x="240" y="-124"/>
      <point x="223" y="-124" type="curve"/>
      <point x="252" y="-213" type="line"/>
      <point x="285" y="-213"/>
      <point x="328" y="-199"/>
      <point x="355" y="-179" type="curve" smooth="yes"/>
      <point x="388" y="-157"/>
      <point x="403" y="-116"/>
      <point x="403" y="-59" type="curve" smooth="yes"/>
      <point x="403" y="362" type="line" smooth="yes"/>
      <point x="403" y="395"/>
      <point x="411" y="425"/>
    </contour>
    <contour>
      <point x="241" y="659" type="curve" smooth="yes"/>
      <point x="211" y="543" type="line"/>
      <point x="255" y="543" type="line"/>
      <point x="313" y="618" type="line"/>
      <point x="332" y="640"/>
      <point x="332" y="674"/>
      <point x="306" y="689" type="curve" smooth="yes"/>
      <point x="280" y="704"/>
      <point x="248" y="685"/>
    </contour>
  </outline>
</glyph>
<glyph name="thorn" format="2">
  <advance width="446"/>
  <unicode hex="00FE"/>
  <outline>
    <contour>
      <point x="151" y="491" type="curve"/>
      <point x="151" y="700" type="line"/>
      <point x="41" y="700" type="line"/>
      <point x="41" y="0" type="line"/>
      <point x="151" y="0" type="line"/>
      <point x="151" y="139" type="line"/>
      <point x="171" y="124"/>
      <point x="201" y="116"/>
      <point x="234" y="116" type="curve" smooth="yes"/>
      <point x="345" y="116"/>
      <point x="419" y="190"/>
      <point x="419" y="315" type="curve" smooth="yes"/>
      <point x="419" y="430"/>
      <point x="353" y="508"/>
      <point x="229" y="508" type="curve" smooth="yes"/>
      <point x="203" y="508"/>
      <point x="174" y="502"/>
    </contour>
    <contour>
      <point x="234" y="404" type="curve" smooth="yes"/>
      <point x="286" y="404"/>
      <point x="310" y="360"/>
      <point x="310" y="316" type="curve" smooth="yes"/>
      <point x="310" y="248"/>
      <point x="273" y="220"/>
      <point x="234" y="220" type="curve" smooth="yes"/>
      <point x="188" y="220"/>
      <point x="150" y="249"/>
      <point x="150" y="318" type="curve" smooth="yes"/>
      <point x="150" y="369"/>
      <point x="192" y="404"/>
    </contour>
  </outline>
</glyph>
<glyph name="ydieresis" format="2">
  <advance width="480"/>
  <unicode hex="00FF"/>
  <outline>
    <contour>
      <point x="452" y="433" type="curve"/>
      <point x="418" y="510" type="line"/>
      <point x="328" y="510"/>
      <point x="295" y="448"/>
      <point x="295" y="392" type="curve" smooth="yes"/>
      <point x="295" y="176" type="line" smooth="yes"/>
      <point x="295" y="129"/>
      <point x="256" y="94"/>
      <point x="213" y="94" type="curve" smooth="yes"/>
      <point x="170" y="95"/>
      <point x="146" y="124"/>
      <point x="146" y="161" type="curve" smooth="yes"/>
      <point x="146" y="501" type="line"/>
      <point x="35" y="501" type="line"/>
      <point x="35" y="158" type="line" smooth="yes"/>
      <point x="35" y="30"/>
      <point x="117" y="-6"/>
      <point x="196" y="-6" type="curve" smooth="yes"/>
      <point x="237" y="-6"/>
      <point x="283" y="13"/>
      <point x="295" y="28" type="curve"/>
      <point x="295" y="-48" type="line" smooth="yes"/>
      <point x="295" y="-72"/>
      <point x="288" y="-89"/>
      <point x="275" y="-101" type="curve" smooth="yes"/>
      <point x="261" y="-114"/>
      <point x="242" y="-124"/>
      <point x="225" y="-124" type="curve"/>
      <point x="254" y="-213" type="line"/>
      <point x="287" y="-213"/>
      <point x="330" y="-199"/>
      <point x="358" y="-179" type="curve" smooth="yes"/>
      <point x="390" y="-157"/>
      <point x="405" y="-116"/>
      <point x="405" y="-59" type="curve" smooth="yes"/>
      <point x="405" y="362" type="line" smooth="yes"/>
      <point x="405" y="395"/>
      <point x="414" y="425"/>
    </contour>
    <contour>
      <point x="313" y="663" type="curve" smooth="yes"/>
      <point x="280" y="663"/>
      <point x="252" y="636"/>
      <point x="252" y="603" type="curve" smooth="yes"/>
      <point x="252" y="570"/>
      <point x="280" y="543"/>
      <point x="313" y="543" type="curve" smooth="yes"/>
      <point x="346" y="543"/>
      <point x="372" y="570"/>
      <point x="372" y="603" type="curve" smooth="yes"/>
      <point x="372" y="636"/>
      <point x="346" y="663"/>
    </contour>
    <contour>
      <point x="154" y="663" type="curve" smooth="yes"/>
      <point x="121" y="663"/>
      <point x="95" y="636"/>
      <point x="95" y="603" type="curve" smooth="yes"/>
      <point x="95" y="570"/>
      <point x="121" y="543"/>
      <point x="154" y="543" type="curve" smooth="yes"/>
      <point x="187" y="543"/>
      <point x="214" y="570"/>
      <point x="214" y="603" type="curve" smooth="yes"/>
      <point x="214" y="636"/>
      <point x="187" y="663"/>
    </contour>
  </outline>
</glyph>
<glyph name="Abreve" format="2">
  <advance width="543"/>
  <unicode hex="0102"/>
  <outline>
    <contour>
      <point x="520" y="0" type="line"/>
      <point x="348" y="698" type="line"/>
      <point x="193" y="698" type="line"/>
      <point x="24" y="0" type="line"/>
      <point x="148" y="0" type="line"/>
      <point x="188" y="183" type="line"/>
      <point x="349" y="183" type="line"/>
      <point x="389" y="0" type="line"/>
    </contour>
    <contour>
      <point x="215" y="300" type="line"/>
      <point x="269" y="515" type="line"/>
      <point x="324" y="300" type="line"/>
    </contour>
    <contour>
      <point x="235" y="856" type="curve" smooth="yes"/>
      <point x="235" y="861" type="line"/>
      <point x="155" y="861" type="line"/>
      <point x="155" y="856" type="line" smooth="yes"/>
      <point x="155" y="793"/>
      <point x="206" y="741"/>
      <point x="268" y="741" type="curve" smooth="yes"/>
      <point x="331" y="741"/>
      <point x="382" y="793"/>
      <point x="382" y="856" type="curve" smooth="yes"/>
      <point x="382" y="861" type="line"/>
      <point x="302" y="861" type="line"/>
      <point x="302" y="856" type="line" smooth="yes"/>
      <point x="302" y="837"/>
      <point x="287" y="822"/>
      <point x="269" y="822" type="curve" smooth="yes"/>
      <point x="250" y="822"/>
      <point x="235" y="837"/>
    </contour>
  </outline>
</glyph>
<glyph name="abreve" format="2">
  <advance width="448"/>
  <unicode hex="0103"/>
  <outline>
    <contour>
      <point x="304" y="334" type="curve"/>
      <point x="273" y="378"/>
      <point x="211" y="400"/>
      <point x="164" y="400" type="curve" smooth="yes"/>
      <point x="91" y="400"/>
      <point x="29" y="354"/>
      <point x="29" y="252" type="curve"/>
      <point x="29" y="252"/>
      <point x="29" y="155"/>
      <point x="29" y="155" type="curve"/>
      <point x="35" y="28"/>
      <point x="122" y="-11"/>
      <point x="234" y="-11" type="curve" smooth="yes"/>
      <point x="301" y="-11"/>
      <point x="359" y="-8"/>
      <point x="414" y="0" type="curve"/>
      <point x="414" y="0"/>
      <point x="414" y="194"/>
      <point x="414" y="306" type="curve" smooth="yes"/>
      <point x="414" y="398"/>
      <point x="391" y="442"/>
      <point x="367" y="464" type="curve" smooth="yes"/>
      <point x="323" y="504"/>
      <point x="259" y="508"/>
      <point x="206" y="508" type="curve"/>
      <point x="198" y="433" type="line"/>
      <point x="239" y="433"/>
      <point x="268" y="422"/>
      <point x="287" y="406" type="curve" smooth="yes"/>
      <point x="299" y="395"/>
      <point x="304" y="377"/>
    </contour>
    <contour>
      <point x="304" y="252" type="curve"/>
      <point x="304" y="252"/>
      <point x="304" y="94"/>
      <point x="304" y="94" type="curve"/>
      <point x="304" y="94"/>
      <point x="260" y="90"/>
      <point x="244" y="90" type="curve" smooth="yes"/>
      <point x="153" y="90"/>
      <point x="140" y="123"/>
      <point x="140" y="173" type="curve" smooth="yes"/>
      <point x="140" y="190"/>
      <point x="140" y="218"/>
      <point x="140" y="238" type="curve" smooth="yes"/>
      <point x="140" y="275"/>
      <point x="164" y="287"/>
      <point x="195" y="287" type="curve" smooth="yes"/>
      <point x="243" y="287"/>
      <point x="292" y="260"/>
    </contour>
    <contour>
      <point x="335" y="662" type="curve" smooth="yes"/>
      <point x="335" y="669" type="line"/>
      <point x="255" y="669" type="line"/>
      <point x="255" y="662" type="line" smooth="yes"/>
      <point x="255" y="642"/>
      <point x="240" y="628"/>
      <point x="222" y="628" type="curve" smooth="yes"/>
      <point x="203" y="628"/>
      <point x="189" y="642"/>
      <point x="189" y="662" type="curve" smooth="yes"/>
      <point x="189" y="669" type="line"/>
      <point x="108" y="669" type="line"/>
      <point x="108" y="662" type="line" smooth="yes"/>
      <point x="108" y="598"/>
      <point x="159" y="549"/>
      <point x="222" y="549" type="curve" smooth="yes"/>
      <point x="284" y="549"/>
      <point x="335" y="598"/>
    </contour>
  </outline>
</glyph>
<glyph name="Aogonek" format="2">
  <advance width="580"/>
  <unicode hex="0104"/>
  <outline>
    <contour>
      <point x="520" y="0" type="line"/>
      <point x="348" y="698" type="line"/>
      <point x="193" y="698" type="line"/>
      <point x="24" y="0" type="line"/>
      <point x="148" y="0" type="line"/>
      <point x="188" y="183" type="line"/>
      <point x="348" y="183" type="line"/>
      <point x="389" y="0" type="line"/>
    </contour>
    <contour>
      <point x="215" y="300" type="line"/>
      <point x="269" y="515" type="line"/>
      <point x="324" y="300" type="line"/>
    </contour>
    <contour>
      <point x="430" y="-127" type="curve"/>
      <point x="511" y="-2" type="line"/>
      <point x="511" y="11" type="line"/>
      <point x="422" y="2" type="line"/>
      <point x="422" y="-2" type="line"/>
      <point x="367" y="-91" type="line" smooth="yes"/>
      <point x="315" y="-183"/>
      <point x="390" y="-253"/>
      <point x="478" y="-229" type="curve" smooth="yes"/>
      <point x="499" y="-223"/>
      <point x="580" y="-195"/>
      <point x="581" y="-194" type="curve"/>
      <point x="557" y="-123" type="line"/>
      <point x="557" y="-123"/>
      <point x="481" y="-149"/>
      <point x="454" y="-158" type="curve" smooth="yes"/>
      <point x="428" y="-168"/>
      <point x="419" y="-147"/>
    </contour>
  </outline>
</glyph>
<glyph name="aogonek" format="2">
  <advance width="486"/>
  <unicode hex="0105"/>
  <outline>
    <contour>
      <point x="303" y="334" type="curve"/>
      <point x="272" y="378"/>
      <point x="210" y="400"/>
      <point x="163" y="400" type="curve" smooth="yes"/>
      <point x="90" y="400"/>
      <point x="28" y="354"/>
      <point x="28" y="252" type="curve"/>
      <point x="28" y="252"/>
      <point x="28" y="155"/>
      <point x="28" y="155" type="curve"/>
      <point x="34" y="28"/>
      <point x="121" y="-11"/>
      <point x="234" y="-11" type="curve" smooth="yes"/>
      <point x="301" y="-11"/>
      <point x="358" y="-8"/>
      <point x="413" y="0" type="curve"/>
      <point x="413" y="0"/>
      <point x="413" y="194"/>
      <point x="413" y="306" type="curve" smooth="yes"/>
      <point x="413" y="398"/>
      <point x="390" y="442"/>
      <point x="367" y="464" type="curve" smooth="yes"/>
      <point x="323" y="504"/>
      <point x="258" y="508"/>
      <point x="205" y="508" type="curve"/>
      <point x="196" y="433" type="line"/>
      <point x="238" y="433"/>
      <point x="268" y="422"/>
      <point x="285" y="406" type="curve"/>
      <point x="298" y="395"/>
      <point x="303" y="377"/>
    </contour>
    <contour>
      <point x="303" y="252" type="curve"/>
      <point x="303" y="252"/>
      <point x="303" y="94"/>
      <point x="303" y="94" type="curve"/>
      <point x="303" y="94"/>
      <point x="259" y="90"/>
      <point x="243" y="90" type="curve" smooth="yes"/>
      <point x="152" y="90"/>
      <point x="139" y="123"/>
      <point x="139" y="173" type="curve" smooth="yes"/>
      <point x="139" y="190"/>
      <point x="139" y="218"/>
      <point x="139" y="238" type="curve" smooth="yes"/>
      <point x="139" y="275"/>
      <point x="163" y="287"/>
      <point x="194" y="287" type="curve" smooth="yes"/>
      <point x="242" y="287"/>
      <point x="291" y="260"/>
    </contour>
    <contour>
      <point x="374" y="-238" type="curve" smooth="yes"/>
      <point x="396" y="-232"/>
      <point x="477" y="-204"/>
      <point x="478" y="-204" type="curve"/>
      <point x="454" y="-132" type="line"/>
      <point x="454" y="-132"/>
      <point x="379" y="-158"/>
      <point x="350" y="-168" type="curve"/>
      <point x="326" y="-178"/>
      <point x="315" y="-156"/>
      <point x="326" y="-138" type="curve" smooth="yes"/>
      <point x="408" y="-11" type="line"/>
      <point x="408" y="-7"/>
      <point x="408" y="-2"/>
      <point x="408" y="2" type="curve"/>
      <point x="392" y="1"/>
      <point x="318" y="-7"/>
      <point x="317" y="-7" type="curve"/>
      <point x="317" y="-11" type="line"/>
      <point x="317" y="-11"/>
      <point x="294" y="-50"/>
      <point x="264" y="-101" type="curve" smooth="yes"/>
      <point x="214" y="-189"/>
      <point x="281" y="-265"/>
    </contour>
  </outline>
</glyph>
<glyph name="cacute" format="2">
  <advance width="384"/>
  <unicode hex="0107"/>
  <outline>
    <contour>
      <point x="325" y="392" type="curve"/>
      <point x="350" y="477" type="line"/>
      <point x="292" y="503"/>
      <point x="228" y="518"/>
      <point x="169" y="505" type="curve" smooth="yes"/>
      <point x="124" y="495"/>
      <point x="84" y="471"/>
      <point x="59" y="427" type="curve" smooth="yes"/>
      <point x="39" y="395"/>
      <point x="32" y="363"/>
      <point x="30" y="319" type="curve"/>
      <point x="30" y="173" type="line" smooth="yes"/>
      <point x="30" y="75"/>
      <point x="74" y="23"/>
      <point x="142" y="1" type="curve" smooth="yes"/>
      <point x="213" y="-20"/>
      <point x="288" y="-12"/>
      <point x="352" y="5" type="curve"/>
      <point x="333" y="94" type="line"/>
      <point x="333" y="94"/>
      <point x="286" y="84"/>
      <point x="243" y="84" type="curve" smooth="yes"/>
      <point x="182" y="84"/>
      <point x="139" y="113"/>
      <point x="139" y="174" type="curve" smooth="yes"/>
      <point x="139" y="331" type="line" smooth="yes"/>
      <point x="139" y="351"/>
      <point x="145" y="367"/>
      <point x="152" y="380" type="curve"/>
      <point x="164" y="398"/>
      <point x="185" y="409"/>
      <point x="208" y="413" type="curve" smooth="yes"/>
      <point x="247" y="420"/>
      <point x="291" y="408"/>
    </contour>
    <contour>
      <point x="215" y="664" type="curve" smooth="yes"/>
      <point x="184" y="549" type="line"/>
      <point x="229" y="549" type="line"/>
      <point x="288" y="624" type="line" smooth="yes"/>
      <point x="306" y="646"/>
      <point x="306" y="680"/>
      <point x="280" y="695" type="curve" smooth="yes"/>
      <point x="255" y="710"/>
      <point x="223" y="691"/>
    </contour>
  </outline>
</glyph>
<glyph name="Ccircumflex" format="2">
  <advance width="426"/>
  <unicode hex="0108"/>
  <outline>
    <contour>
      <point x="342" y="582" type="curve"/>
      <point x="372" y="675" type="line"/>
      <point x="333" y="696"/>
      <point x="283" y="710"/>
      <point x="233" y="710" type="curve" smooth="yes"/>
      <point x="181" y="710"/>
      <point x="132" y="697"/>
      <point x="97" y="664" type="curve" smooth="yes"/>
      <point x="61" y="632"/>
      <point x="36" y="581"/>
      <point x="36" y="503" type="curve" smooth="yes"/>
      <point x="36" y="183" type="line" smooth="yes"/>
      <point x="36" y="113"/>
      <point x="59" y="64"/>
      <point x="95" y="32" type="curve" smooth="yes"/>
      <point x="130" y="2"/>
      <point x="179" y="-12"/>
      <point x="233" y="-12" type="curve" smooth="yes"/>
      <point x="284" y="-11"/>
      <point x="339" y="1"/>
      <point x="396" y="23" type="curve"/>
      <point x="380" y="127" type="line"/>
      <point x="368" y="127"/>
      <point x="300" y="100"/>
      <point x="239" y="100" type="curve" smooth="yes"/>
      <point x="211" y="100"/>
      <point x="186" y="105"/>
      <point x="170" y="120" type="curve"/>
      <point x="154" y="133"/>
      <point x="146" y="154"/>
      <point x="146" y="185" type="curve" smooth="yes"/>
      <point x="146" y="512" type="line" smooth="yes"/>
      <point x="146" y="542"/>
      <point x="153" y="563"/>
      <point x="171" y="577" type="curve"/>
      <point x="187" y="592"/>
      <point x="213" y="599"/>
      <point x="248" y="599" type="curve" smooth="yes"/>
      <point x="278" y="599"/>
      <point x="315" y="592"/>
    </contour>
    <contour>
      <point x="86" y="794" type="line"/>
      <point x="139" y="743" type="line"/>
      <point x="218" y="825" type="line"/>
      <point x="293" y="743" type="line"/>
      <point x="347" y="795" type="line"/>
      <point x="218" y="922" type="line"/>
    </contour>
  </outline>
</glyph>
<glyph name="ccircumflex" format="2">
  <advance width="390"/>
  <unicode hex="0109"/>
  <outline>
    <contour>
      <point x="326" y="392" type="curve"/>
      <point x="351" y="477" type="line"/>
      <point x="293" y="503"/>
      <point x="229" y="518"/>
      <point x="170" y="505" type="curve" smooth="yes"/>
      <point x="125" y="495"/>
      <point x="85" y="471"/>
      <point x="60" y="427" type="curve" smooth="yes"/>
      <point x="40" y="395"/>
      <point x="33" y="363"/>
      <point x="31" y="319" type="curve"/>
      <point x="31" y="173" type="line" smooth="yes"/>
      <point x="31" y="75"/>
      <point x="75" y="23"/>
      <point x="144" y="1" type="curve" smooth="yes"/>
      <point x="214" y="-20"/>
      <point x="289" y="-12"/>
      <point x="354" y="5" type="curve"/>
      <point x="334" y="94" type="line"/>
      <point x="334" y="94"/>
      <point x="288" y="84"/>
      <point x="244" y="84" type="curve" smooth="yes"/>
      <point x="183" y="84"/>
      <point x="140" y="113"/>
      <point x="140" y="174" type="curve" smooth="yes"/>
      <point x="140" y="331" type="line" smooth="yes"/>
      <point x="140" y="351"/>
      <point x="146" y="367"/>
      <point x="153" y="380" type="curve"/>
      <point x="165" y="398"/>
      <point x="186" y="409"/>
      <point x="210" y="413" type="curve" smooth="yes"/>
      <point x="248" y="420"/>
      <point x="292" y="408"/>
    </contour>
    <contour>
      <point x="95" y="599" type="line"/>
      <point x="148" y="548" type="line"/>
      <point x="227" y="630" type="line"/>
      <point x="303" y="549" type="line"/>
      <point x="356" y="601" type="line"/>
      <point x="227" y="727" type="line"/>
    </contour>
  </outline>
</glyph>
<glyph name="cdotaccent" format="2">
  <advance width="383"/>
  <unicode hex="010B"/>
  <outline>
    <contour>
      <point x="325" y="392" type="curve"/>
      <point x="350" y="477" type="line"/>
      <point x="292" y="503"/>
      <point x="228" y="518"/>
      <point x="169" y="505" type="curve" smooth="yes"/>
      <point x="124" y="495"/>
      <point x="84" y="471"/>
      <point x="59" y="427" type="curve" smooth="yes"/>
      <point x="39" y="395"/>
      <point x="32" y="363"/>
      <point x="30" y="319" type="curve"/>
      <point x="30" y="173" type="line" smooth="yes"/>
      <point x="30" y="75"/>
      <point x="74" y="23"/>
      <point x="142" y="1" type="curve" smooth="yes"/>
      <point x="213" y="-20"/>
      <point x="288" y="-12"/>
      <point x="352" y="5" type="curve"/>
      <point x="333" y="94" type="line"/>
      <point x="333" y="94"/>
      <point x="286" y="84"/>
      <point x="243" y="84" type="curve" smooth="yes"/>
      <point x="182" y="84"/>
      <point x="139" y="113"/>
      <point x="139" y="174" type="curve" smooth="yes"/>
      <point x="139" y="331" type="line" smooth="yes"/>
      <point x="139" y="351"/>
      <point x="145" y="367"/>
      <point x="152" y="380" type="curve"/>
      <point x="164" y="398"/>
      <point x="185" y="409"/>
      <point x="208" y="413" type="curve" smooth="yes"/>
      <point x="247" y="420"/>
      <point x="291" y="408"/>
    </contour>
    <contour>
      <point x="280" y="608" type="curve" smooth="yes"/>
      <point x="280" y="641"/>
      <point x="254" y="668"/>
      <point x="221" y="668" type="curve" smooth="yes"/>
      <point x="187" y="668"/>
      <point x="160" y="641"/>
      <point x="160" y="608" type="curve" smooth="yes"/>
      <point x="160" y="575"/>
      <point x="187" y="549"/>
      <point x="221" y="549" type="curve" smooth="yes"/>
      <point x="254" y="549"/>
      <point x="280" y="575"/>
    </contour>
  </outline>
</glyph>
<glyph name="Ccaron" format="2">
  <advance width="426"/>
  <unicode hex="010C"/>
  <outline>
    <contour>
      <point x="342" y="582" type="curve"/>
      <point x="372" y="675" type="line"/>
      <point x="325" y="698"/>
      <point x="276" y="710"/>
      <point x="228" y="710" type="curve" smooth="yes"/>
      <point x="179" y="710"/>
      <point x="132" y="697"/>
      <point x="97" y="664" type="curve" smooth="yes"/>
      <point x="61" y="632"/>
      <point x="36" y="581"/>
      <point x="36" y="503" type="curve" smooth="yes"/>
      <point x="36" y="183" type="line" smooth="yes"/>
      <point x="36" y="113"/>
      <point x="59" y="64"/>
      <point x="95" y="32" type="curve" smooth="yes"/>
      <point x="130" y="2"/>
      <point x="179" y="-12"/>
      <point x="233" y="-12" type="curve" smooth="yes"/>
      <point x="284" y="-11"/>
      <point x="339" y="1"/>
      <point x="396" y="23" type="curve"/>
      <point x="380" y="127" type="line"/>
      <point x="368" y="127"/>
      <point x="300" y="100"/>
      <point x="239" y="100" type="curve" smooth="yes"/>
      <point x="211" y="100"/>
      <point x="186" y="105"/>
      <point x="170" y="120" type="curve"/>
      <point x="154" y="133"/>
      <point x="146" y="154"/>
      <point x="146" y="185" type="curve" smooth="yes"/>
      <point x="146" y="512" type="line" smooth="yes"/>
      <point x="146" y="542"/>
      <point x="153" y="563"/>
      <point x="171" y="577" type="curve"/>
      <point x="187" y="592"/>
      <point x="213" y="599"/>
      <point x="248" y="599" type="curve" smooth="yes"/>
      <point x="278" y="599"/>
      <point x="315" y="592"/>
    </contour>
    <contour>
      <point x="215" y="838" type="line"/>
      <point x="140" y="919" type="line"/>
      <point x="86" y="866" type="line"/>
      <point x="215" y="740" type="line"/>
      <point x="347" y="868" type="line"/>
      <point x="294" y="920" type="line"/>
    </contour>
  </outline>
</glyph>
<glyph name="Dcaron" format="2">
  <advance width="496"/>
  <unicode hex="010E"/>
  <outline>
    <contour>
      <point x="229" y="700" type="curve" smooth="yes"/>
      <point x="41" y="700" type="line"/>
      <point x="41" y="0" type="line"/>
      <point x="249" y="0" type="line" smooth="yes"/>
      <point x="390" y="0"/>
      <point x="461" y="74"/>
      <point x="461" y="206" type="curve" smooth="yes"/>
      <point x="461" y="473" type="line" smooth="yes"/>
      <point x="461" y="609"/>
      <point x="380" y="700"/>
    </contour>
    <contour>
      <point x="234" y="101" type="curve" smooth="yes"/>
      <point x="151" y="101" type="line"/>
      <point x="151" y="588" type="line"/>
      <point x="239" y="588" type="line" smooth="yes"/>
      <point x="315" y="588"/>
      <point x="351" y="555"/>
      <point x="351" y="483" type="curve" smooth="yes"/>
      <point x="351" y="196" type="line" smooth="yes"/>
      <point x="351" y="156"/>
      <point x="345" y="101"/>
    </contour>
    <contour>
      <point x="216" y="840" type="line"/>
      <point x="141" y="923" type="line"/>
      <point x="88" y="870" type="line"/>
      <point x="216" y="744" type="line"/>
      <point x="348" y="872" type="line"/>
      <point x="295" y="923" type="line"/>
    </contour>
  </outline>
</glyph>
<glyph name="dslash" format="1">
  <advance width="459"/>
  <unicode hex="0111"/>
  <outline>
    <contour>
      <point x="458" y="551" type="line"/>
      <point x="458" y="640" type="line"/>
      <point x="224" y="640" type="line"/>
      <point x="224" y="551" type="line"/>
    </contour>
    <component base="d"/>
  </outline>
</glyph>
<glyph name="emacron" format="2">
  <advance width="424"/>
  <unicode hex="0113"/>
  <outline>
    <contour>
      <point x="144" y="148" type="curve" smooth="yes"/>
      <point x="144" y="173" type="line"/>
      <point x="392" y="186" type="line"/>
      <point x="392" y="342" type="line" smooth="yes"/>
      <point x="392" y="402"/>
      <point x="370" y="449"/>
      <point x="332" y="477" type="curve" smooth="yes"/>
      <point x="302" y="498"/>
      <point x="263" y="509"/>
      <point x="216" y="509" type="curve" smooth="yes"/>
      <point x="165" y="509"/>
      <point x="123" y="496"/>
      <point x="92" y="472" type="curve" smooth="yes"/>
      <point x="54" y="442"/>
      <point x="32" y="397"/>
      <point x="32" y="339" type="curve" smooth="yes"/>
      <point x="32" y="134" type="line" smooth="yes"/>
      <point x="32" y="80"/>
      <point x="52" y="43"/>
      <point x="82" y="20" type="curve" smooth="yes"/>
      <point x="113" y="-3"/>
      <point x="153" y="-13"/>
      <point x="197" y="-13" type="curve" smooth="yes"/>
      <point x="257" y="-13"/>
      <point x="321" y="5"/>
      <point x="367" y="35" type="curve"/>
      <point x="327" y="130" type="line"/>
      <point x="284" y="108"/>
      <point x="236" y="90"/>
      <point x="200" y="90" type="curve" smooth="yes"/>
      <point x="181" y="90"/>
      <point x="168" y="95"/>
      <point x="158" y="106" type="curve" smooth="yes"/>
      <point x="148" y="116"/>
      <point x="144" y="129"/>
    </contour>
    <contour>
      <point x="281" y="312" type="curve" smooth="yes"/>
      <point x="281" y="305"/>
      <point x="281" y="289"/>
      <point x="281" y="283" type="curve"/>
      <point x="144" y="274" type="line"/>
      <point x="144" y="284"/>
      <point x="144" y="304"/>
      <point x="144" y="313" type="curve" smooth="yes"/>
      <point x="144" y="345"/>
      <point x="145" y="367"/>
      <point x="162" y="385" type="curve"/>
      <point x="173" y="395"/>
      <point x="191" y="403"/>
      <point x="215" y="404" type="curve" smooth="yes"/>
      <point x="236" y="404"/>
      <point x="250" y="397"/>
      <point x="260" y="388" type="curve" smooth="yes"/>
      <point x="279" y="371"/>
      <point x="281" y="348"/>
    </contour>
    <contour>
      <point x="103" y="549" type="line"/>
      <point x="323" y="549" type="line"/>
      <point x="323" y="640" type="line"/>
      <point x="103" y="640" type="line"/>
    </contour>
  </outline>
</glyph>
<glyph name="Edotaccent" format="2">
  <advance width="410"/>
  <unicode hex="0116"/>
  <outline>
    <contour>
      <point x="41" y="0" type="line"/>
      <point x="373" y="0" type="line"/>
      <point x="373" y="100" type="line"/>
      <point x="151" y="100" type="line"/>
      <point x="151" y="308" type="line"/>
      <point x="257" y="308" type="line"/>
      <point x="288" y="413" type="line"/>
      <point x="151" y="413" type="line"/>
      <point x="151" y="588" type="line"/>
      <point x="375" y="588" type="line"/>
      <point x="375" y="698" type="line"/>
      <point x="41" y="698" type="line"/>
    </contour>
    <contour>
      <point x="220" y="862" type="curve" smooth="yes"/>
      <point x="187" y="862"/>
      <point x="160" y="837"/>
      <point x="160" y="804" type="curve" smooth="yes"/>
      <point x="160" y="771"/>
      <point x="187" y="744"/>
      <point x="220" y="744" type="curve" smooth="yes"/>
      <point x="253" y="744"/>
      <point x="279" y="771"/>
      <point x="279" y="804" type="curve" smooth="yes"/>
      <point x="279" y="837"/>
      <point x="253" y="862"/>
    </contour>
  </outline>
</glyph>
<glyph name="Eogonek" format="2">
  <advance width="447"/>
  <unicode hex="0118"/>
  <outline>
    <contour>
      <point x="41" y="0" type="line"/>
      <point x="373" y="0" type="line"/>
      <point x="373" y="100" type="line"/>
      <point x="151" y="100" type="line"/>
      <point x="151" y="308" type="line"/>
      <point x="257" y="308" type="line"/>
      <point x="288" y="413" type="line"/>
      <point x="151" y="413" type="line"/>
      <point x="151" y="588" type="line"/>
      <point x="375" y="588" type="line"/>
      <point x="375" y="698" type="line"/>
      <point x="41" y="698" type="line"/>
    </contour>
    <contour>
      <point x="288" y="-128" type="curve" smooth="yes"/>
      <point x="369" y="-3" type="line"/>
      <point x="369" y="10" type="line"/>
      <point x="280" y="1" type="line"/>
      <point x="280" y="-2" type="line"/>
      <point x="226" y="-92" type="line" smooth="yes"/>
      <point x="175" y="-180"/>
      <point x="245" y="-257"/>
      <point x="336" y="-230" type="curve" smooth="yes"/>
      <point x="358" y="-224"/>
      <point x="439" y="-196"/>
      <point x="441" y="-195" type="curve"/>
      <point x="416" y="-124" type="line"/>
      <point x="416" y="-124"/>
      <point x="341" y="-150"/>
      <point x="313" y="-160" type="curve" smooth="yes"/>
      <point x="291" y="-168"/>
      <point x="275" y="-149"/>
    </contour>
  </outline>
</glyph>
<glyph name="Ecaron" format="2">
  <advance width="410"/>
  <unicode hex="011A"/>
  <outline>
    <contour>
      <point x="41" y="0" type="line"/>
      <point x="373" y="0" type="line"/>
      <point x="373" y="100" type="line"/>
      <point x="151" y="100" type="line"/>
      <point x="151" y="308" type="line"/>
      <point x="257" y="308" type="line"/>
      <point x="288" y="413" type="line"/>
      <point x="151" y="413" type="line"/>
      <point x="151" y="588" type="line"/>
      <point x="375" y="588" type="line"/>
      <point x="375" y="698" type="line"/>
      <point x="41" y="698" type="line"/>
    </contour>
    <contour>
      <point x="203" y="844" type="line"/>
      <point x="128" y="925" type="line"/>
      <point x="75" y="872" type="line"/>
      <point x="203" y="747" type="line"/>
      <point x="335" y="873" type="line"/>
      <point x="283" y="926" type="line"/>
    </contour>
  </outline>
</glyph>
<glyph name="Gcircumflex" format="2">
  <advance width="480"/>
  <unicode hex="011C"/>
  <outline>
    <contour>
      <point x="339" y="576" type="curve"/>
      <point x="372" y="675" type="line"/>
      <point x="333" y="695"/>
      <point x="290" y="706"/>
      <point x="242" y="708" type="curve" smooth="yes"/>
      <point x="188" y="708"/>
      <point x="153" y="700"/>
      <point x="123" y="683" type="curve" smooth="yes"/>
      <point x="65" y="648"/>
      <point x="36" y="587"/>
      <point x="36" y="502" type="curve" smooth="yes"/>
      <point x="36" y="189" type="line" smooth="yes"/>
      <point x="36" y="123"/>
      <point x="55" y="73"/>
      <point x="97" y="40" type="curve" smooth="yes"/>
      <point x="138" y="7"/>
      <point x="187" y="-10"/>
      <point x="247" y="-10" type="curve" smooth="yes"/>
      <point x="272" y="-10"/>
      <point x="302" y="-4"/>
      <point x="337" y="8" type="curve"/>
      <point x="342" y="0" type="line"/>
      <point x="447" y="0" type="line"/>
      <point x="447" y="300" type="line"/>
      <point x="245" y="300" type="line"/>
      <point x="280" y="195" type="line"/>
      <point x="337" y="195" type="line"/>
      <point x="337" y="186" type="line" smooth="yes"/>
      <point x="337" y="156"/>
      <point x="329" y="134"/>
      <point x="312" y="120" type="curve" smooth="yes"/>
      <point x="296" y="107"/>
      <point x="274" y="101"/>
      <point x="246" y="101" type="curve" smooth="yes"/>
      <point x="181" y="101"/>
      <point x="146" y="123"/>
      <point x="146" y="187" type="curve" smooth="yes"/>
      <point x="146" y="510" type="line" smooth="yes"/>
      <point x="146" y="549"/>
      <point x="159" y="571"/>
      <point x="183" y="583" type="curve" smooth="yes"/>
      <point x="200" y="591"/>
      <point x="222" y="594"/>
      <point x="248" y="594" type="curve" smooth="yes"/>
      <point x="276" y="594"/>
      <point x="307" y="587"/>
    </contour>
    <contour>
      <point x="110" y="794" type="line"/>
      <point x="164" y="741" type="line"/>
      <point x="242" y="824" type="line"/>
      <point x="318" y="743" type="line"/>
      <point x="372" y="795" type="line"/>
      <point x="242" y="921" type="line"/>
    </contour>
  </outline>
</glyph>
<glyph name="gcircumflex" format="2">
  <advance width="439"/>
  <unicode hex="011D"/>
  <outline>
    <contour>
      <point x="402" y="-64" type="curve" smooth="yes"/>
      <point x="402" y="499" type="line"/>
      <point x="292" y="499" type="line"/>
      <point x="292" y="477" type="line"/>
      <point x="261" y="498"/>
      <point x="227" y="509"/>
      <point x="191" y="509" type="curve" smooth="yes"/>
      <point x="88" y="509"/>
      <point x="32" y="446"/>
      <point x="32" y="345" type="curve" smooth="yes"/>
      <point x="32" y="176" type="line" smooth="yes"/>
      <point x="32" y="53"/>
      <point x="92" y="-12"/>
      <point x="203" y="-12" type="curve" smooth="yes"/>
      <point x="236" y="-12"/>
      <point x="269" y="-3"/>
      <point x="292" y="12" type="curve"/>
      <point x="292" y="-53" type="line" smooth="yes"/>
      <point x="292" y="-106"/>
      <point x="254" y="-124"/>
      <point x="221" y="-124" type="curve"/>
      <point x="247" y="-210" type="line"/>
      <point x="343" y="-210"/>
      <point x="402" y="-169"/>
    </contour>
    <contour>
      <point x="292" y="386" type="curve"/>
      <point x="292" y="139" type="line" smooth="yes"/>
      <point x="292" y="116"/>
      <point x="267" y="92"/>
      <point x="212" y="88" type="curve"/>
      <point x="164" y="88"/>
      <point x="142" y="120"/>
      <point x="142" y="159" type="curve" smooth="yes"/>
      <point x="142" y="337" type="line" smooth="yes"/>
      <point x="142" y="393"/>
      <point x="179" y="410"/>
      <point x="216" y="410" type="curve" smooth="yes"/>
      <point x="250" y="410"/>
      <point x="292" y="386"/>
    </contour>
    <contour>
      <point x="95" y="599" type="line"/>
      <point x="148" y="549" type="line"/>
      <point x="227" y="631" type="line"/>
      <point x="302" y="549" type="line"/>
      <point x="356" y="602" type="line"/>
      <point x="227" y="728" type="line"/>
    </contour>
  </outline>
</glyph>
<glyph name="Gbreve" format="2">
  <advance width="479"/>
  <unicode hex="011E"/>
  <outline>
    <contour>
      <point x="338" y="576" type="curve"/>
      <point x="371" y="675" type="line"/>
      <point x="332" y="695"/>
      <point x="289" y="706"/>
      <point x="241" y="708" type="curve" smooth="yes"/>
      <point x="187" y="708"/>
      <point x="152" y="700"/>
      <point x="122" y="683" type="curve" smooth="yes"/>
      <point x="64" y="648"/>
      <point x="35" y="587"/>
      <point x="35" y="502" type="curve" smooth="yes"/>
      <point x="35" y="189" type="line" smooth="yes"/>
      <point x="35" y="123"/>
      <point x="54" y="73"/>
      <point x="96" y="40" type="curve" smooth="yes"/>
      <point x="137" y="7"/>
      <point x="186" y="-10"/>
      <point x="246" y="-10" type="curve" smooth="yes"/>
      <point x="271" y="-10"/>
      <point x="301" y="-4"/>
      <point x="336" y="8" type="curve"/>
      <point x="341" y="0" type="line"/>
      <point x="446" y="0" type="line"/>
      <point x="446" y="300" type="line"/>
      <point x="244" y="300" type="line"/>
      <point x="279" y="195" type="line"/>
      <point x="336" y="195" type="line"/>
      <point x="336" y="186" type="line" smooth="yes"/>
      <point x="336" y="156"/>
      <point x="328" y="135"/>
      <point x="312" y="121" type="curve" smooth="yes"/>
      <point x="296" y="108"/>
      <point x="273" y="101"/>
      <point x="245" y="101" type="curve" smooth="yes"/>
      <point x="180" y="101"/>
      <point x="145" y="123"/>
      <point x="145" y="187" type="curve" smooth="yes"/>
      <point x="145" y="510" type="line" smooth="yes"/>
      <point x="145" y="546"/>
      <point x="157" y="568"/>
      <point x="178" y="580" type="curve" smooth="yes"/>
      <point x="195" y="590"/>
      <point x="218" y="594"/>
      <point x="247" y="594" type="curve" smooth="yes"/>
      <point x="275" y="594"/>
      <point x="306" y="587"/>
    </contour>
    <contour>
      <point x="360" y="855" type="curve" smooth="yes"/>
      <point x="360" y="861" type="line"/>
      <point x="280" y="861" type="line"/>
      <point x="280" y="855" type="line" smooth="yes"/>
      <point x="280" y="836"/>
      <point x="265" y="821"/>
      <point x="247" y="821" type="curve" smooth="yes"/>
      <point x="228" y="821"/>
      <point x="213" y="836"/>
      <point x="213" y="855" type="curve" smooth="yes"/>
      <point x="213" y="861" type="line"/>
      <point x="133" y="861" type="line"/>
      <point x="133" y="855" type="line" smooth="yes"/>
      <point x="133" y="792"/>
      <point x="184" y="740"/>
      <point x="246" y="740" type="curve" smooth="yes"/>
      <point x="308" y="740"/>
      <point x="360" y="792"/>
    </contour>
  </outline>
</glyph>
<glyph name="gbreve" format="2">
  <advance width="439"/>
  <unicode hex="011F"/>
  <outline>
    <contour>
      <point x="402" y="-64" type="curve" smooth="yes"/>
      <point x="402" y="499" type="line"/>
      <point x="292" y="499" type="line"/>
      <point x="292" y="477" type="line"/>
      <point x="261" y="498"/>
      <point x="227" y="509"/>
      <point x="191" y="509" type="curve" smooth="yes"/>
      <point x="88" y="509"/>
      <point x="32" y="446"/>
      <point x="32" y="345" type="curve" smooth="yes"/>
      <point x="32" y="176" type="line" smooth="yes"/>
      <point x="32" y="53"/>
      <point x="92" y="-12"/>
      <point x="203" y="-12" type="curve" smooth="yes"/>
      <point x="236" y="-12"/>
      <point x="269" y="-3"/>
      <point x="292" y="12" type="curve"/>
      <point x="292" y="-53" type="line" smooth="yes"/>
      <point x="292" y="-106"/>
      <point x="253" y="-124"/>
      <point x="220" y="-124" type="curve"/>
      <point x="247" y="-210" type="line"/>
      <point x="342" y="-210"/>
      <point x="402" y="-169"/>
    </contour>
    <contour>
      <point x="292" y="386" type="curve"/>
      <point x="292" y="139" type="line" smooth="yes"/>
      <point x="292" y="116"/>
      <point x="267" y="92"/>
      <point x="212" y="88" type="curve"/>
      <point x="164" y="88"/>
      <point x="142" y="120"/>
      <point x="142" y="159" type="curve" smooth="yes"/>
      <point x="142" y="337" type="line" smooth="yes"/>
      <point x="142" y="393"/>
      <point x="179" y="410"/>
      <point x="216" y="410" type="curve" smooth="yes"/>
      <point x="250" y="410"/>
      <point x="292" y="386"/>
    </contour>
    <contour>
      <point x="331" y="662" type="curve" smooth="yes"/>
      <point x="331" y="669" type="line"/>
      <point x="251" y="669" type="line"/>
      <point x="251" y="662" type="line" smooth="yes"/>
      <point x="251" y="642"/>
      <point x="236" y="628"/>
      <point x="218" y="628" type="curve" smooth="yes"/>
      <point x="200" y="628"/>
      <point x="184" y="642"/>
      <point x="184" y="662" type="curve" smooth="yes"/>
      <point x="184" y="669" type="line"/>
      <point x="105" y="669" type="line"/>
      <point x="105" y="662" type="line" smooth="yes"/>
      <point x="105" y="598"/>
      <point x="155" y="549"/>
      <point x="217" y="549" type="curve" smooth="yes"/>
      <point x="280" y="549"/>
      <point x="331" y="598"/>
    </contour>
  </outline>
</glyph>
<glyph name="gdotaccent" format="2">
  <advance width="437"/>
  <unicode hex="0121"/>
  <outline>
    <contour>
      <point x="401" y="-64" type="curve" smooth="yes"/>
      <point x="401" y="499" type="line"/>
      <point x="291" y="499" type="line"/>
      <point x="291" y="477" type="line"/>
      <point x="260" y="498"/>
      <point x="226" y="509"/>
      <point x="190" y="509" type="curve" smooth="yes"/>
      <point x="87" y="509"/>
      <point x="31" y="446"/>
      <point x="31" y="345" type="curve" smooth="yes"/>
      <point x="31" y="176" type="line" smooth="yes"/>
      <point x="31" y="53"/>
      <point x="91" y="-12"/>
      <point x="202" y="-12" type="curve" smooth="yes"/>
      <point x="235" y="-12"/>
      <point x="268" y="-3"/>
      <point x="291" y="12" type="curve"/>
      <point x="291" y="-53" type="line" smooth="yes"/>
      <point x="291" y="-106"/>
      <point x="252" y="-124"/>
      <point x="219" y="-124" type="curve"/>
      <point x="246" y="-210" type="line"/>
      <point x="341" y="-210"/>
      <point x="401" y="-169"/>
    </contour>
    <contour>
      <point x="291" y="386" type="curve"/>
      <point x="291" y="139" type="line" smooth="yes"/>
      <point x="291" y="116"/>
      <point x="266" y="92"/>
      <point x="211" y="88" type="curve"/>
      <point x="163" y="88"/>
      <point x="141" y="120"/>
      <point x="141" y="159" type="curve" smooth="yes"/>
      <point x="141" y="337" type="line" smooth="yes"/>
      <point x="141" y="393"/>
      <point x="178" y="410"/>
      <point x="215" y="410" type="curve" smooth="yes"/>
      <point x="249" y="410"/>
      <point x="291" y="386"/>
    </contour>
    <contour>
      <point x="216" y="664" type="curve" smooth="yes"/>
      <point x="183" y="664"/>
      <point x="157" y="638"/>
      <point x="157" y="605" type="curve" smooth="yes"/>
      <point x="157" y="572"/>
      <point x="183" y="546"/>
      <point x="216" y="546" type="curve" smooth="yes"/>
      <point x="249" y="546"/>
      <point x="277" y="572"/>
      <point x="277" y="605" type="curve" smooth="yes"/>
      <point x="277" y="638"/>
      <point x="249" y="664"/>
    </contour>
  </outline>
</glyph>
<glyph name="gcommaaccent" format="2">
  <advance width="437"/>
  <unicode hex="0123"/>
  <outline>
    <contour>
      <point x="401" y="-64" type="curve" smooth="yes"/>
      <point x="401" y="499" type="line"/>
      <point x="291" y="499" type="line"/>
      <point x="291" y="477" type="line"/>
      <point x="260" y="498"/>
      <point x="226" y="509"/>
      <point x="190" y="509" type="curve" smooth="yes"/>
      <point x="87" y="509"/>
      <point x="31" y="446"/>
      <point x="31" y="345" type="curve" smooth="yes"/>
      <point x="31" y="176" type="line" smooth="yes"/>
      <point x="31" y="53"/>
      <point x="91" y="-12"/>
      <point x="202" y="-12" type="curve" smooth="yes"/>
      <point x="235" y="-12"/>
      <point x="268" y="-3"/>
      <point x="291" y="12" type="curve"/>
      <point x="291" y="-53" type="line" smooth="yes"/>
      <point x="291" y="-106"/>
      <point x="252" y="-124"/>
      <point x="219" y="-124" type="curve"/>
      <point x="246" y="-210" type="line"/>
      <point x="341" y="-210"/>
      <point x="401" y="-169"/>
    </contour>
    <contour>
      <point x="291" y="386" type="curve"/>
      <point x="291" y="139" type="line" smooth="yes"/>
      <point x="291" y="116"/>
      <point x="266" y="92"/>
      <point x="211" y="88" type="curve"/>
      <point x="163" y="88"/>
      <point x="141" y="120"/>
      <point x="141" y="159" type="curve" smooth="yes"/>
      <point x="141" y="337" type="line" smooth="yes"/>
      <point x="141" y="393"/>
      <point x="178" y="410"/>
      <point x="215" y="410" type="curve" smooth="yes"/>
      <point x="249" y="410"/>
      <point x="291" y="386"/>
    </contour>
    <contour>
      <point x="251" y="726" type="curve"/>
      <point x="226" y="741" type="line"/>
      <point x="226" y="741"/>
      <point x="159" y="700"/>
      <point x="159" y="609" type="curve" smooth="yes"/>
      <point x="159" y="576"/>
      <point x="186" y="550"/>
      <point x="219" y="550" type="curve" smooth="yes"/>
      <point x="252" y="550"/>
      <point x="279" y="576"/>
      <point x="279" y="609" type="curve" smooth="yes"/>
      <point x="279" y="637"/>
      <point x="259" y="661"/>
      <point x="235" y="667" type="curve"/>
      <point x="236" y="686"/>
      <point x="241" y="708"/>
    </contour>
  </outline>
</glyph>
<glyph name="Hcircumflex" format="2">
  <advance width="513"/>
  <unicode hex="0124"/>
  <outline>
    <contour>
      <point x="362" y="413" type="line"/>
      <point x="151" y="413" type="line"/>
      <point x="151" y="698" type="line"/>
      <point x="41" y="698" type="line"/>
      <point x="41" y="0" type="line"/>
      <point x="151" y="0" type="line"/>
      <point x="151" y="308" type="line"/>
      <point x="362" y="308" type="line"/>
      <point x="362" y="0" type="line"/>
      <point x="471" y="0" type="line"/>
      <point x="471" y="698" type="line"/>
      <point x="362" y="698" type="line"/>
    </contour>
    <contour>
      <point x="125" y="793" type="line"/>
      <point x="178" y="740" type="line"/>
      <point x="257" y="823" type="line"/>
      <point x="332" y="741" type="line"/>
      <point x="385" y="794" type="line"/>
      <point x="257" y="920" type="line"/>
    </contour>
  </outline>
</glyph>
<glyph name="hcircumflex" format="2">
  <advance width="445"/>
  <unicode hex="0125"/>
  <outline>
    <contour>
      <point x="150" y="476" type="curve"/>
      <point x="150" y="698" type="line"/>
      <point x="41" y="698" type="line"/>
      <point x="41" y="0" type="line"/>
      <point x="150" y="0" type="line"/>
      <point x="150" y="386" type="line"/>
      <point x="181" y="402"/>
      <point x="208" y="409"/>
      <point x="230" y="409" type="curve" smooth="yes"/>
      <point x="272" y="409"/>
      <point x="301" y="381"/>
      <point x="301" y="343" type="curve" smooth="yes"/>
      <point x="301" y="0" type="line"/>
      <point x="411" y="0" type="line"/>
      <point x="411" y="345" type="line" smooth="yes"/>
      <point x="411" y="473"/>
      <point x="329" y="509"/>
      <point x="250" y="509" type="curve" smooth="yes"/>
      <point x="209" y="509"/>
      <point x="167" y="488"/>
    </contour>
    <contour>
      <point x="96" y="760" type="line"/>
      <point x="148" y="708" type="line"/>
      <point x="228" y="790" type="line"/>
      <point x="303" y="708" type="line"/>
      <point x="356" y="761" type="line"/>
      <point x="228" y="887" type="line"/>
    </contour>
  </outline>
</glyph>
<glyph name="Hbar" format="1">
  <advance width="587"/>
  <unicode hex="0126"/>
  <outline>
    <contour>
      <point x="190" y="308" type="line"/>
      <point x="401" y="308" type="line"/>
      <point x="401" y="0" type="line"/>
      <point x="510" y="0" type="line"/>
      <point x="510" y="499" type="line"/>
      <point x="556" y="499" type="line"/>
      <point x="556" y="603" type="line"/>
      <point x="510" y="603" type="line"/>
      <point x="510" y="698" type="line"/>
      <point x="401" y="698" type="line"/>
      <point x="401" y="603" type="line"/>
      <point x="190" y="603" type="line"/>
      <point x="190" y="698" type="line"/>
      <point x="80" y="698" type="line"/>
      <point x="80" y="603" type="line"/>
      <point x="29" y="603" type="line"/>
      <point x="29" y="499" type="line"/>
      <point x="80" y="499" type="line"/>
      <point x="80" y="0" type="line"/>
      <point x="190" y="0" type="line"/>
    </contour>
    <contour>
      <point x="401" y="499" type="line"/>
      <point x="401" y="413" type="line"/>
      <point x="190" y="413" type="line"/>
      <point x="190" y="499" type="line"/>
    </contour>
  </outline>
</glyph>
<glyph name="hbar" format="1">
  <advance width="476"/>
  <unicode hex="0127"/>
  <outline>
    <contour>
      <point x="264" y="548" type="line"/>
      <point x="264" y="639" type="line"/>
      <point x="29" y="639" type="line"/>
      <point x="29" y="548" type="line"/>
    </contour>
    <component base="h" xOffset="30"/>
  </outline>
</glyph>
<glyph name="Itilde" format="2">
  <advance width="292"/>
  <unicode hex="0128"/>
  <outline>
    <contour>
      <point x="32" y="593" type="line"/>
      <point x="94" y="591" type="line"/>
      <point x="94" y="0" type="line"/>
      <point x="204" y="0" type="line"/>
      <point x="204" y="698" type="line"/>
      <point x="32" y="698" type="line"/>
    </contour>
    <contour>
      <point x="281" y="770" type="curve"/>
      <point x="255" y="829" type="line"/>
      <point x="241" y="818"/>
      <point x="224" y="812"/>
      <point x="208" y="811" type="curve"/>
      <point x="171" y="811"/>
      <point x="140" y="829"/>
      <point x="107" y="829" type="curve" smooth="yes"/>
      <point x="70" y="829"/>
      <point x="44" y="816"/>
      <point x="18" y="796" type="curve"/>
      <point x="47" y="738" type="line"/>
      <point x="55" y="744"/>
      <point x="69" y="756"/>
      <point x="93" y="757" type="curve" smooth="yes"/>
      <point x="131" y="757"/>
      <point x="163" y="740"/>
      <point x="197" y="740" type="curve" smooth="yes"/>
      <point x="231" y="740"/>
      <point x="258" y="752"/>
    </contour>
  </outline>
</glyph>
<glyph name="itilde" format="2">
  <advance width="307"/>
  <unicode hex="0129"/>
  <outline>
    <contour>
      <point x="96" y="0" type="line"/>
      <point x="206" y="0" type="line"/>
      <point x="206" y="499" type="line"/>
      <point x="96" y="499" type="line"/>
    </contour>
    <contour>
      <point x="284" y="571" type="curve"/>
      <point x="257" y="631" type="line"/>
      <point x="244" y="620"/>
      <point x="227" y="613"/>
      <point x="211" y="612" type="curve"/>
      <point x="174" y="612"/>
      <point x="143" y="631"/>
      <point x="110" y="631" type="curve" smooth="yes"/>
      <point x="72" y="631"/>
      <point x="47" y="617"/>
      <point x="21" y="598" type="curve"/>
      <point x="50" y="539" type="line"/>
      <point x="65" y="552"/>
      <point x="81" y="558"/>
      <point x="99" y="558" type="curve" smooth="yes"/>
      <point x="128" y="558"/>
      <point x="164" y="541"/>
      <point x="200" y="541" type="curve" smooth="yes"/>
      <point x="234" y="541"/>
      <point x="261" y="554"/>
    </contour>
  </outline>
</glyph>
<glyph name="Imacron" format="2">
  <advance width="273"/>
  <unicode hex="012A"/>
  <outline>
    <contour>
      <point x="24" y="593" type="line"/>
      <point x="86" y="591" type="line"/>
      <point x="86" y="0" type="line"/>
      <point x="195" y="0" type="line"/>
      <point x="195" y="698" type="line"/>
      <point x="24" y="698" type="line"/>
    </contour>
    <contour>
      <point x="32" y="741" type="line"/>
      <point x="252" y="741" type="line"/>
      <point x="252" y="833" type="line"/>
      <point x="32" y="833" type="line"/>
    </contour>
  </outline>
</glyph>
<glyph name="imacron" format="2">
  <advance width="277"/>
  <unicode hex="012B"/>
  <outline>
    <contour>
      <point x="82" y="0" type="line"/>
      <point x="192" y="0" type="line"/>
      <point x="192" y="499" type="line"/>
      <point x="82" y="499" type="line"/>
    </contour>
    <contour>
      <point x="27" y="544" type="line"/>
      <point x="248" y="544" type="line"/>
      <point x="248" y="636" type="line"/>
      <point x="27" y="636" type="line"/>
    </contour>
  </outline>
</glyph>
<glyph name="Iogonek" format="2">
  <advance width="288"/>
  <unicode hex="012E"/>
  <outline>
    <contour>
      <point x="42" y="593" type="line"/>
      <point x="104" y="591" type="line"/>
      <point x="104" y="0" type="line"/>
      <point x="213" y="0" type="line"/>
      <point x="213" y="698" type="line"/>
      <point x="42" y="698" type="line"/>
    </contour>
    <contour>
      <point x="123" y="-127" type="curve" smooth="yes"/>
      <point x="203" y="-1" type="line"/>
      <point x="203" y="12" type="line"/>
      <point x="114" y="3" type="line"/>
      <point x="114" y="-1" type="line"/>
      <point x="60" y="-90" type="line" smooth="yes"/>
      <point x="9" y="-178"/>
      <point x="79" y="-255"/>
      <point x="170" y="-228" type="curve" smooth="yes"/>
      <point x="192" y="-222"/>
      <point x="273" y="-194"/>
      <point x="275" y="-193" type="curve"/>
      <point x="250" y="-122" type="line"/>
      <point x="250" y="-122"/>
      <point x="175" y="-149"/>
      <point x="147" y="-157" type="curve"/>
      <point x="124" y="-166"/>
      <point x="110" y="-147"/>
    </contour>
  </outline>
</glyph>
<glyph name="iogonek" format="2">
  <advance width="280"/>
  <unicode hex="012F"/>
  <outline>
    <contour>
      <point x="93" y="0" type="line"/>
      <point x="203" y="0" type="line"/>
      <point x="203" y="499" type="line"/>
      <point x="93" y="499" type="line"/>
    </contour>
    <contour>
      <point x="208" y="650" type="curve" smooth="yes"/>
      <point x="208" y="683"/>
      <point x="181" y="710"/>
      <point x="148" y="710" type="curve" smooth="yes"/>
      <point x="115" y="710"/>
      <point x="88" y="683"/>
      <point x="88" y="650" type="curve" smooth="yes"/>
      <point x="88" y="617"/>
      <point x="115" y="591"/>
      <point x="148" y="591" type="curve" smooth="yes"/>
      <point x="181" y="591"/>
      <point x="208" y="617"/>
    </contour>
    <contour>
      <point x="113" y="-129" type="curve" smooth="yes"/>
      <point x="193" y="-4" type="line"/>
      <point x="193" y="10" type="line"/>
      <point x="104" y="1" type="line"/>
      <point x="104" y="-3" type="line"/>
      <point x="49" y="-94" type="line" smooth="yes"/>
      <point x="-3" y="-183"/>
      <point x="69" y="-255"/>
      <point x="160" y="-230" type="curve" smooth="yes"/>
      <point x="182" y="-224"/>
      <point x="263" y="-196"/>
      <point x="266" y="-196" type="curve"/>
      <point x="239" y="-124" type="line"/>
      <point x="239" y="-124"/>
      <point x="164" y="-150"/>
      <point x="137" y="-160" type="curve"/>
      <point x="114" y="-172"/>
      <point x="101" y="-147"/>
    </contour>
  </outline>
</glyph>
